<?xml version="1.0" encoding="utf-8"?>
<!-- Generator: Adobe Illustrator 24.1.1, SVG Export Plug-In . SVG Version: 6.00 Build 0)  -->
<svg version="1.1" xmlns="http://www.w3.org/2000/svg" xmlns:xlink="http://www.w3.org/1999/xlink" x="0px" y="0px"
	 viewBox="0 0 3710 3710" style="enable-background:new 0 0 3710 3710;" xml:space="preserve">
<style type="text/css">
	.st0{fill:#FFFFFF;}
	.st1{fill:#F4F7FA;}
	.st2{fill:url(#SVGID_1_);}
	.st3{clip-path:url(#SVGID_4_);}
	.st4{fill:url(#SVGID_5_);}
	.st5{fill:url(#SVGID_6_);}
	.st6{fill:url(#SVGID_7_);}
	.st7{fill:url(#SVGID_8_);}
	.st8{fill:url(#SVGID_9_);}
	.st9{fill:url(#SVGID_10_);}
	.st10{clip-path:url(#SVGID_13_);}
	.st11{clip-path:url(#SVGID_16_);}
	.st12{fill:#D8DEE8;}
	.st13{fill:url(#SVGID_17_);}
	.st14{fill:url(#SVGID_18_);}
	.st15{opacity:0.3;}
	.st16{fill:url(#SVGID_19_);}
	.st17{fill:url(#SVGID_20_);}
	.st18{fill:url(#SVGID_21_);}
	.st19{fill:url(#SVGID_22_);}
	.st20{fill:url(#SVGID_23_);}
	.st21{fill:url(#SVGID_24_);}
	.st22{fill:url(#SVGID_25_);}
	.st23{fill:url(#SVGID_26_);}
	.st24{fill:url(#SVGID_27_);}
	.st25{fill:url(#SVGID_28_);}
	.st26{fill:url(#SVGID_29_);}
	.st27{fill:url(#SVGID_30_);}
	.st28{fill:url(#SVGID_31_);}
	.st29{fill:url(#SVGID_32_);}
	.st30{fill:url(#SVGID_33_);}
	.st31{fill:url(#SVGID_34_);}
</style>
<g id="Background">
	<g>
		<g>
			<rect class="st0" width="3710" height="3710"/>
		</g>
	</g>
</g>
<g id="Illustration">
	<g>
		<path class="st1" d="M1811.7,638.2c0,0-1348.3-490.3-1228.5,383.6s-809,2150,322.1,2290.4c1131.1,140.4,2157.3-72.8,2262.2-523.7
			S3532.5,1212.7,1811.7,638.2z"/>
		<g>
			<g>
				<g>
					
						<linearGradient id="SVGID_1_" gradientUnits="userSpaceOnUse" x1="-3480.9832" y1="3130.7061" x2="-3943.9119" y2="4511.9063" gradientTransform="matrix(0.9603 0.2789 -0.2789 0.9603 7110.8843 -534.1868)">
						<stop  offset="0" style="stop-color:#AA80F9"/>
						<stop  offset="0.9964" style="stop-color:#6165D7"/>
					</linearGradient>
					<path class="st2" d="M1795,2635.6c-14.4-90.8-22-232.4,52.6-358.5c130.2-220,364.4-145.2,590.6-380.3
						c182.5-189.6,126.4-338.4,328-463.9c33.7-21,212.1-136.6,343.6-65.4c74.1,40.2,100.5,121.8,105.5,137.1
						c74.9,231.5-162.8,591.6-470.6,754.9c-176.8,93.8-233.5,62.4-544.3,171.1C2017.7,2494.5,1880.4,2577.4,1795,2635.6z"/>
				</g>
				<g>
					<defs>
						<path id="SVGID_2_" d="M1795,2635.6c-14.4-90.8-22-232.4,52.6-358.5c130.2-220,364.4-145.2,590.6-380.3
							c182.5-189.6,126.4-338.4,328-463.9c33.7-21,212.1-136.6,343.6-65.4c74.1,40.2,100.5,121.8,105.5,137.1
							c74.9,231.5-162.8,591.6-470.6,754.9c-176.8,93.8-233.5,62.4-544.3,171.1C2017.7,2494.5,1880.4,2577.4,1795,2635.6z"/>
					</defs>
					
						<linearGradient id="SVGID_3_" gradientUnits="userSpaceOnUse" x1="3033.7217" y1="1990.0654" x2="4477.3057" y2="1990.0654" gradientTransform="matrix(-1 0 0 1 6262.9121 0)">
						<stop  offset="0" style="stop-color:#FF9085"/>
						<stop  offset="1" style="stop-color:#FB6FBB"/>
					</linearGradient>
					<use xlink:href="#SVGID_2_"  style="overflow:visible;fill:url(#SVGID_3_);"/>
					<clipPath id="SVGID_4_">
						<use xlink:href="#SVGID_2_"  style="overflow:visible;"/>
					</clipPath>
					<g class="st3">
						<path class="st0" d="M1768,2744.5l-3.6-0.8c46.6-216.4,133.2-361.5,257.4-431.1c60.8-34.1,109-39.2,160.1-44.6
							c54.9-5.8,111.6-11.9,186.8-56.6c73-43.5,99.4-85.7,132.8-139.1c30-48.1,67.4-107.9,151-187.3
							c73.2-69.6,126.5-102.1,173.4-130.7c50.8-31,91-55.5,137.7-115.8c76.3-98.6,116.7-225.3,120-376.8l3.7,0.1
							c-3.4,152.3-44,279.8-120.8,379c-47.1,60.9-87.5,85.5-138.7,116.7c-46.8,28.5-99.8,60.9-172.8,130.3
							c-83.2,79.1-120.5,138.7-150.4,186.6c-33.7,53.8-60.2,96.4-134,140.3c-75.9,45.2-133,51.3-188.3,57.1
							c-50.7,5.4-98.6,10.5-158.7,44.2C1900.3,2384.9,1814.3,2529.1,1768,2744.5z"/>
						<path class="st0" d="M2829.4,1770.5c-7.6,0-15.3-0.1-23.1-0.4l-2.5-0.1l0.8-2.4c1-3,100.3-303-9.6-428l2.8-2.5
							c106,120.6,20.3,400.5,11.1,429.3c164.6,5.5,287.5-56,361.7-108.7c80.8-57.4,122.9-117,123.3-117.5l3.1,2.1
							c-0.4,0.6-42.9,60.7-124.2,118.5C3101.2,1711.6,2984.7,1770.5,2829.4,1770.5z"/>
						<path class="st0" d="M2840.6,2026.9c-27.3,0-52.6-1.5-75.5-3.9c-115.2-11.9-193.2-46.9-194-47.2l-1.5-0.7l0.4-1.5
							c44.4-156.5,7.7-379.8,7.3-382.1l3.7-0.6c0.4,2.2,37,224.9-7,382.1c11.2,4.8,85.5,35.4,191.5,46.3
							c105.7,10.9,265.6,3.9,426.7-91.2l1.9,3.2C3067,2006.4,2940.5,2026.9,2840.6,2026.9z"/>
						<path class="st0" d="M2703.7,2391.8c-300.1,0-471.8-125.5-473.5-126.7l-1.6-1.2l1.3-1.5c120-144.4,75.3-384.8,74.8-387.3
							l3.7-0.7c0.5,2.4,45.2,242.8-74.3,388.8c18.3,12.8,192.5,129,485.6,124.7l0.1,3.7C2714.4,2391.8,2709,2391.8,2703.7,2391.8z"
							/>
					</g>
				</g>
			</g>
			<g>
				
					<linearGradient id="SVGID_5_" gradientUnits="userSpaceOnUse" x1="-3027.8718" y1="3864.9231" x2="-4354.0469" y2="4954.2827" gradientTransform="matrix(0.9434 0.3316 -0.3316 0.9434 7367.334 -524.9336)">
					<stop  offset="3.597120e-03" style="stop-color:#E38DDD"/>
					<stop  offset="1" style="stop-color:#9571F6"/>
				</linearGradient>
				<path class="st4" d="M2105.4,2452.7c50.7-35.9,133.5-87.8,244.8-126.4c197.9-68.6,288.1-26.7,372.2-109.6
					c87.1-85.8,31.6-171.3,135.9-267.1c8.8-8.1,120.7-108.2,221-70c70.2,26.8,97.1,106.9,109.7,144.5
					c48.9,145.9,18.4,367.6-137.7,476c-148,102.7-334.1,52-393.2,35.5c-103.7-29-128-69.6-233.4-95.9
					C2296.6,2407.7,2181.1,2430,2105.4,2452.7z"/>
			</g>
		</g>
		<g>
			<g>
				<linearGradient id="SVGID_6_" gradientUnits="userSpaceOnUse" x1="1290.6025" y1="2096.616" x2="145.142" y2="3481.1758">
					<stop  offset="3.597000e-03" style="stop-color:#F36F56"/>
					<stop  offset="1" style="stop-color:#FFC444"/>
				</linearGradient>
				<path class="st5" d="M624.8,2435.5c-45.6,1.6-91.6-11.1-129-39c-82.9-61.7-91.8-173.8-19.8-249.6l1052.2-1116
					c34.4-36.2,84.2-56.2,136.3-54.8c51.9,1.4,101,23.9,134.7,61.5l352.3,392.9l400.3-440.2c59.9-65.8,163.6-69.9,231.6-9.6
					c67.6,59.9,74.8,161.1,16.2,226.8l-519,582.2c-32.3,36.3-79.4,57.4-129.1,58c-49.9,0.5-97.6-19.8-130.6-55.9l-356.4-389.5
					L772,2370C733.6,2411.2,679.5,2433.6,624.8,2435.5z"/>
				<g>
					<linearGradient id="SVGID_7_" gradientUnits="userSpaceOnUse" x1="1641.6447" y1="2387.0354" x2="496.1849" y2="3771.5942">
						<stop  offset="3.597000e-03" style="stop-color:#F36F56"/>
						<stop  offset="1" style="stop-color:#FFC444"/>
					</linearGradient>
					<polygon class="st6" points="2911.7,1292 2470.8,905.1 3036.6,715.2 3076.1,715.2 2947.3,1288.5 					"/>
				</g>
			</g>
			<g>
				<linearGradient id="SVGID_8_" gradientUnits="userSpaceOnUse" x1="930.7796" y1="2423.5979" x2="2977.1406" y2="377.237">
					<stop  offset="0" style="stop-color:#FFC444"/>
					<stop  offset="0.9964" style="stop-color:#F36F56"/>
				</linearGradient>
				<path class="st7" d="M664.3,2435.5c-45.6,1.6-91.6-11.1-129-39c-82.9-61.7-91.8-173.8-19.8-249.6l1052.2-1116
					c34.4-36.2,84.2-56.2,136.3-54.8c51.9,1.4,101,23.9,134.7,61.5l352.3,392.9l400.3-440.2c59.9-65.8,163.6-69.9,231.6-9.6
					c67.6,59.9,74.8,161.1,16.2,226.8l-519,582.2c-32.3,36.3-79.4,57.4-129.1,58c-49.9,0.5-97.6-19.8-130.6-55.9l-356.4-389.5
					L811.5,2370C773.1,2411.2,719,2433.6,664.3,2435.5z"/>
				<g>
					<linearGradient id="SVGID_9_" gradientUnits="userSpaceOnUse" x1="1166.4065" y1="2659.2222" x2="3212.7642" y2="612.8644">
						<stop  offset="0" style="stop-color:#FFC444"/>
						<stop  offset="0.9964" style="stop-color:#F36F56"/>
					</linearGradient>
					<polygon class="st8" points="2947.3,1288.5 2510.3,905.1 3076.1,715.2 					"/>
				</g>
			</g>
		</g>
		<g>
			<linearGradient id="SVGID_10_" gradientUnits="userSpaceOnUse" x1="323.581" y1="2970.9036" x2="714.1972" y2="2771.0532">
				<stop  offset="0" style="stop-color:#AA80F9"/>
				<stop  offset="0.9964" style="stop-color:#6165D7"/>
			</linearGradient>
			<path class="st9" d="M856.3,1798.6L645.9,3148.6c-4,26,14.6,49.5,38.3,48.4l1053.2-49.7L856.3,1798.6z"/>
			<g>
				<g>
					<g>
						<defs>
							<path id="SVGID_11_" d="M1085.7,3048c33.3-101.3,67.1-256.1,27.5-427.8c-45.5-197.2-146.3-236.7-236.8-447.5
								c-129.2-301,17-519-116.7-611c-65.2-44.9-167.8-44.9-231,0.1C348.3,1690.3,397.8,2250,684,2468.4
								c129.4,98.8,242.4,87.1,339.5,214.9C1109.3,2796.2,1102.6,2945.2,1085.7,3048z"/>
						</defs>
						<linearGradient id="SVGID_12_" gradientUnits="userSpaceOnUse" x1="530.7891" y1="1540.476" x2="962.1003" y2="2912.8286">
							<stop  offset="0" style="stop-color:#FF9085"/>
							<stop  offset="1" style="stop-color:#FB6FBB"/>
						</linearGradient>
						<use xlink:href="#SVGID_11_"  style="overflow:visible;fill:url(#SVGID_12_);"/>
						<clipPath id="SVGID_13_">
							<use xlink:href="#SVGID_11_"  style="overflow:visible;"/>
						</clipPath>
						<g class="st10">
							<path class="st0" d="M1105.8,2793.1c-10.8-42.6-25.4-84.5-43.3-124.4c-41.1-91.8-86.6-142.4-144.1-206.3
								c-37.5-41.8-80.1-89.1-129.3-157c-92-127-120.6-171.6-146.2-243.6c-50.6-142.3-42.9-270-33.7-333.4
								c13-89.9,43.1-175.5,89.7-254.4l3.2,1.9c-46.3,78.4-76.3,163.6-89.2,253c-9.1,63.1-16.8,190,33.5,331.6
								c25.4,71.5,53.9,116,145.7,242.6c49.1,67.7,91.5,115,129,156.7c57.7,64.2,103.3,114.9,144.7,207.3
								c18,40.2,32.7,82.3,43.5,125.1L1105.8,2793.1z"/>
							<path class="st0" d="M618.7,1961.6l-2.7-1.5c-0.5-0.3-54-29.7-101.5-89.5c-43.9-55.2-91.5-148.4-69.5-278.8l3.7,0.6
								c-21.8,129,25.3,221.2,68.7,275.9c41,51.6,86.3,80.3,97.7,87c3.1-104,69.8-171.3,125.5-209.7c60.8-41.9,122-59,122.7-59.2
								l1,3.6c-0.6,0.2-61.3,17.2-121.6,58.7c-55.5,38.2-122.1,105.6-123.9,209.8L618.7,1961.6z"/>
							<path class="st0" d="M633.7,2296.1c-54.1,0-117.6-13.3-176.3-59l2.3-2.9c131,101.9,286.6,40.4,303.2,33.4
								c-26.5-102.7-3-178.6,21.5-224.1c26.7-49.7,60.3-75.2,60.6-75.5l2.2,3c-1.3,1-131.7,101.5-80.3,297.2l0.4,1.5l-1.4,0.7
								C764.9,2270.9,708.3,2296.1,633.7,2296.1z"/>
							<path class="st0" d="M754.3,2492.2c-40.5,0-89.1-7.4-145.5-28l1.3-3.5c183.9,67.2,282.6-7.5,293.4-16.4
								c-44.9-105.4,18.4-275.5,19.1-277.3l3.5,1.3c-0.6,1.7-64,171.8-18.6,275.7l0.5,1.2l-1,0.9
								C906.2,2446.8,854.9,2492.2,754.3,2492.2z"/>
						</g>
					</g>
				</g>
				<g>
					<g>
						<defs>
							<path id="SVGID_14_" d="M1414,3132c11.3-68.1,17.7-174.4-37.7-269.5c-96.7-165.9-272.9-110.9-441.6-288.6
								c-136-143.3-93.2-254.7-243.9-350c-25.2-15.9-158.5-103.7-257.7-50.8c-55.9,29.8-76.1,90.9-79.9,102.4
								c-57.4,173.5,119.3,445,349.5,569.3c132.3,71.4,175,48,407.8,131.3C1247.5,3024.9,1350.2,3087.9,1414,3132z"/>
						</defs>
						<linearGradient id="SVGID_15_" gradientUnits="userSpaceOnUse" x1="138.9948" y1="1781.2383" x2="1844.2949" y2="3894.3306">
							<stop  offset="3.597120e-03" style="stop-color:#E38DDD"/>
							<stop  offset="1" style="stop-color:#9571F6"/>
						</linearGradient>
						<use xlink:href="#SVGID_14_"  style="overflow:visible;fill:url(#SVGID_15_);"/>
						<clipPath id="SVGID_16_">
							<use xlink:href="#SVGID_14_"  style="overflow:visible;"/>
						</clipPath>
						<g class="st11">
							<path class="st0" d="M1433.3,3214c-33.7-161.8-97.4-270.4-189.5-322.9c-44.9-25.6-80.8-29.6-118.8-33.9
								c-41.5-4.7-84.5-9.6-141.3-43.9c-55.3-33.4-75.1-65.5-100.1-106.2c-22.2-36.1-49.9-81-111.9-140.8c-54.4-52.4-94-77-129-98.6
								c-38.3-23.7-68.5-42.5-103.7-88.5c-57.2-75-87.1-171-88.9-285.5l3.7-0.1c1.7,113.7,31.4,209,88.1,283.3
								c34.7,45.5,64.7,64.1,102.7,87.6c35.1,21.8,74.9,46.4,129.6,99.1c62.4,60.1,90.2,105.3,112.5,141.5
								c24.8,40.2,44.3,72,98.9,105c56.1,33.9,98.7,38.8,139.8,43.4c38.4,4.3,74.6,8.4,120.2,34.4c93,53,157.4,162.4,191.3,325.4
								L1433.3,3214z"/>
							<path class="st0" d="M644.7,2477.6c-230.9,0-352.2-172.2-353.4-174l3.1-2.1c1.2,1.8,125.7,178.2,362,172.2
								c-7.6-24.6-68.9-232.7,10.8-322.2l2.8,2.5c-83,93.1-10,318.6-9.3,320.9l0.8,2.4l-2.5,0.1
								C654.2,2477.5,649.4,2477.6,644.7,2477.6z"/>
							<path class="st0" d="M635.7,2670c-75.7,0-172.2-15.6-269.1-73.7l1.9-3.2c120.4,72.2,240.4,78.2,319.8,70.6
								c78.5-7.6,133.8-29.6,143.4-33.6c-32-118.3-3.5-285.1-3.2-286.8l3.7,0.6c-0.3,1.7-29,169.1,3.5,286.7l0.4,1.5l-1.5,0.7
								c-0.6,0.3-59.4,26.2-146,34.5C672.6,2669.1,654.8,2670,635.7,2670z"/>
							<path class="st0" d="M738.3,2944.8c-5.8,0-11.6-0.1-17.5-0.2l0.1-3.7c121,2.6,214.1-22.5,270.9-44.1
								c54-20.5,86.4-41.7,93.7-46.8c-88.7-110.4-54-290.5-53.6-292.3l3.7,0.7c-0.4,1.8-35.1,181.9,54.1,290.8l1.2,1.5l-1.6,1.2
								C1088,2852.9,960.4,2944.8,738.3,2944.8z"/>
						</g>
					</g>
				</g>
			</g>
			<polygon class="st12" points="1178.5,3380.8 638.1,3199.2 1415.5,3147.3 			"/>
			<g>
				<linearGradient id="SVGID_17_" gradientUnits="userSpaceOnUse" x1="855.6002" y1="2582.7668" x2="3099.0105" y2="2582.7668">
					<stop  offset="3.597120e-03" style="stop-color:#EBEFF2"/>
					<stop  offset="1" style="stop-color:#FFFFFF"/>
				</linearGradient>
				<path class="st13" d="M2782.7,1826.8l-1885.9-58.3c-27.5-0.9-45.5,20.2-40.2,47l305.9,1536.4c5.3,26.8,31.6,47,58.5,45.1
					l1847.7-133.5c20.9-1.5,34-21.8,29.3-45.3l-268.3-1347.5C2825.1,1847.1,2804,1827.4,2782.7,1826.8z"/>
				
					<linearGradient id="SVGID_18_" gradientUnits="userSpaceOnUse" x1="2211.3296" y1="1986.9493" x2="3506.0586" y2="4372.4473" gradientTransform="matrix(1 0 0.2218 1 -1122.9679 1.000000e-04)">
					<stop  offset="0" style="stop-color:#AA80F9"/>
					<stop  offset="0.9964" style="stop-color:#6165D7"/>
				</linearGradient>
				<path class="st14" d="M2792.9,1826.8l-1885.9-58.3c-27.5-0.9-45.5,20.2-40.2,47l305.9,1536.4c5.3,26.8,31.6,47,58.5,45.1
					l1847.7-133.5c20.9-1.5,34-21.8,29.3-45.3l-268.3-1347.5C2835.2,1847.1,2814.2,1827.4,2792.9,1826.8z"/>
				<g class="st15">
					
						<linearGradient id="SVGID_19_" gradientUnits="userSpaceOnUse" x1="1817.1626" y1="2209.0564" x2="3131.5742" y2="4630.8184" gradientTransform="matrix(1 0 0.2218 1 -1122.9679 1.000000e-04)">
						<stop  offset="0" style="stop-color:#FF9085"/>
						<stop  offset="1" style="stop-color:#FB6FBB"/>
					</linearGradient>
					<path class="st16" d="M2300.7,2640.9c-371.2-201.7-723-44.9-976.3-303.6c-156-159.3-184.6-384.9-179.9-561.5l-237.6-7.3
						c-27.5-0.9-45.5,20.2-40.2,47l305.9,1536.4c5.3,26.8,31.6,47,58.5,45.1l1603.2-115.9
						C2659.1,2900.8,2461.6,2728.3,2300.7,2640.9z"/>
				</g>
				<path class="st12" d="M3015.8,3212.3l-1750.3,119.5c-29.1,2-57.4-19.9-63.2-49L929.7,1914c-5.8-29,13.6-51.9,43.3-51.2
					l1783,44.8c23.3,0.6,46.2,21.8,51.3,47.4l240.5,1208C3053,3188.7,3038.7,3210.7,3015.8,3212.3z"/>
				
					<linearGradient id="SVGID_20_" gradientUnits="userSpaceOnUse" x1="2427.636" y1="3475.4465" x2="2689.8801" y2="1587.2981" gradientTransform="matrix(1 0 0.2218 1 -1122.9679 1.000000e-04)">
					<stop  offset="3.597120e-03" style="stop-color:#EBEFF2"/>
					<stop  offset="1" style="stop-color:#FFFFFF"/>
				</linearGradient>
				<path class="st17" d="M3023.7,3211.7l-1748.2,119.3c-29,2-57.4-19.9-63.1-48.9L939.9,1914.3c-5.8-29,13.6-51.9,43.2-51.2
					l1780.9,44.8c23.3,0.6,46.2,21.8,51.3,47.4l240.4,1207.3C3060.8,3188.2,3046.5,3210.2,3023.7,3211.7z"/>
				<g>
					<path class="st12" d="M1870.3,2356.7l-190.8,1.2c-5.7,0-11.3-4.7-12.5-10.5l-31.6-158.5c-1.2-5.9,2.5-10.6,8.3-10.6l191.3,1.1
						c5.6,0,11.1,4.7,12.2,10.5l31.1,156.3C1879.5,2351.9,1875.9,2356.7,1870.3,2356.7z M1685.6,2336.6l170.4-0.8l-27-135.6
						l-170.7-0.7L1685.6,2336.6z"/>
					<path class="st12" d="M2111.5,2355.2l-184.7,1.1c-5.5,0-11-4.6-12.1-10.4l-31.1-156c-1.1-5.8,2.4-10.4,8-10.4l185.2,1
						c5.4,0,10.7,4.7,11.8,10.4l30.6,153.8C2120.3,2350.5,2116.9,2355.2,2111.5,2355.2z M1932.6,2335.4l165-0.8l-26.6-133.4
						l-165.3-0.7L1932.6,2335.4z"/>
					<path class="st12" d="M2345,2353.8l-178.9,1.1c-5.4,0-10.6-4.5-11.8-10.2l-30.6-153.5c-1.1-5.7,2.3-10.2,7.7-10.2l179.3,1
						c5.2,0,10.4,4.6,11.5,10.2l30.1,151.4C2353.6,2349.2,2350.3,2353.7,2345,2353.8z M2171.7,2334.3l159.8-0.8l-26.1-131.3
						l-160.1-0.7L2171.7,2334.3z"/>
					<path class="st12" d="M2571.3,2352.3l-173.4,1.1c-5.2,0-10.3-4.5-11.4-10.1l-30.1-151.1c-1.1-5.6,2.2-10.1,7.4-10.1l173.8,1
						c5.1,0,10.1,4.5,11.2,10l29.7,149.1C2579.6,2347.8,2576.4,2352.3,2571.3,2352.3z M2403.3,2333.2l154.8-0.7l-25.7-129.3
						l-155.1-0.7L2403.3,2333.2z"/>
					<path class="st12" d="M2790.7,2351l-168.1,1c-5,0-10-4.4-11.1-9.9l-29.6-148.7c-1.1-5.5,2.1-9.9,7.2-9.9l168.5,0.9
						c4.9,0,9.8,4.4,10.9,9.9l29.2,146.8C2798.7,2346.5,2795.6,2351,2790.7,2351z M2627.8,2332.1l150.1-0.7l-25.3-127.3l-150.4-0.6
						L2627.8,2332.1z"/>
					<path class="st12" d="M1406.7,2575.9l-203.4,4.1c-6.1,0.1-12-4.7-13.2-10.8l-32.6-164c-1.2-6.1,2.8-11,8.9-11.1l203.9-1.7
						c6,0,11.7,4.8,12.9,10.7l32.2,161.6C1416.5,2570.9,1412.6,2575.8,1406.7,2575.9z M1209.9,2557.9l181.7-3.4l-27.9-140.2
						l-182,1.8L1209.9,2557.9z"/>
					<path class="st12" d="M1663.5,2570.7l-196.7,4c-5.9,0.1-11.7-4.6-12.8-10.6l-32.1-161.2c-1.2-6,2.6-10.8,8.6-10.9l197.2-1.6
						c5.8,0,11.4,4.7,12.5,10.6l31.6,158.9C1672.9,2565.8,1669.2,2570.6,1663.5,2570.7z M1473.2,2552.9l175.7-3.3l-27.4-137.8
						l-176,1.7L1473.2,2552.9z"/>
					<path class="st12" d="M1911.9,2565.7l-190.3,3.8c-5.7,0.1-11.3-4.5-12.5-10.4l-31.6-158.5c-1.2-5.9,2.5-10.7,8.3-10.7
						l190.8-1.6c5.6,0,11,4.6,12.2,10.4l31.1,156.3C1921.1,2560.9,1917.5,2565.6,1911.9,2565.7z M1727.7,2548.2l169.9-3.2l-27-135.6
						l-170.3,1.6L1727.7,2548.2z"/>
					<path class="st12" d="M2152.4,2560.9l-184.2,3.7c-5.5,0.1-10.9-4.5-12.1-10.2l-31.1-156c-1.1-5.8,2.4-10.5,8-10.5l184.7-1.5
						c5.4,0,10.7,4.5,11.8,10.2l30.6,153.8C2161.3,2556.1,2157.8,2560.8,2152.4,2560.9z M1974.1,2543.6l164.5-3.1L2112,2407
						l-164.8,1.6L1974.1,2543.6z"/>
					<path class="st12" d="M2385.3,2556.2l-178.4,3.6c-5.3,0.1-10.6-4.4-11.7-10.1l-30.6-153.5c-1.1-5.7,2.3-10.3,7.7-10.4
						l178.8-1.5c5.2,0,10.4,4.5,11.5,10.1l30.1,151.4C2393.9,2551.5,2390.5,2556.1,2385.3,2556.2z M2212.5,2539.1l159.3-3
						l-26.1-131.3l-159.6,1.5L2212.5,2539.1z"/>
					<path class="st12" d="M2611,2551.7l-172.9,3.5c-5.2,0.1-10.3-4.3-11.4-9.9l-30.1-151.1c-1.1-5.6,2.2-10.1,7.4-10.2l173.3-1.4
						c5.1,0,10.1,4.4,11.2,9.9l29.7,149.1C2619.3,2547,2616.1,2551.6,2611,2551.7z M2443.5,2534.8l154.4-2.9l-25.7-129.3l-154.7,1.5
						L2443.5,2534.8z"/>
					<path class="st12" d="M2829.8,2547.3l-167.6,3.4c-5,0.1-10-4.3-11.1-9.8l-29.6-148.7c-1.1-5.5,2.1-10,7.1-10l168-1.4
						c4.9,0,9.8,4.3,10.9,9.8l29.2,146.8C2837.8,2542.7,2834.7,2547.2,2829.8,2547.3z M2667.3,2530.6l149.7-2.8l-25.3-127.3
						l-149.9,1.5L2667.3,2530.6z"/>
					<path class="st12" d="M1449.7,2792l-202.9,6.9c-6.1,0.2-12-4.5-13.2-10.6l-32.6-164c-1.2-6.1,2.8-11.1,8.9-11.2l203.3-4.5
						c5.9-0.1,11.7,4.6,12.9,10.6l32.2,161.6C1459.5,2786.8,1455.6,2791.8,1449.7,2792z M1253.5,2776.6l181.2-5.9l-27.9-140.2
						l-181.5,4.3L1253.5,2776.6z"/>
					<path class="st12" d="M1705.8,2783.3l-196.2,6.7c-5.9,0.2-11.6-4.5-12.8-10.4l-32.1-161.2c-1.2-6,2.6-10.9,8.5-11l196.6-4.4
						c5.7-0.1,11.3,4.5,12.5,10.4l31.6,158.9C1715.2,2778.1,1711.5,2783.1,1705.8,2783.3z M1516,2768l175.2-5.7l-27.4-137.8
						l-175.5,4.2L1516,2768z"/>
					<path class="st12" d="M1953.6,2774.8l-189.8,6.5c-5.7,0.2-11.3-4.4-12.4-10.3l-31.6-158.5c-1.2-5.9,2.5-10.7,8.2-10.8
						l190.2-4.2c5.6-0.1,11,4.5,12.1,10.2l31.1,156.3C1962.7,2769.8,1959.1,2774.6,1953.6,2774.8z M1769.9,2759.7l169.5-5.6
						l-27-135.6l-169.8,4L1769.9,2759.7z"/>
					<path class="st12" d="M2193.4,2766.6l-183.7,6.3c-5.5,0.2-10.9-4.3-12.1-10.1l-31.1-156c-1.1-5.8,2.4-10.5,7.9-10.7l184.1-4.1
						c5.4-0.1,10.7,4.4,11.8,10.1l30.6,153.8C2202.2,2761.7,2198.8,2766.4,2193.4,2766.6z M2015.5,2751.7l164.1-5.4l-26.6-133.4
						l-164.3,3.9L2015.5,2751.7z"/>
					<path class="st12" d="M2425.6,2758.7l-177.9,6.1c-5.3,0.2-10.6-4.3-11.7-9.9l-30.6-153.5c-1.1-5.7,2.3-10.4,7.6-10.5l178.3-4
						c5.2-0.1,10.3,4.3,11.5,9.9l30.1,151.4C2434.2,2753.8,2430.8,2758.5,2425.6,2758.7z M2253.3,2743.9l158.9-5.2l-26.1-131.3
						l-159.2,3.8L2253.3,2743.9z"/>
					<path class="st12" d="M2650.7,2751l-172.4,5.9c-5.2,0.2-10.3-4.2-11.4-9.8l-30.1-151.1c-1.1-5.6,2.2-10.2,7.4-10.3l172.8-3.8
						c5.1-0.1,10,4.3,11.1,9.8l29.7,149.1C2658.9,2746.2,2655.7,2750.8,2650.7,2751z M2483.6,2736.3l154-5l-25.7-129.3l-154.2,3.6
						L2483.6,2736.3z"/>
					<path class="st12" d="M2868.8,2743.5l-167.1,5.7c-5,0.2-10-4.1-11.1-9.6l-29.6-148.7c-1.1-5.5,2.1-10,7.1-10.2l167.5-3.7
						c4.9-0.1,9.7,4.2,10.8,9.6l29.2,146.8C2876.8,2738.8,2873.7,2743.3,2868.8,2743.5z M2706.8,2729l149.3-4.9l-25.3-127.3
						l-149.5,3.5L2706.8,2729z"/>
					<path class="st12" d="M1492.7,3008.1l-202.3,9.8c-6.1,0.3-12-4.4-13.2-10.4l-32.6-164c-1.2-6.1,2.8-11.2,8.8-11.4l202.8-7.4
						c5.9-0.2,11.7,4.5,12.9,10.4l32.2,161.6C1502.4,3002.7,1498.6,3007.8,1492.7,3008.1z M1297,2995.4l180.7-8.5l-27.9-140.2
						l-181,6.8L1297,2995.4z"/>
					<path class="st12" d="M1748.1,2995.8l-195.6,9.4c-5.9,0.3-11.6-4.3-12.8-10.3l-32.1-161.2c-1.2-6,2.6-11,8.5-11.2l196.1-7.1
						c5.7-0.2,11.3,4.4,12.5,10.3l31.6,158.9C1757.5,2990.5,1753.8,2995.5,1748.1,2995.8z M1558.8,2983.1l174.7-8.2l-27.4-137.8
						l-175,6.6L1558.8,2983.1z"/>
					<path class="st12" d="M1995.2,2983.8l-189.2,9.1c-5.7,0.3-11.2-4.3-12.4-10.1l-31.6-158.5c-1.2-5.9,2.5-10.8,8.2-11l189.7-6.9
						c5.5-0.2,11,4.3,12.1,10.1l31.1,156.3C2004.3,2978.7,2000.7,2983.6,1995.2,2983.8z M1812,2971.3l169-7.9l-27-135.6l-169.3,6.4
						L1812,2971.3z"/>
					<path class="st12" d="M2234.3,2972.3l-183.2,8.8c-5.5,0.3-10.9-4.2-12-10l-31.1-156c-1.1-5.8,2.4-10.6,7.9-10.8l183.6-6.7
						c5.4-0.2,10.6,4.3,11.8,9.9l30.6,153.8C2243.1,2967.2,2239.7,2972,2234.3,2972.3z M2056.9,2959.8l163.6-7.7l-26.6-133.4
						l-163.9,6.2L2056.9,2959.8z"/>
					<path class="st12" d="M2466,2961.1l-177.4,8.6c-5.3,0.3-10.6-4.1-11.7-9.8l-30.6-153.5c-1.1-5.7,2.3-10.4,7.6-10.6l177.8-6.5
						c5.2-0.2,10.3,4.2,11.4,9.8l30.1,151.4C2474.4,2956.1,2471.1,2960.9,2466,2961.1z M2294.1,2948.7l158.4-7.4l-26.1-131.3
						l-158.7,6L2294.1,2948.7z"/>
					<path class="st12" d="M2690.4,2950.3l-171.9,8.3c-5.2,0.2-10.2-4.1-11.3-9.7l-30.1-151.1c-1.1-5.6,2.2-10.3,7.3-10.5l172.3-6.3
						c5-0.2,10,4.1,11.1,9.6l29.7,149.1C2698.6,2945.4,2695.4,2950,2690.4,2950.3z M2523.7,2937.9l153.5-7.2l-25.7-129.3l-153.8,5.8
						L2523.7,2937.9z"/>
					<path class="st12" d="M2907.9,2939.8l-166.7,8c-5,0.2-9.9-4-11-9.5l-29.6-148.7c-1.1-5.5,2.1-10.1,7.1-10.3l167.1-6.1
						c4.9-0.2,9.7,4.1,10.8,9.5l29.2,146.8C2915.9,2935,2912.8,2939.5,2907.9,2939.8z M2746.3,2927.5l148.8-7l-25.3-127.3
						l-149.1,5.6L2746.3,2927.5z"/>
					<path class="st12" d="M1535.7,3224.2l-201.7,12.6c-6.1,0.4-11.9-4.2-13.1-10.3l-32.6-164c-1.2-6.1,2.7-11.2,8.8-11.5
						l202.2-10.2c5.9-0.3,11.7,4.3,12.8,10.3l32.2,161.6C1545.4,3218.7,1541.6,3223.8,1535.7,3224.2z M1340.6,3214.2l180.2-11
						l-27.9-140.2l-180.5,9.4L1340.6,3214.2z"/>
					<path class="st12" d="M1790.4,3208.3l-195.1,12.2c-5.9,0.4-11.6-4.2-12.7-10.1l-32.1-161.2c-1.2-6,2.6-11,8.5-11.3l195.5-9.9
						c5.7-0.3,11.3,4.2,12.5,10.1l31.6,158.9C1799.8,3202.9,1796.1,3207.9,1790.4,3208.3z M1601.7,3198.3l174.2-10.6l-27.4-137.8
						l-174.5,9L1601.7,3198.3z"/>
					<path class="st12" d="M2036.8,3192.9l-188.7,11.8c-5.7,0.4-11.2-4.1-12.4-10l-31.6-158.5c-1.2-5.9,2.5-10.8,8.2-11.1l189.2-9.5
						c5.5-0.3,10.9,4.2,12.1,10l31.1,156.3C2045.9,3187.6,2042.3,3192.5,2036.8,3192.9z M1854.1,3182.8l168.5-10.3l-27-135.6
						l-168.8,8.8L1854.1,3182.8z"/>
					<path class="st12" d="M2275.3,3178l-182.7,11.4c-5.5,0.3-10.9-4.1-12-9.8l-31.1-156c-1.1-5.8,2.4-10.7,7.9-10.9l183.1-9.2
						c5.4-0.3,10.6,4.1,11.7,9.8l30.6,153.8C2284,3172.8,2280.6,3177.7,2275.3,3178z M2098.4,3167.9l163.1-10l-26.6-133.4
						l-163.4,8.5L2098.4,3167.9z"/>
					
						<linearGradient id="SVGID_21_" gradientUnits="userSpaceOnUse" x1="1844.3636" y1="1956.9438" x2="1915.9453" y2="2951.1316" gradientTransform="matrix(1 0 0.2218 1 -1122.9679 1.000000e-04)">
						<stop  offset="3.597120e-03" style="stop-color:#E38DDD"/>
						<stop  offset="1" style="stop-color:#9571F6"/>
					</linearGradient>
					<polygon class="st18" points="1313.5,2149.9 1106.2,2148.4 1097.4,2104 1304.8,2106.1 					"/>
					
						<linearGradient id="SVGID_22_" gradientUnits="userSpaceOnUse" x1="2107.8906" y1="1943.943" x2="2177.9375" y2="2916.8132" gradientTransform="matrix(1 0 0.2218 1 -1122.9679 1.000000e-04)">
						<stop  offset="3.597120e-03" style="stop-color:#E38DDD"/>
						<stop  offset="1" style="stop-color:#9571F6"/>
					</linearGradient>
					<polygon class="st19" points="1575.1,2151.8 1374.7,2150.3 1366,2106.7 1566.5,2108.7 					"/>
					
						<linearGradient id="SVGID_23_" gradientUnits="userSpaceOnUse" x1="2362.6797" y1="1931.5154" x2="2431.2537" y2="2883.9292" gradientTransform="matrix(1 0 0.2218 1 -1122.9679 1.000000e-04)">
						<stop  offset="3.597120e-03" style="stop-color:#E38DDD"/>
						<stop  offset="1" style="stop-color:#9571F6"/>
					</linearGradient>
					<polygon class="st20" points="1828,2153.6 1634.3,2152.2 1625.7,2109.3 1819.6,2111.3 					"/>
					
						<linearGradient id="SVGID_24_" gradientUnits="userSpaceOnUse" x1="2609.1587" y1="1919.6268" x2="2676.3179" y2="2852.3904" gradientTransform="matrix(1 0 0.2218 1 -1122.9679 1.000000e-04)">
						<stop  offset="3.597120e-03" style="stop-color:#E38DDD"/>
						<stop  offset="1" style="stop-color:#9571F6"/>
					</linearGradient>
					<polygon class="st21" points="2072.8,2155.4 1885.3,2154.1 1876.9,2111.8 2064.5,2113.7 					"/>
					
						<linearGradient id="SVGID_25_" gradientUnits="userSpaceOnUse" x1="2847.7275" y1="1908.2472" x2="2913.5261" y2="2822.1135" gradientTransform="matrix(1 0 0.2218 1 -1122.9679 1.000000e-04)">
						<stop  offset="3.597120e-03" style="stop-color:#E38DDD"/>
						<stop  offset="1" style="stop-color:#9571F6"/>
					</linearGradient>
					<polygon class="st22" points="2309.8,2157.2 2128.2,2155.8 2120,2114.3 2301.6,2116.1 					"/>
					
						<linearGradient id="SVGID_26_" gradientUnits="userSpaceOnUse" x1="3078.761" y1="1897.3427" x2="3143.2512" y2="2793.0386" gradientTransform="matrix(1 0 0.2218 1 -1122.9679 1.000000e-04)">
						<stop  offset="3.597120e-03" style="stop-color:#E38DDD"/>
						<stop  offset="1" style="stop-color:#9571F6"/>
					</linearGradient>
					<polygon class="st23" points="2539.3,2158.8 2363.4,2157.5 2355.3,2116.7 2531.2,2118.4 					"/>
					
						<linearGradient id="SVGID_27_" gradientUnits="userSpaceOnUse" x1="3302.6108" y1="1886.8867" x2="3365.842" y2="2765.0945" gradientTransform="matrix(1 0 0.2218 1 -1122.9679 1.000000e-04)">
						<stop  offset="3.597120e-03" style="stop-color:#E38DDD"/>
						<stop  offset="1" style="stop-color:#9571F6"/>
					</linearGradient>
					<polygon class="st24" points="2761.7,2160.4 2591.3,2159.2 2583.3,2119 2753.7,2120.7 					"/>
				</g>
				<polygon class="st12" points="2743,2066.7 1085.3,2043.6 1068.6,1959.7 2728,1991.5 				"/>
				<g class="st15">
					<path class="st12" d="M2300.7,2640.9c-371.2-201.7-723-44.9-976.3-303.6c-129.9-132.7-171.5-311.8-179-470.1l-163.3-4.1
						c-29-0.7-48,21.7-42.4,50.2l272.8,1369.9c5.7,28.5,33.4,49.9,61.9,48l1533.9-104.7C2639.9,2884.1,2453.7,2724,2300.7,2640.9z"
						/>
				</g>
			</g>
			
				<linearGradient id="SVGID_28_" gradientUnits="userSpaceOnUse" x1="2829.0203" y1="2101.4316" x2="3021.6863" y2="2101.4316" gradientTransform="matrix(0.9895 0.1446 -0.1446 0.9895 -582.9212 -318.8634)">
				<stop  offset="0" style="stop-color:#AB316D"/>
				<stop  offset="1" style="stop-color:#792D3D"/>
			</linearGradient>
			<path class="st25" d="M2111,2077.6c-4.3-9.8-18.9-16.2-27.9-7.8c-25.8,23.9-30.9,63.6-44.2,95.5c-10.1,24.3-21.3,48.1-32.2,72
				c-23.3-33.1-43.2-68.7-67.2-101.3c-8.3-11.3-28.2-1-21.9,12.3c24.8,52.4,41.4,106.9,74.4,155.4c11.6,17,36.6,11.7,44.9-5.1
				c19.2-38.9,38.7-77.7,55.4-117.7C2105.4,2149.6,2125.6,2110.8,2111,2077.6z"/>
		</g>
		<g>
			<g>
				<linearGradient id="SVGID_29_" gradientUnits="userSpaceOnUse" x1="1676.8936" y1="930.3613" x2="1329.9751" y2="832.1906">
					<stop  offset="0" style="stop-color:#311944"/>
					<stop  offset="1" style="stop-color:#A03976"/>
				</linearGradient>
				<path class="st26" d="M1408.7,905.4c11.1,5.6,25.1,0.5,31.2-11.6c6.1-12,2.1-26.4-9.1-32c-0.6-0.3-1.2-0.5-1.8-0.8
					c2.1-6.7,3.6-13.4,4.7-20.1c0.6,0,1.3,0,1.9-0.1c12.7-1.1,22.7-12.8,22.5-26c-0.3-13.2-10.8-23.1-23.4-21.9
					c-0.7,0.1-1.3,0.2-2,0.3c-1.3-6.6-3.1-13-5.4-19.2c0.6-0.3,1.2-0.7,1.7-1.1c10.8-7.6,14.3-22.6,7.7-33.5
					c-6.6-10.9-20.7-13.6-31.5-6c-0.6,0.4-1.1,0.8-1.6,1.2c-4.3-4.7-9-9.1-14.1-13.1c0.4-0.6,0.7-1.2,1-1.8
					c6.1-12,14.1-25.2,2.9-30.6c-25.9-12.6-37-1.8-43.1,10.2c-0.3,0.6-0.6,1.3-0.9,1.9c-6.2-1.7-12.5-2.9-18.9-3.6
					c0-0.7,0.1-1.3,0.1-2c-0.3-13.2,3.7-20.4-9.1-20.7c-27.7-0.5-37.1,11.5-36.8,24.7c0,0.7,0.1,1.4,0.1,2
					c-6.4,1.8-12.6,4.1-18.7,6.9c-0.3-0.6-0.6-1.2-0.9-1.7c-6.6-10.9-20.7-13.6-31.5-6c-10.8,7.6-14.3,22.6-7.7,33.5
					c0.3,0.6,0.7,1.1,1.1,1.6c-4.8,4.8-9.3,10-13.5,15.6c-0.5-0.3-1.1-0.7-1.7-1c-11.1-5.6-25.1-0.5-31.2,11.6
					c-6.1,12-2.1,26.4,9.1,32c0.6,0.3,1.2,0.5,1.8,0.8c-2.1,6.7-3.6,13.4-4.7,20.1c-0.6,0-1.3,0-1.9,0.1
					c-12.7,1.1-22.7,12.8-22.5,26c0.3,13.2,10.8,23.1,23.4,21.9c0.7-0.1,1.3-0.2,2-0.3c1.3,6.6,3.1,13,5.4,19.2
					c-0.6,0.3-1.2,0.7-1.7,1.1c-10.8,7.6-14.3,22.6-7.7,33.5c6.6,10.9,28.3,16,39.2,8.4c0.6-0.4-6.5-3.2-6-3.6
					c4.3,4.7,9,9.1,14.1,13.1c-0.4,0.6-0.7,1.2-1,1.8c-6.1,12-2.1,26.4,9.1,32c11.1,5.6,25.1,0.5,31.2-11.6c0.3-0.6,0.6-1.3,0.9-1.9
					c6.2,1.7,12.5,2.9,18.9,3.6c0,0.7-0.1,1.3-0.1,2c0.3,13.2,10.8,23.1,23.4,21.9c12.7-1.1,22.7-12.8,22.5-26c0-0.7-0.1-1.4-0.1-2
					c6.4-1.8,12.6-4.1,18.7-6.9c0.3,0.6,0.6,1.2,0.9,1.7c6.6,10.9,20.7,13.6,31.5,6c10.8-7.6,14.3-22.6,7.7-33.5
					c-0.3-0.6-0.7-1.1-1.1-1.6c4.8-4.8,9.3-10,13.5-15.6C1407.6,904.7,1408.2,905.1,1408.7,905.4z M1270.2,907.1
					c-40.3-20.5-55.1-72.5-32.9-116.2c22.2-43.7,72.9-62.5,113.2-42c40.3,20.5,55.1,72.5,32.9,116.2
					C1361.3,908.8,1310.6,927.6,1270.2,907.1z"/>
				<linearGradient id="SVGID_30_" gradientUnits="userSpaceOnUse" x1="1675.984" y1="933.5742" x2="1329.0648" y2="835.4033">
					<stop  offset="0" style="stop-color:#311944"/>
					<stop  offset="1" style="stop-color:#A03976"/>
				</linearGradient>
				<path class="st27" d="M1435.7,840.9c12.7-1.1,22.7-12.8,22.5-26c-0.3-13.2-10.8-23.1-23.4-21.9c-0.7,0.1-1.3,0.2-2,0.3
					c-1.3-6.6-3.1-13-5.4-19.2c0.6-0.3,1.2-0.7,1.7-1.1c10.8-7.6,24.3-26,16.6-36.1c-14.5-19.3-29.5-10.9-40.4-3.3
					c-0.6,0.4-1.1,0.8-1.6,1.2c-4.3-4.7-9-9.1-14.1-13.1c0.4-0.6,0.7-1.2,1-1.8c3.3-6.5,3.6-13.8,1.4-19.9
					c-10.5,18.4-20.8,36.9-31,55.6c32.2,23.6,42.4,70.1,22.3,109.7c-17,33.6-50.9,52.4-84,50.1c-1.5,3.8-2.9,7.7-4.5,11.5
					c-4.3,10.3-9.2,20.4-14,30.4c3.1,0.6,6.1,1,9.2,1.4c0,0.7-0.1,1.3-0.1,2c0.3,13.2,8.3,24.5,31.3,23.3
					c12.7-0.7,14.9-14.1,14.6-27.4c0-0.7-0.1-1.4-0.1-2c6.4-1.8,12.6-4.1,18.7-6.9c0.3,0.6,0.6,1.2,0.9,1.7
					c6.6,10.9,29.4,15.5,40.2,7.9c10.8-7.6,5.6-24.5-0.9-35.4c-0.3-0.6-0.7-1.1-1.1-1.6c4.8-4.8,9.3-10,13.5-15.6
					c0.5,0.3,1.1,0.7,1.7,1c11.1,5.6,25.1,0.5,31.2-11.6c6.1-12,2.1-26.4-9.1-32c-0.6-0.3-1.2-0.5-1.8-0.8
					c2.1-6.7,3.6-13.4,4.7-20.1C1434.4,840.9,1435,840.9,1435.7,840.9z"/>
				<linearGradient id="SVGID_31_" gradientUnits="userSpaceOnUse" x1="1320.8831" y1="711.1276" x2="1326.3081" y2="1149.2089">
					<stop  offset="0" style="stop-color:#FF9085"/>
					<stop  offset="1" style="stop-color:#FB6FBB"/>
				</linearGradient>
				<path class="st28" d="M1420.7,906.7c11.1,5.6,25.1,0.5,31.2-11.6c6.1-12,2.1-26.4-9.1-32c-0.6-0.3-1.2-0.5-1.8-0.8
					c2.1-6.7,3.6-13.4,4.7-20.1c0.6,0,1.3,0,1.9-0.1c12.7-1.1,22.7-12.8,22.5-26c-0.3-13.2-10.8-23.1-23.4-21.9
					c-0.7,0.1-1.3,0.2-2,0.3c-1.3-6.6-3.1-13-5.4-19.2c0.6-0.3,1.2-0.7,1.7-1.1c10.8-7.6,14.3-22.6,7.7-33.5
					c-6.6-10.9-20.7-13.6-31.5-6c-0.6,0.4-1.1,0.8-1.6,1.2c-4.3-4.7-9-9.1-14.1-13.1c0.4-0.6,0.7-1.2,1-1.8c6.1-12,2.1-26.4-9.1-32
					c-11.1-5.6-25.1-0.5-31.2,11.6c-0.3,0.6-0.6,1.3-0.9,1.9c-6.2-1.7-12.5-2.9-18.9-3.6c0-0.7,0.1-1.3,0.1-2
					c-0.3-13.2-10.8-23.1-23.4-21.9c-12.7,1.1-22.7,12.8-22.5,26c0,0.7,0.1,1.4,0.1,2c-6.4,1.8-12.6,4.1-18.7,6.9
					c-0.3-0.6-0.6-1.2-0.9-1.7c-6.6-10.9-20.7-13.6-31.5-6c-10.8,7.6-14.3,22.6-7.7,33.5c0.3,0.6,0.7,1.1,1.1,1.6
					c-4.8,4.8-9.3,10-13.5,15.6c-0.5-0.3-1.1-0.7-1.7-1c-11.1-5.6-25.1-0.5-31.2,11.6c-6.1,12-2.1,26.4,9.1,32
					c0.6,0.3,1.2,0.5,1.8,0.8c-2.1,6.7-3.6,13.4-4.7,20.1c-0.6,0-1.3,0-1.9,0.1c-12.7,1.1-22.7,12.8-22.5,26
					c0.3,13.2,10.8,23.1,23.4,21.9c0.7-0.1,1.3-0.2,2-0.3c1.3,6.6,3.1,13,5.4,19.2c-0.6,0.3-1.2,0.7-1.7,1.1
					c-10.8,7.6-14.3,22.6-7.7,33.5c6.6,10.9,20.7,13.6,31.5,6c0.6-0.4,1.1-0.8,1.6-1.2c4.3,4.7,9,9.1,14.1,13.1
					c-0.4,0.6-0.7,1.2-1,1.8c-6.1,12-2.1,26.4,9.1,32c11.1,5.6,25.1,0.5,31.2-11.6c0.3-0.6,0.6-1.3,0.9-1.9
					c6.2,1.7,12.5,2.9,18.9,3.6c0,0.7-0.1,1.3-0.1,2c0.3,13.2,10.8,23.1,23.4,21.9c12.7-1.1,22.7-12.8,22.5-26c0-0.7-0.1-1.4-0.1-2
					c6.4-1.8,12.6-4.1,18.7-6.9c0.3,0.6,0.6,1.2,0.9,1.7c6.6,10.9,20.7,13.6,31.5,6c10.8-7.6,14.3-22.6,7.7-33.5
					c-0.3-0.6-0.7-1.1-1.1-1.6c4.8-4.8,9.3-10,13.5-15.6C1419.6,906.1,1420.1,906.4,1420.7,906.7z M1282.2,908.5
					c-40.3-20.5-55.1-72.5-32.9-116.2c22.2-43.7,72.9-62.5,113.2-42c40.3,20.5,55.1,72.5,32.9,116.2
					C1373.2,910.2,1322.5,929,1282.2,908.5z"/>
			</g>
			<g>
				<linearGradient id="SVGID_32_" gradientUnits="userSpaceOnUse" x1="1564.7947" y1="1286.4858" x2="885.2209" y2="1094.1807">
					<stop  offset="0" style="stop-color:#311944"/>
					<stop  offset="1" style="stop-color:#A03976"/>
				</linearGradient>
				<path class="st29" d="M1039.5,1237.5c21.8,11,49.1,0.9,61.1-22.7c12-23.6,4-51.6-17.7-62.7c-1.1-0.6-2.3-1.1-3.4-1.5
					c4-13,7.1-26.2,9.1-39.3c1.2,0,2.5,0,3.8-0.1c24.8-2.2,44.5-25,44-51c-0.5-25.9-21.1-45.2-45.9-42.9c-1.3,0.1-2.6,0.3-3.8,0.5
					c-2.6-12.9-6.1-25.4-10.6-37.6c1.1-0.7,2.3-1.4,3.4-2.1c21.2-14.9,28-44.3,15.2-65.6c-12.9-21.4-40.5-26.6-61.8-11.7
					c-1.1,0.8-2.1,1.6-3.1,2.4c-8.4-9.3-17.6-17.9-27.5-25.7c0.7-1.1,1.4-2.3,2-3.5c12-23.6,27.6-49.3,5.7-60
					c-50.7-24.8-72.5-3.6-84.5,20c-0.6,1.2-1.2,2.5-1.7,3.7c-12.2-3.4-24.6-5.8-37-7.1c0.1-1.3,0.1-2.6,0.1-4
					c-0.5-25.9,7.2-40-17.7-40.5c-54.4-1.1-72.7,22.5-72.2,48.5c0,1.4,0.1,2.7,0.3,4c-12.5,3.6-24.7,8.1-36.6,13.6
					c-0.6-1.2-1.2-2.3-1.8-3.4c-12.9-21.4-40.5-26.6-61.8-11.7c-21.2,14.9-28,44.3-15.2,65.6c0.7,1.1,1.4,2.1,2.1,3.1
					c-9.4,9.4-18.2,19.6-26.4,30.6c-1.1-0.7-2.1-1.3-3.2-1.9c-21.8-11-49.1-0.9-61.1,22.7c-12,23.6-4,51.6,17.7,62.7
					c1.1,0.6,2.3,1.1,3.4,1.5c-4,13-7.1,26.2-9.1,39.3c-1.2,0-2.5,0-3.8,0.1c-24.8,2.2-44.5,25-44,51c0.5,25.9,21.1,45.2,45.9,42.9
					c1.3-0.1,2.6-0.3,3.8-0.5c2.6,12.9,6.1,25.4,10.6,37.6c-1.1,0.7-2.3,1.4-3.4,2.1c-21.2,14.9-28,44.3-15.2,65.6
					c12.9,21.4,55.5,31.3,76.7,16.4c1.1-0.8-12.8-6.3-11.8-7.1c8.4,9.3,17.6,17.9,27.5,25.7c-0.7,1.1-1.4,2.3-2,3.5
					c-12,23.6-4,51.6,17.7,62.7c21.8,11,49.1,0.9,61.1-22.7c0.6-1.2,1.2-2.5,1.7-3.7c12.2,3.4,24.6,5.8,37,7.1
					c-0.1,1.3-0.1,2.6-0.1,4c0.5,25.9,21.1,45.2,45.9,42.9c24.8-2.2,44.5-25,44-51c0-1.4-0.1-2.7-0.3-4c12.5-3.6,24.7-8.1,36.6-13.6
					c0.6,1.2,1.2,2.3,1.8,3.4c12.9,21.4,40.5,26.6,61.8,11.7c21.2-14.9,28-44.3,15.2-65.6c-0.7-1.1-1.4-2.1-2.1-3.1
					c9.4-9.4,18.2-19.6,26.4-30.6C1037.3,1236.3,1038.4,1236.9,1039.5,1237.5z M768.2,1241c-79-40.1-107.9-142-64.4-227.6
					c43.4-85.6,142.7-122.4,221.7-82.3c79,40.1,107.9,142,64.4,227.6C946.5,1244.2,847.2,1281.1,768.2,1241z"/>
				<linearGradient id="SVGID_33_" gradientUnits="userSpaceOnUse" x1="1563.0126" y1="1292.7794" x2="883.4378" y2="1100.474">
					<stop  offset="0" style="stop-color:#311944"/>
					<stop  offset="1" style="stop-color:#A03976"/>
				</linearGradient>
				<path class="st30" d="M1092.3,1111.2c24.8-2.2,44.5-25,44-51c-0.5-25.9-21.1-45.2-45.9-42.9c-1.3,0.1-2.6,0.3-3.8,0.5
					c-2.6-12.9-6.1-25.4-10.6-37.6c1.1-0.7,2.3-1.4,3.4-2.1c21.2-14.9,47.5-50.8,32.5-70.8c-28.4-37.8-57.9-21.4-79.1-6.6
					c-1.1,0.8-2.1,1.6-3.1,2.4c-8.4-9.3-17.6-17.9-27.6-25.7c0.7-1.1,1.4-2.3,2-3.5c6.5-12.8,7.1-27,2.8-39
					c-20.5,36.1-40.8,72.4-60.6,108.8c63,46.2,83.1,137.2,43.7,214.8c-33.4,65.8-99.8,102.7-164.6,98.1c-2.9,7.5-5.7,15-8.8,22.5
					c-8.4,20.2-17.9,39.9-27.5,59.6c6,1.1,12,2,18.1,2.7c-0.1,1.3-0.1,2.6-0.1,4c0.5,25.9,16.3,48,61.3,45.6
					c24.9-1.3,29.2-27.7,28.7-53.6c0-1.4-0.1-2.7-0.3-4c12.5-3.6,24.7-8.1,36.6-13.6c0.6,1.2,1.2,2.3,1.8,3.4
					c12.9,21.4,57.5,30.4,78.7,15.5c21.2-14.9,11.1-48.1-1.8-69.4c-0.7-1.1-1.4-2.1-2.1-3.1c9.4-9.4,18.2-19.6,26.4-30.6
					c1.1,0.7,2.1,1.3,3.2,1.9c21.8,11.1,49.1,0.9,61.1-22.7c12-23.6,4-51.6-17.7-62.7c-1.1-0.6-2.3-1.1-3.4-1.5
					c4-13,7.1-26.2,9.1-39.3C1089.8,1111.3,1091,1111.3,1092.3,1111.2z"/>
				<linearGradient id="SVGID_34_" gradientUnits="userSpaceOnUse" x1="867.4106" y1="857.0317" x2="878.0377" y2="1715.1833">
					<stop  offset="0" style="stop-color:#FF9085"/>
					<stop  offset="1" style="stop-color:#FB6FBB"/>
				</linearGradient>
				<path class="st31" d="M1062.9,1240.2c21.8,11,49.1,0.9,61.1-22.7c12-23.6,4-51.6-17.7-62.7c-1.1-0.6-2.3-1.1-3.4-1.5
					c4-13,7.1-26.2,9.1-39.3c1.2,0,2.5,0,3.8-0.1c24.8-2.2,44.5-25,44-51c-0.5-25.9-21.1-45.2-45.9-42.9c-1.3,0.1-2.6,0.3-3.8,0.5
					c-2.6-12.9-6.1-25.4-10.6-37.6c1.1-0.7,2.3-1.4,3.4-2.1c21.2-14.9,28-44.3,15.2-65.6c-12.9-21.4-40.5-26.6-61.8-11.7
					c-1.1,0.8-2.1,1.6-3.1,2.4c-8.4-9.3-17.6-17.9-27.5-25.7c0.7-1.1,1.4-2.3,2-3.5c12-23.6,4-51.6-17.7-62.7
					c-21.8-11.1-49.1-0.9-61.1,22.7c-0.6,1.2-1.2,2.5-1.7,3.7c-12.2-3.4-24.6-5.8-37-7.1c0.1-1.3,0.1-2.6,0.1-4
					c-0.5-25.9-21.1-45.2-45.9-42.9c-24.8,2.2-44.5,25-44,51c0,1.4,0.1,2.7,0.3,4c-12.5,3.6-24.7,8.1-36.6,13.6
					c-0.6-1.2-1.2-2.3-1.8-3.4c-12.9-21.4-40.5-26.6-61.8-11.7c-21.2,14.9-28,44.3-15.2,65.6c0.7,1.1,1.4,2.1,2.1,3.1
					c-9.4,9.4-18.2,19.6-26.4,30.6c-1.1-0.7-2.1-1.3-3.2-1.9c-21.8-11.1-49.1-0.9-61.1,22.7c-12,23.6-4,51.6,17.7,62.7
					c1.1,0.6,2.3,1.1,3.4,1.5c-4,13-7.1,26.2-9.1,39.3c-1.2,0-2.5,0-3.8,0.1c-24.8,2.2-44.5,25-44,51c0.5,25.9,21.1,45.2,45.9,42.9
					c1.3-0.1,2.6-0.3,3.8-0.5c2.6,12.9,6.1,25.4,10.6,37.6c-1.1,0.7-2.3,1.4-3.4,2.1c-21.2,14.9-28,44.3-15.2,65.6
					c12.9,21.4,40.5,26.6,61.8,11.7c1.1-0.8,2.1-1.6,3.1-2.4c8.4,9.3,17.6,17.9,27.5,25.7c-0.7,1.1-1.4,2.3-2,3.5
					c-12,23.6-4,51.6,17.7,62.7c21.8,11,49.1,0.9,61.1-22.7c0.6-1.2,1.2-2.5,1.7-3.7c12.2,3.4,24.6,5.8,37,7.1
					c-0.1,1.3-0.1,2.6-0.1,4c0.5,25.9,21.1,45.2,45.9,42.9c24.8-2.2,44.5-25,44-51c0-1.4-0.1-2.7-0.3-4c12.5-3.6,24.7-8.1,36.6-13.6
					c0.6,1.2,1.2,2.3,1.8,3.4c12.9,21.4,40.5,26.6,61.8,11.7c21.2-14.9,28-44.3,15.2-65.6c-0.7-1.1-1.4-2.1-2.1-3.1
					c9.4-9.4,18.2-19.6,26.4-30.6C1060.7,1239,1061.8,1239.6,1062.9,1240.2z M791.6,1243.6c-79-40.1-107.9-142-64.4-227.6
					c43.4-85.6,142.7-122.4,221.7-82.3s107.9,142,64.4,227.6C969.9,1246.9,870.6,1283.7,791.6,1243.6z"/>
			</g>
		</g>
	</g>
</g>
</svg>
