<?xml version="1.0" encoding="utf-8"?>
<!-- Generator: Adobe Illustrator 24.1.1, SVG Export Plug-In . SVG Version: 6.00 Build 0)  -->
<svg version="1.1" xmlns="http://www.w3.org/2000/svg" xmlns:xlink="http://www.w3.org/1999/xlink" x="0px" y="0px"
	 viewBox="0 0 3436.6 2407.6" style="enable-background:new 0 0 3436.6 2407.6;" xml:space="preserve">
<style type="text/css">
	.st0{fill:#FFFFFF;}
	.st1{fill:url(#SVGID_1_);}
	.st2{fill:#91B3FA;}
	.st3{fill:#BDD0FB;}
	.st4{opacity:0.3;}
	.st5{fill:url(#SVGID_2_);}
	.st6{opacity:0.78;}
	.st7{fill:url(#SVGID_3_);}
	.st8{fill:url(#SVGID_4_);}
	.st9{fill:url(#SVGID_5_);}
	.st10{fill:url(#SVGID_6_);}
	.st11{fill:url(#SVGID_7_);}
	.st12{fill:url(#SVGID_8_);}
	.st13{opacity:0.72;fill:#FFFFFF;}
	.st14{fill:url(#SVGID_9_);}
	.st15{fill:url(#SVGID_10_);}
	.st16{fill:#7D97F4;}
	.st17{fill:url(#SVGID_11_);}
	.st18{fill:url(#SVGID_12_);}
	.st19{fill:url(#SVGID_13_);}
	.st20{fill:url(#SVGID_14_);}
</style>
<g id="Background">
	<g>
		<g>
			<rect x="0" class="st0" width="3436.6" height="2486.8"/>
		</g>
	</g>
</g>
<g id="Illustration">
	<g>
		<linearGradient id="SVGID_1_" gradientUnits="userSpaceOnUse" x1="2975.7158" y1="2829.3511" x2="1231.7872" y2="663.5009">
			<stop  offset="0" style="stop-color:#DAE3FE"/>
			<stop  offset="1" style="stop-color:#E9EFFD"/>
		</linearGradient>
		<path class="st1" d="M2552.3,1934.7c-43.1,39.9-84,65.7-116.2,86c-379.1,239.2-827.7,169.5-923.1,152.4
			c-140.8-25.1-412.9-73.7-609.7-277.2C605.7,1588.2,652,1103.3,882.9,783.2c42.2-58.6,265.3-383.5,718.8-435.6
			c274.4-31.5,594.3,32.1,825.9,202.7C2913.9,908.5,2879.3,1632.1,2552.3,1934.7z"/>
		<g>
			<path class="st2" d="M2794.7,1537.4c3.1-4.7-4.7-9.8-11.4-7.4c-67.3,24.2-235.7,103.2-262.9,294.9
				c-34.1,240.5-133.3,310.9-239.3,344.7c0,0,130.3,0.2,235.3-70.3C2774.4,1926.1,2739.1,1620.7,2794.7,1537.4z"/>
			<path class="st3" d="M2728.6,1601.4c-15.4,24.4-30.1,49.1-43.4,74.2c-13.5,25-25.9,50.3-37.1,76c-11,25.7-21.3,51.5-30,77.7
				c-8.8,26.1-16,52.6-23.1,79.2c-7.3,26.5-14.4,53.3-25.5,79.4c-11.1,26.1-27,51.5-49.4,73.8c-5.6,5.6-11.4,11.1-17.6,16.2
				c-6.1,5.3-12.5,10.3-19.1,15.3c-13.2,9.9-27.5,19.2-42.7,27.7c-30.6,16.9-65.3,30.4-101.8,40.3c-3.9,1-8.4-0.3-10.2-3
				c-1.8-2.7-0.2-5.7,3.5-6.8l0,0c8.8-2.6,17.5-5.3,26-8.2c4.3-1.4,8.5-3,12.7-4.5c4.1-1.6,8.3-3.1,12.4-4.8
				c16.3-6.6,31.8-14,46.4-22.2c29.2-16.3,54.8-35.8,76.3-57.1c10.6-10.7,19.9-22,27.9-33.9c8-11.8,14.6-24.2,20.1-36.8
				c11.1-25.3,18.5-51.7,26-78.2c7.6-26.5,15.5-53,25-79.2c4.7-13.1,9.8-26.1,15.2-39.1c2.6-6.5,5.5-12.9,8.3-19.4
				c2.9-6.4,5.9-12.8,8.9-19.2c12.2-25.5,25.6-50.7,40.1-75.6c14.7-24.8,30.4-49.2,47.5-73.1c0.5-0.7,1.7-0.9,2.7-0.5
				C2728.6,1599.9,2729,1600.8,2728.6,1601.4z"/>
		</g>
		<g>
			<g>
				<g class="st4">
					<path class="st2" d="M1396.1,563.3c-2.8,3.3-8.1,4.1-11.9,1.6c-7.4-4.7-15-9.2-22.9-13.4c-4-2.1-5.3-6.6-2.9-10.1
						c0,0,0.1-0.1,0.1-0.1c2.4-3.5,7.6-4.6,11.7-2.5c8.2,4.4,16.3,9.1,24.1,14.1c3.5,2.3,4.5,6.5,2.3,9.8
						C1396.4,562.8,1396.3,563.1,1396.1,563.3z M1321.7,533.5c-8.4-3.2-17-6.1-25.6-8.6c-4.4-1.3-6.8-5.5-5.3-9.4
						c1.5-3.9,6.3-6,10.7-4.7c9.1,2.7,18.2,5.7,27,9.1c4.3,1.6,6.3,6,4.4,9.8c-0.1,0.3-0.3,0.5-0.5,0.8
						C1330.3,533.6,1325.7,535,1321.7,533.5z M1252.9,515c-9-1.5-18.1-2.6-27.2-3.4c-4.7-0.4-8.1-4.1-7.6-8.1
						c0.5-4.1,4.6-7.1,9.3-6.7c9.6,0.8,19.2,2,28.6,3.6c4.6,0.8,7.6,4.6,6.8,8.7c-0.2,0.9-0.5,1.7-1,2.4
						C1260,514.1,1256.5,515.6,1252.9,515z M1181.1,510.5c-9.1,0.3-18.3,1-27.4,2c-4.6,0.5-8.9-2.4-9.5-6.5
						c-0.6-4.1,2.7-7.8,7.3-8.3c9.5-1.1,19.2-1.8,28.8-2.1c4.7-0.2,8.6,3,8.8,7.1c0.1,1.5-0.4,2.9-1.1,4
						C1186.6,509,1184.1,510.4,1181.1,510.5z M1109.9,520.2c-8.8,2.1-17.6,4.6-26.2,7.3c-4.4,1.4-9.3-0.6-10.9-4.4
						c-1.6-3.9,0.7-8.2,5.1-9.6c9-2.9,18.3-5.5,27.6-7.7c4.5-1.1,9.2,1.3,10.4,5.2c0.6,2,0.3,4-0.8,5.7
						C1113.9,518.4,1112.2,519.7,1109.9,520.2z M1043,543.5c-8.1,3.8-16,7.9-23.7,12.2c-3.9,2.2-9.2,1.2-11.7-2.2
						c-2.5-3.5-1.4-8.1,2.5-10.3c8.1-4.6,16.5-8.9,24.9-12.9c4.1-1.9,9.3-0.6,11.5,3.1c1.4,2.4,1.3,5.1-0.2,7.2
						C1045.6,541.9,1044.4,542.8,1043,543.5z M864.6,771.8c-4.7-0.4-8.1-4.1-7.6-8.2c1-8.4,2.3-16.9,4.1-25.2c0.9-4,5.3-6.7,9.9-6
						c4.6,0.8,7.6,4.7,6.8,8.7c-1.7,7.9-3,15.9-3.9,23.9c-0.1,1.1-0.5,2.1-1.1,3C871.2,770.5,868.1,772.1,864.6,771.8z M983.6,579.3
						c-6.9,5.2-13.6,10.8-20,16.6c-3.3,3-8.6,3-12,0.1c-3.4-2.9-3.4-7.6-0.2-10.5c6.7-6,13.8-11.9,21-17.4c3.5-2.7,8.9-2.4,12,0.8
						c2.4,2.5,2.7,5.9,0.9,8.6C984.9,578.1,984.3,578.7,983.6,579.3z M878.4,707.9c-4.4-1.3-6.8-5.5-5.3-9.4c3.1-8,6.6-16,10.4-23.7
						c1.9-3.8,6.9-5.5,11.2-3.9c4.3,1.6,6.3,6,4.4,9.8c-3.6,7.4-7,15-9.9,22.5c-0.2,0.5-0.4,0.9-0.7,1.4
						C886.4,707.6,882.3,709.1,878.4,707.9z M934.8,625.8c-5.4,6.5-10.5,13.2-15.3,20.1c-2.4,3.5-7.7,4.6-11.7,2.5
						c-3.9-2.1-5.2-6.6-2.9-10.1c0,0,0.1-0.1,0.1-0.1c5-7.2,10.4-14.3,16.1-21.1c2.8-3.3,8.1-4,11.9-1.6c3.5,2.3,4.5,6.5,2.3,9.8
						C935.2,625.3,935,625.5,934.8,625.8z"/>
					<path class="st2" d="M872.3,820.5c0.8-1.3,1.3-2.8,1.1-4.3c-0.4-3.8-0.6-7.7-0.8-11.6c-0.2-4.1-4.1-7.3-8.8-7.1
						c-4.7,0.2-8.3,3.6-8.1,7.8c0.2,4.1,0.5,8.2,0.8,12.2c0.4,4.1,4.5,7.2,9.1,6.8C868.5,823.9,871,822.5,872.3,820.5z"/>
				</g>
				<g class="st4">
					<path class="st2" d="M992.4,1021.8c2.1-3.1,1.3-7.2-2-9.5c-3.4-2.4-6.8-5-10.1-7.5c-3.5-2.7-8.9-2.5-12,0.6
						c-3.1,3.1-2.8,7.8,0.7,10.5c3.5,2.7,7,5.4,10.6,7.9c3.6,2.6,9,2.1,11.9-1.1C991.9,1022.5,992.1,1022.1,992.4,1021.8z"/>
					<path class="st2" d="M1478.3,955.6c-2.5,3.5-7.8,4.4-11.7,2.2c-3.9-2.2-5-6.9-2.5-10.3c4.9-6.6,9.5-13.4,13.7-20.5
						c2.2-3.6,7.4-5,11.5-3s5.7,6.5,3.5,10.1c-1.9,3-3.8,6.1-5.7,9C1484.2,947.3,1481.3,951.5,1478.3,955.6z M1500.8,901.4
						c-4.4-1.4-6.6-5.7-5-9.6c3.1-7.4,6-15,8.4-22.6c1.2-4,5.9-6.3,10.5-5.2c4.5,1.1,7.1,5.2,5.9,9.2c-2.5,8-5.5,16-8.8,23.8
						c-0.2,0.4-0.4,0.8-0.6,1.1C1509.1,901.3,1504.8,902.7,1500.8,901.4z M1450.5,988.1c-6.2,6.3-12.7,12.4-19.5,18.2
						c-3.3,2.9-8.7,2.8-12-0.1c-3.3-2.9-3.2-7.7,0.1-10.5c6.4-5.5,12.7-11.3,18.5-17.3c3.1-3.1,8.4-3.5,12-0.8
						c3.1,2.4,3.8,6.3,1.8,9.4C1451.2,987.4,1450.9,987.7,1450.5,988.1z M1520.4,839.8c-4.6-0.6-7.9-4.3-7.3-8.4
						c1.2-7.8,2.1-15.8,2.5-23.7c0.2-4.1,4.2-7.3,8.9-7.1c4.7,0.2,8.3,3.7,8,7.8c-0.5,8.3-1.4,16.7-2.6,24.9c-0.2,1-0.5,1.9-1.1,2.7
						C1527.2,838.7,1523.9,840.2,1520.4,839.8z M1395.9,1032.7c-7.6,4.9-15.5,9.6-23.6,14c-4,2.2-9.2,1.1-11.7-2.4
						c-2.5-3.5-1.2-8.1,2.8-10.3c7.7-4.1,15.2-8.6,22.4-13.3c3.8-2.4,9.1-1.8,11.9,1.6c2.1,2.5,2.2,5.7,0.5,8.2
						C1397.6,1031.3,1396.8,1032,1395.9,1032.7z M1331.4,1065.6c-8.6,3.4-17.6,6.4-26.5,9.2c-4.4,1.3-9.3-0.7-10.8-4.6
						c-1.5-3.9,0.8-8.1,5.2-9.5c8.5-2.6,16.9-5.5,25.2-8.7c4.3-1.7,9.3,0,11.2,3.8c1.1,2.3,0.9,4.8-0.4,6.8
						C1334.5,1063.8,1333.1,1064.9,1331.4,1065.6z M1260.4,1085.4c-9.3,1.6-18.7,2.9-28.1,3.9c-4.7,0.5-8.9-2.5-9.4-6.6
						c-0.5-4.1,2.8-7.8,7.5-8.3c8.9-0.9,17.9-2.1,26.7-3.7c4.6-0.8,9.1,1.8,10,5.9c0.4,1.9,0,3.7-1,5.2
						C1264.9,1083.6,1262.8,1085,1260.4,1085.4z M1186.1,1091.1c-9.5-0.2-19-0.7-28.4-1.6c-4.7-0.4-8-4.1-7.5-8.2
						c0.5-4.1,4.7-7.1,9.3-6.6c8.9,0.8,18,1.4,27,1.6c4.7,0.1,8.4,3.5,8.3,7.6c0,1.3-0.4,2.5-1.1,3.6
						C1192.1,1089.7,1189.3,1091.2,1186.1,1091.1z M1112.1,1082.3c-9.2-2-18.3-4.4-27.3-7.1c-4.4-1.3-6.8-5.6-5.3-9.5
						c1.5-3.9,6.3-6,10.8-4.6c8.5,2.6,17.2,4.8,25.9,6.7c4.5,1,7.3,5.1,6.2,9c-0.2,0.7-0.5,1.3-0.9,1.9
						C1119.7,1081.6,1115.9,1083.1,1112.1,1082.3z M1042.2,1059.5c-6.2-2.7-12.4-5.7-18.4-8.7c-2.2-1.1-4.3-2.2-6.5-3.4
						c-4-2.1-5.4-6.7-2.8-10.2c2.4-3.5,7.7-4.6,11.7-2.5c2,1.1,4.1,2.2,6.1,3.2c5.7,2.9,11.6,5.7,17.5,8.3c4.2,1.8,5.9,6.3,3.8,10
						c-0.1,0.1-0.2,0.3-0.2,0.4C1051.1,1059.9,1046.3,1061.3,1042.2,1059.5z"/>
					<path class="st2" d="M1530.6,772.1c0.8-1.3,1.3-2.8,1.1-4.4c-0.4-4-0.9-8.1-1.5-12.2c-0.6-4.1-4.8-7-9.5-6.4
						c-4.6,0.5-7.9,4.3-7.3,8.3c0.6,3.8,1,7.7,1.4,11.5c0.4,4.1,4.5,7.1,9.2,6.8C1526.9,775.5,1529.3,774.1,1530.6,772.1z"/>
				</g>
				<g>
					<path class="st2" d="M1419.4,689.7c-0.6-1.4-2.1-2.3-3.8-2.3l-48.2,1.2c-12.5-16.5-28.2-31.3-46.5-43.7l4.5-42.2
						c0.2-1.5-0.8-2.9-2.3-3.5l-52.7-21c-1.5-0.6-3.4-0.3-4.5,0.8l-33.1,30.8c-22.7-3.9-45.7-4.5-68.1-1.9l-30.8-32.7
						c-1.1-1.1-2.9-1.6-4.4-1l-54.2,17.9c-1.6,0.5-2.6,1.9-2.6,3.4l1.4,42.4c-18.7,11-35.6,24.8-49.7,40.9l-48-3.9
						c-1.7-0.1-3.3,0.7-4,2l-23.9,46.4c-0.7,1.4-0.3,2.9,0.9,4l35,29.1c-4.5,20-5.1,40.2-2.2,59.8L945,843.4
						c-1.3,0.9-1.8,2.5-1.2,3.9l20.4,47.6c0.6,1.4,2.1,2.3,3.8,2.3l48.2-1.2c12.5,16.5,28.2,31.3,46.5,43.7l-4.5,42.2
						c-0.2,1.5,0.8,2.9,2.3,3.5l52.7,21c1.5,0.6,3.4,0.3,4.5-0.8l33.1-30.8c22.7,3.9,45.7,4.5,68.1,1.9l30.8,32.7
						c1.1,1.1,2.9,1.6,4.4,1l54.2-17.9c1.6-0.5,2.6-1.9,2.6-3.4l-1.4-42.4c18.7-11,35.6-24.8,49.7-40.9l48,3.9c1.7,0.1,3.3-0.7,4-2
						l23.9-46.4c0.7-1.4,0.3-2.9-0.9-4l-35-29.1c4.5-20,5.1-40.2,2.2-59.8l37.1-27.1c1.3-0.9,1.8-2.5,1.2-3.9L1419.4,689.7z"/>
					<g>
						<path class="st3" d="M1237.3,824.2c-20,22.1-56.6,25.7-81.7,8.2c-12.2-8.5-19.8-20.7-21.6-34.2c-1.8-13.6,2.6-26.9,12.3-37.6
							c20-22.1,56.6-25.7,81.7-8.2c22.8,16,28.3,44.1,14.1,65.7C1240.8,820.1,1239.1,822.2,1237.3,824.2z M1147.5,796.7
							c1.3,10.4,7.2,19.7,16.5,26.3c19.2,13.5,47.4,10.7,62.7-6.3c15.3-16.9,12.1-41.6-7.1-55.1c-19.2-13.5-47.4-10.7-62.7,6.3
							c-1.4,1.5-2.6,3.1-3.7,4.8C1148.4,779.9,1146.4,788.3,1147.5,796.7z"/>
					</g>
					<path class="st3" d="M1314.2,855.9c2.4-3.7,4.7-7.5,6.7-11.5l0,0c0.6-1.2,1.3-2.5,1.9-3.8c2.9-6.2,5.3-12.6,7.1-19.2
						c0-0.1,0-0.2,0.1-0.3c0.1-0.3,0.1-0.5,0.2-0.8c0.1-0.5,0.3-1,0.4-1.5c0.3-1.3-0.4-2.6-1.6-3.2c-0.3-0.2-0.6-0.3-1-0.3
						c-1.8-0.3-3.6,0.7-4,2.3c-2,8.3-5.1,16.4-9.1,24.2c-19.9,38.7-60.4,63.6-105,69.2c-24.8,3.1-50.8,0.3-75.3-9.4
						c-4.3-1.7-8.5-3.6-12.5-5.6c-27-13.8-47.7-35.2-58.8-61.2c-12.8-29.9-11.6-62.5,3.4-91.6c31-60.2,111.9-87,180.3-59.7
						c4.2,1.7,8.3,3.5,12.3,5.6c17.2,8.8,32.1,20.8,43.5,35.3c0.3,0.4,0.7,0.7,1.1,0.9c1.1,0.6,2.5,0.6,3.6-0.1
						c1.5-0.9,1.9-2.8,0.9-4.2c-11.9-15.1-27.5-27.8-45.6-37c-4.2-2.1-8.5-4.1-12.9-5.9c-71.9-28.6-156.8-0.4-189.3,62.7
						c-15.8,30.6-17,64.8-3.5,96.2c11.7,27.4,33.4,49.8,61.8,64.3c4.2,2.2,8.6,4.1,13.1,5.9c34.8,13.9,73.7,15,109.4,3.1
						C1272.2,900,1297.7,880.9,1314.2,855.9z"/>
				</g>
			</g>
			<g>
				<g class="st4">
					<path class="st2" d="M1735.2,441.2c1.1-1.7,0.9-4-0.7-5.5c-3.1-2.8-6.3-5.6-9.5-8.3c-2.1-1.7-5.4-1.6-7.4,0.2
						c-2,1.9-1.9,4.8,0.3,6.5c3.1,2.5,6.1,5.2,9.1,7.9c2,1.8,5.3,1.9,7.4,0.2C1734.6,441.9,1734.9,441.6,1735.2,441.2z"/>
					<path class="st2" d="M1704.6,418.3c-1.7,2.1-5,2.5-7.3,1c-5.9-3.8-12.1-7.3-18.4-10.5c-1.3-0.7-2.7-1.3-4-2
						c-2.5-1.2-3.4-4-2-6.3c1.4-2.1,4.6-3,7.1-1.8c1.4,0.7,2.8,1.4,4.2,2.1c6.6,3.4,13.1,7.1,19.3,11.1c2.2,1.4,2.8,4,1.5,6
						C1704.8,418,1704.7,418.1,1704.6,418.3z M1650.8,396.7c-8.2-2.9-16.7-5.4-25.2-7.4c-2.8-0.7-4.5-3.2-3.7-5.6
						c0.7-2.4,3.6-3.9,6.4-3.3c8.9,2.1,17.8,4.7,26.5,7.8c2.7,1,4,3.6,2.9,6c-0.1,0.2-0.2,0.4-0.3,0.6
						C1656,396.7,1653.2,397.5,1650.8,396.7z M1599.5,384.7c-8.8-1.1-17.7-1.6-26.5-1.7c-2.9,0-5.2-2.1-5.2-4.7
						c0-2.6,2.4-4.6,5.3-4.6c9.3,0.1,18.6,0.7,27.8,1.8c2.9,0.3,4.9,2.7,4.5,5.2c-0.1,0.6-0.3,1.2-0.7,1.7
						C1603.7,384,1601.6,384.9,1599.5,384.7z M1546.4,384.2c-8.8,0.9-17.6,2.2-26.2,4c-2.8,0.6-5.6-0.9-6.3-3.4
						c-0.7-2.5,1.1-5,3.9-5.6c9-1.9,18.2-3.3,27.5-4.2c2.9-0.3,5.5,1.5,5.8,4.1c0.1,1-0.1,2-0.7,2.8
						C1549.5,383.1,1548.1,384,1546.4,384.2z M1494.7,395c-8.3,2.7-16.5,5.9-24.3,9.5c-2.6,1.2-5.7,0.3-7.1-2s-0.3-5,2.2-6.2
						c8.2-3.8,16.8-7.1,25.5-10c2.7-0.9,5.7,0.3,6.7,2.7c0.6,1.3,0.4,2.8-0.4,3.9C1496.8,393.9,1495.9,394.6,1494.7,395z
						 M1447.6,416.6c-7.3,4.4-14.3,9.3-20.9,14.4c-2.2,1.7-5.5,1.5-7.4-0.4c-1.9-1.9-1.7-4.8,0.4-6.5c6.9-5.4,14.3-10.5,21.9-15.1
						c2.4-1.4,5.6-0.9,7.3,1.2c1.2,1.5,1.2,3.4,0.2,4.9C1448.8,415.7,1448.3,416.2,1447.6,416.6z M1408,447.6
						c-5.8,5.8-11.3,12.1-16.2,18.5c-1.6,2.1-4.9,2.7-7.3,1.2c-2.4-1.4-3-4.3-1.4-6.4c5.2-6.8,10.9-13.3,17-19.4
						c1.9-1.9,5.2-2.1,7.4-0.4c1.9,1.5,2.3,3.9,1.1,5.8C1408.4,447.2,1408.3,447.4,1408,447.6z M1360.9,510.5
						c-2.7-0.9-4.1-3.5-3.1-5.9c2.7-6.6,6-13.2,9.5-19.6c0.5-1,1.1-1.9,1.6-2.9c1.2-2.3,4.5-3.2,7.1-2c2.6,1.2,3.6,3.9,2.3,6.2
						c-0.5,0.9-1,1.8-1.6,2.7c-3.4,6.1-6.5,12.4-9.1,18.7c-0.1,0.3-0.2,0.5-0.4,0.7C1366,510.3,1363.3,511.2,1360.9,510.5z"/>
				</g>
				<g class="st4">
					<path class="st2" d="M1764.4,675c-4.7,6.9-9.9,13.6-15.5,19.9c-1.8,2-5.1,2.4-7.4,0.8c-2.3-1.6-2.7-4.5-0.9-6.5
						c5.3-6,10.3-12.4,14.8-19c1.5-2.2,4.7-2.9,7.2-1.6C1765,670,1765.8,672.7,1764.4,675C1764.4,674.9,1764.4,675,1764.4,675z
						 M1770.1,655.9c-2.6-1-3.8-3.8-2.7-6.1c3.5-7,6.6-14.2,9.2-21.5c0.9-2.4,3.8-3.8,6.6-3c2.8,0.7,4.3,3.3,3.5,5.8
						c-2.7,7.7-5.9,15.3-9.6,22.6c-0.1,0.2-0.2,0.3-0.3,0.4C1775.4,656,1772.6,656.9,1770.1,655.9z M1730.8,713
						c-6.4,5.7-13.3,11.1-20.5,16c-2.3,1.6-5.6,1.2-7.4-0.8c-1.8-2-1.4-4.9,0.9-6.5c6.8-4.7,13.4-9.9,19.5-15.3c2-1.8,5.4-1.8,7.4,0
						c1.7,1.5,2,3.8,0.8,5.6C1731.4,712.4,1731.1,712.7,1730.8,713z M1787,611.3c-2.8-0.4-4.7-2.8-4.2-5.3c1.5-7.5,2.5-15.2,3-22.9
						c0.2-2.5,2.6-4.5,5.5-4.4c2.9,0.1,5.1,2.3,4.9,4.8c-0.5,8-1.6,16.1-3.2,24c-0.1,0.5-0.3,1.1-0.6,1.5
						C1791.4,610.7,1789.3,611.6,1787,611.3z M1687.8,742.8c-7.8,4.2-16,7.9-24.3,11.2c-2.6,1-5.7,0-6.9-2.3c-1.2-2.3,0-5,2.6-6.1
						c7.9-3.1,15.7-6.7,23.1-10.7c2.5-1.3,5.7-0.6,7.2,1.6c1,1.5,1,3.3,0,4.7C1689.1,741.8,1688.5,742.3,1687.8,742.8z
						 M1637.9,762.6c-8.7,2.4-17.7,4.3-26.6,5.8c-2.8,0.5-5.6-1.2-6.1-3.7c-0.5-2.5,1.4-4.9,4.2-5.4c8.5-1.4,17.1-3.3,25.4-5.5
						c2.8-0.8,5.7,0.6,6.6,3c0.5,1.3,0.2,2.6-0.5,3.7C1640.2,761.4,1639.2,762.2,1637.9,762.6z M1584,771.3
						c-9.1,0.5-18.4,0.5-27.4,0c-2.9-0.2-5.1-2.3-4.9-4.9c0.2-2.5,2.7-4.5,5.5-4.3c8.7,0.5,17.5,0.5,26.2,0c2.9-0.2,5.4,1.8,5.5,4.3
						c0.1,0.9-0.2,1.8-0.7,2.6C1587.3,770.3,1585.8,771.2,1584,771.3z"/>
					<path class="st2" d="M1795.4,561.8c0.5-0.8,0.8-1.7,0.7-2.6c-0.3-3.9-0.8-7.9-1.3-11.7c-0.4-2.5-3-4.3-5.9-4
						c-2.9,0.3-4.9,2.6-4.5,5.2c0.5,3.7,1,7.4,1.3,11.2c0.2,2.5,2.7,4.5,5.6,4.3C1793,564,1794.5,563.1,1795.4,561.8z"/>
				</g>
				<g>
					<path class="st2" d="M1721,503.4c-0.4-0.9-1.4-1.5-2.6-1.5l-32.3,0.8c-8.4-11-18.8-20.9-31.1-29.2l3-28.2
						c0.1-1-0.5-1.9-1.5-2.3l-35.3-14c-1-0.4-2.2-0.2-3,0.5L1596,450c-15.2-2.6-30.6-3-45.5-1.3l-20.6-21.8c-0.7-0.8-1.9-1-3-0.7
						l-36.2,12c-1.1,0.4-1.7,1.3-1.7,2.2l0.9,28.4c-12.5,7.4-23.8,16.6-33.3,27.4l-32.1-2.6c-1.1-0.1-2.2,0.5-2.7,1.4l-16,31
						c-0.5,0.9-0.2,2,0.6,2.7l23.4,19.5c-3,13.4-3.4,26.9-1.5,40l-24.8,18.1c-0.9,0.6-1.2,1.7-0.8,2.6l13.7,31.9
						c0.4,0.9,1.4,1.5,2.6,1.5l32.3-0.8c8.4,11,18.8,20.9,31.1,29.2l-3,28.2c-0.1,1,0.5,1.9,1.5,2.3l35.3,14c1,0.4,2.2,0.2,3-0.5
						l22.2-20.6c15.2,2.6,30.6,3,45.5,1.3l20.6,21.8c0.7,0.8,1.9,1,3,0.7l36.2-12c1.1-0.4,1.7-1.3,1.7-2.2l-0.9-28.4
						c12.5-7.4,23.8-16.6,33.3-27.4l32.1,2.6c1.1,0.1,2.2-0.5,2.7-1.4l16-31c0.5-0.9,0.2-2-0.6-2.7l-23.4-19.5
						c3-13.4,3.4-26.9,1.5-40l24.8-18.1c0.9-0.6,1.2-1.7,0.8-2.6L1721,503.4z"/>
					<g>
						<path class="st3" d="M1599.7,593.7c-6.6,7.3-16,11.9-26.5,12.9c-10.5,1.1-20.9-1.6-29.1-7.4c-17.1-12-19.9-33.9-6.3-49
							c13.6-15,38.6-17.5,55.7-5.6c8.3,5.8,13.5,14.1,14.7,23.3c1,7.5-0.8,14.9-5.1,21.4C1602.1,591,1601,592.4,1599.7,593.7z
							 M1550.6,592.1c6.1,4.3,13.7,6.2,21.4,5.4c7.7-0.8,14.7-4.1,19.5-9.5l0,0c4.8-5.4,7-12.1,6.2-18.9
							c-0.9-6.8-4.7-12.9-10.8-17.2c-12.6-8.8-30.9-7-41,4.1c-0.9,1-1.7,2-2.4,3.1C1536.4,570,1539.1,584.1,1550.6,592.1z"/>
					</g>
					<path class="st3" d="M1653.2,615.9c1.7-2.5,3.2-5.1,4.6-7.8c2.8-5.4,4.9-11,6.4-16.8c0.1-0.3,0.1-0.5,0.2-0.8
						c0.5-2-0.6-4-2.5-5c-0.5-0.2-1-0.4-1.5-0.5c-2.8-0.5-5.6,1.1-6.2,3.5c-1.3,5.4-3.3,10.6-5.9,15.7l0,0c-0.1,0.3-0.3,0.6-0.4,0.8
						c-6.3,11.8-15.6,21.9-27.3,29.5c-6.3,4.1-13.3,7.5-20.8,10.1c-0.1,0-0.1,0-0.2,0.1c-0.2,0.1-0.4,0.1-0.6,0.2
						c-22,7.3-46,6.6-67.5-1.9c-2.8-1.1-5.5-2.3-8.1-3.7c-17.5-8.9-30.9-22.8-38.1-39.7c-8.3-19.4-7.5-40.5,2.2-59.3
						c9.7-18.9,27.2-33.3,49.3-40.6c22-7.3,46-6.6,67.5,1.9c2.7,1.1,5.4,2.3,8,3.6c11.2,5.7,20.8,13.5,28.1,22.8
						c0.5,0.6,1,1,1.7,1.4c1.7,0.9,3.9,0.9,5.6-0.2c2.4-1.5,3-4.3,1.3-6.4c-8.2-10.4-19-19.2-31.5-25.5c-2.9-1.5-5.9-2.8-8.9-4
						c-24-9.6-50.8-10.3-75.5-2.1c-24.7,8.2-44.2,24.3-55.1,45.4c-10.9,21.1-11.7,44.7-2.4,66.4c8.1,18.9,23,34.4,42.6,44.4
						c2.9,1.5,5.9,2.9,9,4.1C1573.7,669.8,1628.2,653.9,1653.2,615.9z"/>
				</g>
			</g>
		</g>
		<g>
			<linearGradient id="SVGID_2_" gradientUnits="userSpaceOnUse" x1="2841.241" y1="346.451" x2="1992.4663" y2="1721.0132">
				<stop  offset="0" style="stop-color:#FF928E"/>
				<stop  offset="1" style="stop-color:#FE7062"/>
			</linearGradient>
			<path class="st5" d="M2010,1533.2l399.1-677.9h-81.8c-15.1,0-23.4-15.5-13.8-25.9L2739,369.8c18.4-19.9,54.9-7.3,53.1,18.4
				l-29.9,449.5c-1.7,25.7-27.4,44.9-56.3,42l-57-5.8l-396,760.3c-10.3,19.8-32.7,32.5-57.3,32.5h-137.3L2010,1533.2z"/>
			<g class="st6">
				<path class="st0" d="M2375.7,787.6c-0.9,0-1.7-0.3-2.5-0.8c-1.7-1.2-1.9-3.4-0.5-4.8l367.6-393.3c4.3-4.6,11.1-6,17.2-3.6
					c6.1,2.4,9.6,7.9,8.6,13.8l-8.2,48.3c-0.3,1.9-2.3,3.2-4.4,2.9c-2.1-0.3-3.6-2-3.3-3.9l8.2-48.3c0.6-3.4-1.7-5.6-4-6.5
					c-2.3-0.9-5.6-0.9-8.1,1.7l-367.6,393.3C2377.9,787.2,2376.8,787.6,2375.7,787.6z"/>
			</g>
			<linearGradient id="SVGID_3_" gradientUnits="userSpaceOnUse" x1="2228.9414" y1="1300.4304" x2="1476.875" y2="1344.6702">
				<stop  offset="0" style="stop-color:#FF928E"/>
				<stop  offset="1" style="stop-color:#FE7062"/>
			</linearGradient>
			<path class="st7" d="M1651.5,1057.7l281.8,554.9c16.7,32.9,53.6,54,94.2,54h145.3c19.3,0,37-9.3,46.4-24.2l5.2-8.3l0,0
				c-15.6,0-29.9-7.8-37-20.1L1811.9,962L1651.5,1057.7z"/>
			<linearGradient id="SVGID_4_" gradientUnits="userSpaceOnUse" x1="1896.3088" y1="1271.6013" x2="1039.2557" y2="1288.0306">
				<stop  offset="0" style="stop-color:#FF928E"/>
				<stop  offset="1" style="stop-color:#FE7062"/>
			</linearGradient>
			<path class="st8" d="M1849.9,1027.8L1849.9,1027.8c-28.3-19.8-69.5-14-89.5,12.6l-414.3,551.8c-33.2,44.2-89.1,70.7-149,70.7
				h-58.3l-47.4-121.2c0,0,385.2-523.5,484.4-602.7c0,0,98.9-79,196.3-19.3c25.8,15.8,45.3,38.3,57.2,63.9L1849.9,1027.8z"/>
			<linearGradient id="SVGID_5_" gradientUnits="userSpaceOnUse" x1="1156.714" y1="287.1681" x2="873.6622" y2="2222.8767">
				<stop  offset="0" style="stop-color:#FF928E"/>
				<stop  offset="1" style="stop-color:#FE7062"/>
			</linearGradient>
			<path class="st9" d="M640.7,1216c0,0,69.4-76.8,203.7-88.8c0,0,63.8,19.3,191,221.3c127.2,202,211.6,294.1,310.6,243.8l-8.2,12.1
				c-27,39.8-75.6,64.1-128,64.1h-54.8c-60.3,0-116.9-25.7-152.1-69.1C904,1477.3,701.5,1234.9,640.7,1216z"/>
			<g class="st6">
				<path class="st0" d="M2741.9,522c-0.2,0-0.4,0-0.6,0c-2.1-0.3-3.6-2-3.3-3.9l3.7-21.8c0.3-1.9,2.3-3.2,4.4-2.9
					c2.1,0.3,3.6,2,3.3,3.9l-3.7,21.8C2745.5,520.7,2743.8,522,2741.9,522z"/>
			</g>
			<g class="st6">
				<path class="st0" d="M1574.9,1231.5c-0.7,0-1.5-0.2-2.2-0.6c-1.8-1.1-2.3-3.2-1.1-4.8l181.7-238.7c6.5-8.5,17.3-13.2,28.9-12.4
					c11.6,0.8,21.5,6.8,26.5,16.1c0.9,1.7,0.1,3.8-1.9,4.6c-1.9,0.8-4.3,0.1-5.2-1.6c-3.8-7.1-11.3-11.6-20-12.2
					c-8.7-0.6-16.9,2.9-21.8,9.4l-181.7,238.7C1577.4,1230.9,1576.1,1231.5,1574.9,1231.5z"/>
			</g>
		</g>
		<g>
			
				<linearGradient id="SVGID_6_" gradientUnits="userSpaceOnUse" x1="111.9485" y1="1182.2328" x2="89.2148" y2="2028.6094" gradientTransform="matrix(-1 0 0 1 1264.371 0)">
				<stop  offset="0" style="stop-color:#09005D"/>
				<stop  offset="1" style="stop-color:#1A0F91"/>
			</linearGradient>
			<path class="st10" d="M1044.3,2097.6c23.2-205.6,81.2-716.1,93.8-790.7c15.9-93.8,146.6-73.1,146.6-73.1l28,949.1h-182.3
				c-24.5,0-47.9-9.3-64.3-25.6C1049.8,2141.1,1041.8,2119.4,1044.3,2097.6z"/>
			<g>
				<path class="st2" d="M761.9,1362.5c-3.4-5.7,5.2-12,12.4-9c73.1,29.5,256.2,126.1,285.7,360.1c37,293.7,183.2,342.2,260.1,420.9
					c0,0-141.6,0.2-255.8-85.9C783.9,1837.2,822.3,1464.2,761.9,1362.5z"/>
				<path class="st3" d="M833.8,1440.7c16.8,29.8,32.7,60,47.2,90.6c14.7,30.5,28.1,61.5,40.3,92.8c12,31.3,23.2,62.9,32.6,94.8
					c9.6,31.9,17.4,64.2,25.1,96.7c7.9,32.4,15.6,65.1,27.8,97c12.1,31.9,29.4,62.9,53.7,90.1c6.1,6.8,12.4,13.5,19.1,19.8
					c6.6,6.4,13.6,12.6,20.7,18.7c14.4,12.1,29.8,23.5,46.4,33.8c33.3,20.6,70.9,37.1,110.7,49.2c4.2,1.3,9.2-0.4,11.1-3.7
					c1.9-3.3,0.2-6.9-3.8-8.3l0,0c-9.5-3.2-19-6.4-28.2-10c-4.7-1.7-9.2-3.6-13.8-5.5c-4.5-2-9.1-3.8-13.4-5.9
					c-17.7-8-34.6-17.1-50.4-27.1c-31.8-19.9-59.6-43.7-82.9-69.7c-11.5-13.1-21.6-26.9-30.3-41.3c-8.7-14.4-15.8-29.5-21.9-45
					c-12.1-30.9-20.1-63.2-28.3-95.5c-8.3-32.3-16.9-64.7-27.2-96.7c-5.1-16-10.6-31.9-16.5-47.7c-2.9-7.9-5.9-15.8-9-23.7
					c-3.2-7.8-6.4-15.7-9.7-23.5c-13.3-31.2-27.8-62-43.6-92.3c-16-30.2-33-60.1-51.6-89.3c-0.5-0.8-1.9-1.1-3-0.7
					C833.8,1438.9,833.3,1439.9,833.8,1440.7z"/>
			</g>
			<g>
				<g>
					<path class="st3" d="M1224.5,2012.4c-3.2,10.2-17.2,14.3-26.7,7.8c-52.7-35.6-191.3-148.1-197.5-349.7
						c-5.3-170.3-26.5-262.1-39.5-303.3c-2.7-8.7,8.7-15.4,16.8-9.8C1066.7,1418.9,1339.1,1642.2,1224.5,2012.4z"/>
					<path class="st0" d="M1208.3,2013.7c-0.2,0.2-0.5,0.3-0.8,0.4c-2.3,1-5.1,0.2-6.3-1.8c-1.3-2.3-134.8-232.9-154.3-469.3
						c-0.2-2.3,1.8-4.3,4.4-4.4c2.6-0.2,4.8,1.5,5,3.8c19.3,234.7,151.9,463.9,153.3,466.1C1210.6,2010.4,1210,2012.5,1208.3,2013.7
						z"/>
				</g>
			</g>
			
				<linearGradient id="SVGID_7_" gradientUnits="userSpaceOnUse" x1="-3191.5933" y1="2583.8188" x2="-4518.9053" y2="4327.2061" gradientTransform="matrix(-2.120000e-02 -0.9997 -0.9997 2.120000e-02 5057.9473 -2048.9583)">
				<stop  offset="0" style="stop-color:#09005D"/>
				<stop  offset="1" style="stop-color:#1A0F91"/>
			</linearGradient>
			<path class="st11" d="M2518.8,2206.8c56.9-1.1,102.1-42.5,100.9-92.5l-18.6-770.5c-1-42.5-39.8-76.9-88.1-78.1L1241,1232.5
				c-37.8-1-69.1,25.8-69,59l3.1,883.5c0.1,31.3,29.4,56.4,64.9,55.7L2518.8,2206.8z"/>
			<g>
				
					<linearGradient id="SVGID_8_" gradientUnits="userSpaceOnUse" x1="-4357.4092" y1="4181.0596" x2="-3376.0269" y2="2733.176" gradientTransform="matrix(-2.120000e-02 -0.9997 -0.9997 2.120000e-02 5057.9473 -2048.9583)">
					<stop  offset="0" style="stop-color:#4F52FF"/>
					<stop  offset="1" style="stop-color:#4042E2"/>
				</linearGradient>
				<path class="st12" d="M2600.8,2142.1c18.2-0.2,32-14.6,29.1-30.4c-18.8-104.9-77.7-465.8-58.8-765.5
					c0.9-13.7-11.2-25.3-26.7-25.7l-1277.7-35.8c-17.5-0.5-32.2,11.5-32.9,26.9c-5.4,126-25.7,644.8,0.8,829.2
					c1.6,11.2,12.6,19.6,25.5,19.4L2600.8,2142.1z"/>
				<path class="st2" d="M2568.5,2130.4c17.5-0.2,30.8-14,28-29.3c-18.1-101-74.8-448.3-56.6-736.7c0.8-13.2-10.8-24.3-25.7-24.8
					l-1229.6-34.5c-16.9-0.5-31,11.1-31.6,25.9c-5.2,121.2-24.7,620.5,0.8,798c1.6,10.8,12.1,18.8,24.5,18.7L2568.5,2130.4z"/>
			</g>
			<path class="st13" d="M1812.8,1522.9l1.9,77.9c0.3,11.9-10.6,21.7-24.1,21.7l-90.8,0.5c-13.2,0.1-24.1-9.2-24.3-20.8l-2-81.9
				c-0.3-12.3,11.3-22.3,25.3-21.7l90.9,3.5C1802.4,1502.6,1812.5,1511.7,1812.8,1522.9z"/>
			<path class="st13" d="M2130.3,1621.8l-90.8,0.5c-13.2,0.1-24.1-9.2-24.3-20.8l-1.7-69.6c-0.3-12.2,11.2-22.2,25.1-21.7l90.9,2.9
				c12.8,0.4,23.1,9.5,23.3,20.8l1.6,66.3C2154.7,1612,2143.9,1621.8,2130.3,1621.8z"/>
			<path class="st13" d="M2050.8,1968.6l86.4-0.7c14.5-0.1,26.4,10,26.7,22.7l1.7,71.1c0.3,12.6-10.9,23.2-25.3,23.7l-86.3,3.2
				c-14.8,0.6-27.2-9.7-27.5-22.7l-1.8-73.6C2024.3,1979.4,2036,1968.8,2050.8,1968.6z"/>
			<path class="st13" d="M2196.1,2060.1l-1.7-69.6c-0.3-12.7,11.3-23.2,25.7-23.3l87.3-0.7c14.2-0.1,25.9,9.8,26.2,22.3l1.6,67.1
				c0.3,12.4-10.7,22.8-24.9,23.3l-87.2,3.2C2208.6,2082.9,2196.4,2072.9,2196.1,2060.1z"/>
			<path class="st13" d="M2188.5,1746l-1.4-57.1c-0.3-13.8,12.3-25.1,28-25.1l83.4,0.1c15.2,0,27.6,10.7,27.9,24.1l1.3,54.6
				c0.3,13.5-11.7,24.6-27,25.1l-83.3,2.4C2201.8,1770.5,2188.9,1759.7,2188.5,1746z"/>
			<path class="st13" d="M2192.5,1912l-2.1-87.3c-0.3-12.5,10.9-22.9,25.1-23.3l85.3-2.5c15.6-0.4,28.5,10.4,28.9,24l2.1,88.1
				c0.3,12.8-11.4,23.3-26,23.3l-87.3,0C2204.4,1934.3,2192.8,1924.4,2192.5,1912z"/>
			<path class="st13" d="M1960.5,1622.7l-90.8,0.5c-13.2,0.1-24.1-9.2-24.3-20.8l-1.8-75.8c-0.3-12.2,11.2-22.2,25.1-21.7l90.9,2.9
				c12.8,0.4,23.1,9.5,23.3,20.8l1.7,72.5C1984.8,1612.8,1974,1622.6,1960.5,1622.7z"/>
			<path class="st13" d="M2022.6,1911.6l-2-81.7c-0.3-12.7,11.1-23.3,25.6-23.7l86.4-2.5c14.7-0.4,27,9.8,27.3,22.7l2,84.2
				c0.3,13-11.6,23.7-26.4,23.7l-86.4,0C2034.7,1934.3,2022.9,1924.2,2022.6,1911.6z"/>
			<path class="st13" d="M1867.3,1663.3l99.2,0.2c10.9,0,19.8,7.7,20,17.2l1.9,78.5c0.2,9.7-8.4,17.7-19.4,18l-99.1,2.9
				c-11.2,0.3-20.5-7.4-20.7-17.2l-2-81.6C1847,1671.4,1856,1663.3,1867.3,1663.3z"/>
			<path class="st13" d="M1816.7,1684.9l1.8,74.8c0.3,12.1-10.6,22.2-24.4,22.6l-88.8,2.6c-14,0.4-25.7-9.3-26-21.7l-1.9-77.5
				c-0.3-12.4,11.1-22.6,25.2-22.6l88.9,0.1C1805.2,1663.2,1816.4,1672.8,1816.7,1684.9z"/>
			<path class="st13" d="M2138.7,1772.3l-99.1,2.9c-11.2,0.3-20.5-7.4-20.7-17.2l-1.8-76.4c-0.2-9.9,8.8-18,20.1-18l99.2,0.2
				c10.9,0,19.8,7.7,20,17.2l1.8,73.4C2158.4,1764,2149.7,1772,2138.7,1772.3z"/>
			<path class="st13" d="M1876.5,1811.1l86.4-2.5c14.7-0.4,27,9.8,27.3,22.7l1.9,79.3c0.3,13-11.6,23.7-26.4,23.7l-86.4,0
				c-14.4,0-26.1-10.1-26.4-22.7l-1.9-76.8C1850.6,1822.1,1862,1811.5,1876.5,1811.1z"/>
			<path class="st13" d="M1703.7,1816.1l92.4-2.7c13-0.4,23.9,8.7,24.2,20.1l1.9,79.8c0.3,11.5-10.3,21-23.4,21l-92.5,0
				c-12.7,0-23.1-8.9-23.4-20.1l-1.9-77.2C1680.8,1825.8,1690.9,1816.4,1703.7,1816.1z"/>
			<path class="st13" d="M2287.5,1620l-68.9,0.3c-18.3,0.1-33.4-12.8-33.8-28.9l-1.2-50c-0.4-15.1,13.8-27.4,31-26.8l76.7,2.4
				c17.4,0.5,31.3,12.9,31.7,28.3l1,41.8C2324.4,1605.1,2308,1619.9,2287.5,1620z"/>
			<path class="st13" d="M2364.3,1990.8c-0.3-13.7,12.1-25,27.7-25.1l30-0.3c22.8-0.2,41.5,13.1,41.9,29.8l1.2,48.3
				c0.4,16.6-17.3,30.5-39.9,31.3l-32.2,1.2c-14.5,0.5-26.8-9.5-27.1-22.3L2364.3,1990.8z"/>
			<path class="st13" d="M1398.7,1974.2l59.1-0.5c14.5-0.1,26.4,10,26.7,22.8l2.2,90.6c0.3,12.6-10.9,23.2-25.3,23.7l-58.8,2.2
				c-23.4,0.9-43.1-12.6-43.5-29.7l-1.9-77.7C1356.7,1988.5,1375.4,1974.4,1398.7,1974.2z"/>
			<path class="st13" d="M2419.6,1934.3l-29.3,0c-15.2,0-27.6-10.7-27.9-24.1l-2.1-88.8c-0.3-13.5,11.7-24.6,27-25.1l29.5-0.8
				c23.3-0.7,42.6,12.7,43,29.8l1.9,77.7C2462.1,1920.1,2443.1,1934.3,2419.6,1934.3z"/>
			<path class="st13" d="M2417.2,1764.3l-36.9,1.1c-11.8,0.3-21.6-7.8-21.8-18.2l-1.5-64.1c-0.3-10.4,9.3-19,21.2-19l37.3,0.1
				c22.6,0,40.9,13.2,41.3,29.8l0.9,39.1C2458,1749.7,2440,1763.7,2417.2,1764.3z"/>
			<path class="st13" d="M1389.2,1488.6l59.2,1.9c13.3,0.4,24,9.9,24.3,21.7l2.2,89.5c0.3,12.4-11,22.5-25,22.6l-61,0.3
				c-22.7,0.1-41.3-13.1-41.7-29.8l-1.8-74.8C1345,1502.2,1365.1,1487.8,1389.2,1488.6z"/>
			<path class="st13" d="M1880.9,1970.1l86.4-0.7c14.5-0.1,26.4,10,26.7,22.7l1.8,76c0.3,12.6-10.9,23.2-25.3,23.7l-86.3,3.2
				c-14.8,0.6-27.2-9.7-27.5-22.7l-1.9-78.5C1854.4,1980.9,1866.2,1970.2,1880.9,1970.1z"/>
			<path class="st13" d="M1391.7,1662.5l60,0.1c13.7,0,24.8,9.6,25.1,21.7l2.1,85.1c0.3,12.1-10.6,22.2-24.4,22.6l-60.3,1.7
				c-23.3,0.7-42.6-12.7-43-29.8l-1.7-70.1C1349.2,1676.7,1368.2,1662.5,1391.7,1662.5z"/>
			<path class="st13" d="M1393.9,1825l62.7-1.8c13-0.4,23.9,8.7,24.2,20.1l1.7,70.1c0.3,11.5-10.3,21-23.4,21l-63,0
				c-22.6,0-41-13.2-41.4-29.8l-1.2-48.3C1353.1,1839.6,1371.1,1825.6,1393.9,1825z"/>
			<path class="st13" d="M1650.5,1838.4l1.8,75c0.3,11.5-10.3,21-23.4,21l-92.5,0c-12.7,0-23.1-8.9-23.4-20.1l-1.7-72.3
				c-0.3-11.3,9.8-20.6,22.6-21l92.4-2.7C1639.4,1817.9,1650.2,1827,1650.5,1838.4z"/>
			<path class="st13" d="M1541.2,1973l86.4-0.7c14.5-0.1,26.4,10,26.7,22.8l2.1,85.7c0.3,12.6-10.9,23.2-25.3,23.7l-86.3,3.2
				c-14.8,0.6-27.2-9.7-27.6-22.7l-2.1-88.2C1514.7,1983.8,1526.5,1973.1,1541.2,1973z"/>
			<path class="st13" d="M2412.3,1619.4l-36.1,0.2c-11.5,0.1-21-8-21.3-18.2l-1.5-62.7c-0.3-10.7,9.7-19.3,21.9-19l38.3,1.2
				c21.9,0.7,39.2,13.7,39.6,29.7l0.9,37.4C2454.5,1605.2,2435.7,1619.3,2412.3,1619.4z"/>
			<path class="st13" d="M1711.1,1971.5l84.9-0.7c15.3-0.1,27.9,10.6,28.2,24l1.9,79.6c0.3,12.6-10.9,23.2-25.3,23.7l-86.3,3.2
				c-14.8,0.6-27.2-9.7-27.6-22.7l-2-83.3C1684.6,1982.3,1696.4,1971.7,1711.1,1971.5z"/>
			<path class="st13" d="M1642.8,1517.5l2,83.3c0.3,12.4-11,22.5-25,22.6l-88.9,0.4c-13.8,0.1-25-9.6-25.3-21.7l-2.1-86.5
				c-0.3-12.7,11.6-23.1,26.1-22.6l89,2.8C1631.8,1496.2,1642.5,1505.7,1642.8,1517.5z"/>
			<path class="st13" d="M1646.8,1684.6l1.9,80c0.3,12.1-10.6,22.2-24.4,22.6l-88.8,2.6c-14,0.4-25.7-9.3-26-21.7l-2-82.7
				c-0.3-12.4,11.1-22.6,25.2-22.6l88.9,0.1C1635.3,1662.9,1646.5,1672.6,1646.8,1684.6z"/>
			<path class="st0" d="M2422.2,1453.5l-4.1,26.4c-1.3,8.4-9.4,14.8-19.1,15l-1.4,0c-10.9,0.2-19.9-7.4-20.1-16.9l-0.7-27
				c-0.3-10.5,10-18.7,21.8-17.6l6.2,0.6C2415.8,1435,2423.7,1443.8,2422.2,1453.5z"/>
			<path class="st0" d="M2283,1446.7l-4.1,26.4c-1.3,8.4-9.4,14.8-19.1,15l-1.4,0c-10.9,0.2-19.9-7.4-20.1-16.9l-0.7-27
				c-0.3-10.5,10-18.7,21.8-17.6l6.2,0.6C2276.6,1428.2,2284.5,1437,2283,1446.7z"/>
			<path class="st0" d="M2111.7,1448.7l-4.1,26.4c-1.3,8.4-9.4,14.8-19.1,15l-1.4,0c-10.9,0.2-19.9-7.4-20.1-16.9l-0.7-27
				c-0.3-10.5,10-18.7,21.8-17.6l6.2,0.6C2105.4,1430.3,2113.2,1439.1,2111.7,1448.7z"/>
			<path class="st0" d="M1944.9,1442.2l-4.1,26.4c-1.3,8.4-9.4,14.8-19.1,15l-1.4,0c-10.9,0.2-19.9-7.4-20.1-16.9l-0.7-27
				c-0.3-10.5,10-18.7,21.8-17.6l6.2,0.6C1938.6,1423.7,1946.4,1432.5,1944.9,1442.2z"/>
			<path class="st0" d="M1773.5,1423l-4.1,26.4c-1.3,8.4-9.4,14.8-19.1,15l-1.4,0c-10.9,0.2-19.9-7.4-20.1-16.9l-0.7-27
				c-0.3-10.5,10-18.7,21.8-17.6l6.2,0.6C1767.2,1404.5,1775,1413.4,1773.5,1423z"/>
			<path class="st0" d="M1592,1426.4l-4.1,26.4c-1.3,8.4-9.4,14.8-19.1,15l-1.4,0c-10.9,0.2-19.9-7.4-20.1-16.9l-0.7-27
				c-0.3-10.5,10-18.7,21.8-17.6l6.2,0.6C1585.7,1407.9,1593.5,1416.8,1592,1426.4z"/>
			<path class="st0" d="M1438.8,1423.6l-4.1,26.4c-1.3,8.4-9.4,14.8-19.1,15l-1.4,0c-10.9,0.2-19.9-7.4-20.1-16.9l-0.7-27
				c-0.3-10.5,10-18.7,21.8-17.6l6.2,0.6C1432.4,1405.1,1440.3,1413.9,1438.8,1423.6z"/>
			<g>
				
					<linearGradient id="SVGID_9_" gradientUnits="userSpaceOnUse" x1="-1025.8462" y1="1886.7042" x2="-706.0881" y2="1604.6467" gradientTransform="matrix(-1 0 0 1 1264.371 0)">
					<stop  offset="0" style="stop-color:#E1473D"/>
					<stop  offset="1" style="stop-color:#E9605A"/>
				</linearGradient>
				<path class="st14" d="M2001.9,1581.7c0.4-5.7,7.1-8.1,12.1-4.7c14.1,9.8,19.8,24.9,26.7,39c8.1,16.5,15.8,33.1,22.7,49.9
					c7.3,17.8,13.4,35.9,18.2,54.3c9.3-22,20.2-43.4,34-63.7c3.7-5.4,14-2.2,11.9,4.2c-11.9,37.2-26.6,73.7-37.8,111.1
					c-4,13.2-24.5,10.1-26-2.6c-4.2-34.7-13.7-67.8-27.2-100.5c-6.4-15.6-13.6-30.9-21-46.1
					C2008.9,1609.2,2000.9,1596.7,2001.9,1581.7z"/>
				
					<linearGradient id="SVGID_10_" gradientUnits="userSpaceOnUse" x1="-1013.2673" y1="1916.4296" x2="-680.6999" y2="1623.0731" gradientTransform="matrix(-1 0 0 1 1264.371 0)">
					<stop  offset="0" style="stop-color:#E1473D"/>
					<stop  offset="1" style="stop-color:#E9605A"/>
				</linearGradient>
				<path class="st15" d="M1982.5,1609.3c12.3-2,16.7,11.8,5.5,16.1c-74.3,28.8-84.1,109.8-30.4,158.9c24.8,22.7,57.8,40.3,89,55.5
					c31.7,15.4,67,27.1,103.7,23.8c85.1-7.5,96.7-83.7,71.3-142.5c-24.5-56.5-76.9-100.2-141.1-121.1c-8.3-2.7-5.1-14.6,3.4-11.9
					c60.2,19,111.5,56.5,143.3,105.5c29.2,45.1,46.7,108.7,8.5,154c-39.6,46.8-114.7,47.7-171.3,28.2
					c-62.2-21.5-139.8-61.3-164.5-119.2C1873.9,1695.9,1906,1621.9,1982.5,1609.3z"/>
			</g>
			<ellipse class="st16" cx="2387.9" cy="1380.4" rx="34.5" ry="30.3"/>
			<ellipse class="st16" cx="2105.4" cy="1378.1" rx="34.5" ry="30.3"/>
			<ellipse class="st16" cx="1820.3" cy="1369.9" rx="34.5" ry="30.3"/>
			<ellipse class="st16" cx="1537.9" cy="1358.2" rx="34.5" ry="30.3"/>
			<g>
				<linearGradient id="SVGID_11_" gradientUnits="userSpaceOnUse" x1="1736.1802" y1="914.8192" x2="1621.0656" y2="1087.491">
					<stop  offset="0" style="stop-color:#4F52FF"/>
					<stop  offset="1" style="stop-color:#4042E2"/>
				</linearGradient>
				<path class="st17" d="M1511.6,1148.2c58,11.1,52.5,145.3,47.9,199.8c-1.1,12.8-13.2,22.7-27.9,22.7c-4.1,0-7.9-1.5-10.6-4.2
					c-2.7-2.7-4-6.2-3.6-9.8c5-41.2,15.7-159.8-27-166.1c0,0-30.6-4.8-35.8,47.4h-33.1C1421.5,1238.1,1438.7,1134.2,1511.6,1148.2z"
					/>
				<linearGradient id="SVGID_12_" gradientUnits="userSpaceOnUse" x1="2036.0498" y1="866.9308" x2="1887.4418" y2="1106.6212">
					<stop  offset="0" style="stop-color:#4F52FF"/>
					<stop  offset="1" style="stop-color:#4042E2"/>
				</linearGradient>
				<path class="st18" d="M1794.1,1155.1c58,11.1,52.5,145.4,47.9,199.9c-1.1,12.8-13.2,22.7-27.9,22.7c-4.1,0-7.9-1.5-10.6-4.2
					c-2.7-2.7-4-6.2-3.6-9.8c5-41.2,15.7-159.9-27-166.2c0,0-30.6-3.7-35.8,47.3h-33.1C1703.9,1244.9,1721.2,1141.1,1794.1,1155.1z"
					/>
				<linearGradient id="SVGID_13_" gradientUnits="userSpaceOnUse" x1="2325.4973" y1="893.8445" x2="2150.4207" y2="1155.2603">
					<stop  offset="0" style="stop-color:#4F52FF"/>
					<stop  offset="1" style="stop-color:#4042E2"/>
				</linearGradient>
				<path class="st19" d="M2076.6,1162c58,11.1,52.5,145.4,47.9,199.9c-1.1,12.8-13.2,22.7-27.9,22.7c-4.1,0-7.9-1.5-10.6-4.2
					c-2.7-2.7-4-6.2-3.6-9.7c5-41.2,15.7-159.9-27-166.3c0,0-30.6-3-35.8,48.3l-33.2-1C1986.4,1251.8,2003.6,1148.1,2076.6,1162z"/>
				<linearGradient id="SVGID_14_" gradientUnits="userSpaceOnUse" x1="2643.939" y1="913.7762" x2="2502.2134" y2="1093.9363">
					<stop  offset="0" style="stop-color:#4F52FF"/>
					<stop  offset="1" style="stop-color:#4042E2"/>
				</linearGradient>
				<path class="st20" d="M2359,1170.1c58,11.1,52.5,145.5,47.9,200c-1.1,12.8-13.2,22.8-27.9,22.8c-4.1,0-7.9-1.5-10.6-4.2
					c-2.7-2.7-4-6.2-3.6-9.7c5-41.2,15.7-160.1-27-166.4c0,0-30.6-3.9-35.8,47.1h-33.1C2268.8,1259.6,2286.1,1156.1,2359,1170.1z"/>
			</g>
		</g>
	</g>
</g>
</svg>
