<?xml version="1.0" encoding="utf-8"?>
<!-- Generator: Adobe Illustrator 24.1.1, SVG Export Plug-In . SVG Version: 6.00 Build 0)  -->
<svg version="1.1" xmlns="http://www.w3.org/2000/svg" xmlns:xlink="http://www.w3.org/1999/xlink" x="0px" y="0px"
	 viewBox="0 0 3710 3710" style="enable-background:new 0 0 3710 3710;" xml:space="preserve">
<style type="text/css">
	.st0{fill:#FFFFFF;}
	.st1{fill:url(#SVGID_1_);}
	.st2{opacity:0.3;}
	.st3{fill:#91B3FA;}
	.st4{fill:#BDD0FB;}
	.st5{fill:url(#SVGID_2_);}
	.st6{opacity:0.31;fill:#91B3FA;}
	.st7{opacity:0.68;}
	.st8{fill:url(#SVGID_3_);}
	.st9{fill:url(#SVGID_4_);}
	.st10{fill:url(#SVGID_5_);}
	.st11{fill:url(#SVGID_6_);}
	.st12{fill:url(#SVGID_7_);}
	.st13{fill:url(#SVGID_8_);}
	.st14{fill:url(#SVGID_9_);}
	.st15{fill:url(#SVGID_10_);}
	.st16{fill:url(#SVGID_11_);}
	.st17{fill:url(#SVGID_12_);}
	.st18{fill:url(#SVGID_13_);}
	.st19{fill:url(#SVGID_14_);}
	.st20{fill:url(#SVGID_15_);}
	.st21{fill:url(#SVGID_16_);}
	.st22{fill:url(#SVGID_17_);}
	.st23{fill:url(#SVGID_18_);}
	.st24{fill:url(#SVGID_19_);}
	.st25{fill:url(#SVGID_20_);}
	.st26{fill:url(#SVGID_21_);}
	.st27{fill:url(#SVGID_22_);}
	.st28{fill:url(#SVGID_23_);}
	.st29{fill:url(#SVGID_24_);}
	.st30{fill:url(#SVGID_25_);}
	.st31{fill:url(#SVGID_26_);}
	.st32{fill:url(#SVGID_27_);}
	.st33{fill:url(#SVGID_28_);}
	.st34{fill:url(#SVGID_29_);}
	.st35{fill:url(#SVGID_30_);}
	.st36{fill:url(#SVGID_31_);}
	.st37{fill:url(#SVGID_32_);}
	.st38{fill:url(#SVGID_33_);}
	.st39{fill:url(#SVGID_34_);}
	.st40{fill:url(#SVGID_35_);}
	.st41{fill:url(#SVGID_36_);}
	.st42{fill:url(#SVGID_37_);}
	.st43{fill:url(#SVGID_38_);}
	.st44{fill:url(#SVGID_39_);}
	.st45{fill:url(#SVGID_40_);}
	.st46{fill:url(#SVGID_41_);}
	.st47{fill:url(#SVGID_42_);}
	.st48{fill:url(#SVGID_43_);}
	.st49{fill:url(#SVGID_44_);}
	.st50{fill:url(#SVGID_45_);}
	.st51{fill:url(#SVGID_46_);}
	.st52{fill:url(#SVGID_47_);}
	.st53{fill:url(#SVGID_48_);}
	.st54{fill:url(#SVGID_49_);}
	.st55{opacity:0.8;fill:#FFFFFF;}
	.st56{fill:url(#SVGID_50_);}
</style>
<g id="Background">
	<g>
		<g>
			<rect class="st0" width="3710" height="3710"/>
		</g>
	</g>
</g>
<g id="Illustration">
	<g>
		<linearGradient id="SVGID_1_" gradientUnits="userSpaceOnUse" x1="3617.6348" y1="4068.5498" x2="1140.387" y2="991.9634">
			<stop  offset="0" style="stop-color:#DAE3FE"/>
			<stop  offset="1" style="stop-color:#E9EFFD"/>
		</linearGradient>
		<path class="st1" d="M2936.1,2855.3c-56.9,59.9-110.7,98.5-153.3,129.1c-500,358.8-1091.7,254.2-1217.4,228.7
			c-185.7-37.7-544.6-110.6-804.1-415.8C368.7,2335.5,429.9,1608.1,734.4,1128c55.7-87.8,349.9-575.3,948-653.5
			c361.9-47.3,783.8,48.1,1089.3,304.1C3413,1315.9,3367.3,2401.3,2936.1,2855.3z"/>
		<g>
			<g>
				<g class="st2">
					<path class="st3" d="M1068.6,1380.7c4.3-5.8,12.5-7.1,18.3-2.8c11.3,8.3,23.2,16.3,35.2,23.7c6.1,3.7,8.1,11.7,4.5,17.8
						c0,0.1-0.1,0.1-0.1,0.2c-3.8,6.2-11.8,8.1-18,4.3c-12.7-7.8-25.2-16.2-37.1-24.9c-5.4-4-6.9-11.4-3.5-17.2
						C1068.1,1381.4,1068.3,1381,1068.6,1380.7z M1183.2,1433.4c12.9,5.7,26.2,10.8,39.5,15.4c6.8,2.3,10.5,9.8,8.2,16.6
						c-2.4,6.9-9.8,10.5-16.6,8.2c-14-4.8-28-10.2-41.6-16.2c-6.6-2.9-9.6-10.6-6.7-17.3c0.2-0.5,0.4-0.9,0.7-1.4
						C1170,1433.2,1177.1,1430.8,1183.2,1433.4z M1289.4,1466.4c13.8,2.6,27.9,4.7,42,6.1c7.2,0.7,12.4,7.2,11.7,14.4
						c-0.7,7.2-7.2,12.4-14.4,11.7c-14.8-1.5-29.6-3.7-44.2-6.5c-7.1-1.4-11.8-8.2-10.4-15.3c0.3-1.5,0.8-2.9,1.6-4.2
						C1278.3,1468,1283.8,1465.3,1289.4,1466.4z M1400.2,1474.7c14.1-0.5,28.3-1.7,42.3-3.4c7.2-0.9,13.7,4.2,14.6,11.4
						c0.9,7.2-4.2,13.7-11.4,14.6c-14.7,1.8-29.7,3-44.5,3.6c-7.2,0.3-13.3-5.4-13.6-12.6c-0.1-2.6,0.6-5,1.8-7.1
						C1391.6,1477.5,1395.6,1474.9,1400.2,1474.7z M1510.2,1458.2c13.6-3.6,27.2-7.9,40.5-12.7c6.8-2.4,14.3,1.1,16.8,7.9
						c2.5,6.8-1.1,14.3-7.9,16.8c-14,5-28.3,9.5-42.6,13.3c-7,1.9-14.2-2.3-16-9.3c-0.9-3.5-0.4-7.1,1.4-10
						C1503.9,1461.4,1506.7,1459.1,1510.2,1458.2z M1613.7,1417.7c12.5-6.6,24.8-13.7,36.7-21.3c6.1-3.9,14.2-2.1,18.1,4
						c3.9,6.1,2.1,14.2-4,18.1c-12.5,8-25.5,15.5-38.6,22.4c-6.4,3.4-14.3,0.9-17.7-5.5c-2.2-4.2-1.9-9,0.3-12.7
						C1609.7,1420.7,1611.5,1418.9,1613.7,1417.7z M1890.9,1018.1c7.2,0.7,12.4,7.2,11.7,14.4c-1.5,14.7-3.7,29.6-6.5,44.2
						c-1.4,7.1-8.2,11.8-15.3,10.4c-7.1-1.4-11.8-8.2-10.4-15.3c2.7-13.9,4.8-28,6.2-42c0.2-1.9,0.8-3.7,1.7-5.3
						C1880.7,1020.2,1885.6,1017.5,1890.9,1018.1z M1705.7,1355.4c10.7-9.2,21.1-18.9,31-28.9c5.1-5.2,13.4-5.2,18.5-0.2
						c5.2,5.1,5.2,13.3,0.2,18.5c-10.4,10.6-21.4,20.8-32.6,30.5c-5.5,4.7-13.8,4.1-18.5-1.4c-3.7-4.4-4.1-10.5-1.4-15.1
						C1703.6,1357.5,1704.5,1356.4,1705.7,1355.4z M1869.2,1130.1c6.8,2.3,10.5,9.8,8.2,16.6c-4.8,14-10.3,28-16.2,41.6
						c-2.9,6.6-10.6,9.6-17.3,6.7c-6.6-2.9-9.6-10.6-6.7-17.3c5.7-12.9,10.9-26.2,15.4-39.5c0.3-0.8,0.7-1.6,1.1-2.4
						C1856.8,1130.6,1863.2,1128.1,1869.2,1130.1z M1781.4,1274c8.4-11.3,16.4-23.1,23.7-35.1c3.8-6.2,11.9-8.1,18-4.3
						c6.1,3.7,8,11.6,4.4,17.8c0,0.1-0.1,0.2-0.1,0.2c-7.8,12.6-16.2,25.1-25,37c-4.3,5.8-12.5,7-18.3,2.7c-5.4-4-6.9-11.4-3.5-17.1
						C1780.8,1274.8,1781.1,1274.4,1781.4,1274z"/>
					<path class="st3" d="M1879.4,932.5c-1.3,2.2-2,4.9-1.8,7.6c0.5,6.7,0.9,13.6,1.2,20.4c0.3,7.2,6.3,12.9,13.6,12.6
						c7.2-0.3,12.9-6.3,12.6-13.6c-0.3-7.1-0.7-14.4-1.2-21.4c-0.6-7.2-6.9-12.6-14.1-12C1885.3,926.4,1881.5,928.9,1879.4,932.5z"
						/>
				</g>
				<g class="st2">
					<path class="st3" d="M1695.6,578c-3.2,5.5-2.1,12.6,3,16.7c5.2,4.3,10.4,8.8,15.5,13.3c5.4,4.8,13.7,4.4,18.5-1
						c4.8-5.4,4.4-13.7-1-18.5c-5.3-4.8-10.8-9.5-16.3-14c-5.6-4.6-13.8-3.8-18.4,1.8C1696.3,576.9,1695.9,577.4,1695.6,578z"/>
					<path class="st3" d="M944.7,691c4-6.1,12.1-7.8,18.1-3.8c6.1,4,7.7,12.1,3.8,18.1c-7.5,11.5-14.7,23.5-21.4,35.9
						c-3.4,6.3-11.4,8.7-17.8,5.3c-6.4-3.4-8.7-11.4-5.3-17.8c2.9-5.3,5.9-10.6,8.9-15.8C935.5,705.5,940,698.2,944.7,691z
						 M909.4,786c6.8,2.6,10.2,10.1,7.6,16.9c-4.9,13-9.3,26.3-13.1,39.6c-2,7-9.2,11-16.2,9c-7-2-11-9.2-9-16.2
						c4-14,8.6-28.1,13.8-41.7c0.3-0.7,0.6-1.4,1-2C896.6,786.3,903.3,783.8,909.4,786z M987.8,634.1c9.6-11,19.7-21.7,30.2-31.9
						c5.2-5,13.5-4.9,18.5,0.3c5,5.2,4.9,13.5-0.3,18.5c-10,9.7-19.6,19.8-28.7,30.3c-4.8,5.5-13,6-18.5,1.3
						c-4.8-4.2-5.8-11.2-2.7-16.5C986.8,635.4,987.2,634.8,987.8,634.1z M878.7,894.1c7.2,1,12.2,7.6,11.1,14.8
						c-1.9,13.7-3.3,27.7-4.1,41.5c-0.4,7.2-6.6,12.8-13.8,12.4c-7.2-0.4-12.8-6.6-12.4-13.8c0.8-14.6,2.2-29.3,4.3-43.7
						c0.2-1.7,0.8-3.4,1.7-4.8C868.2,896,873.3,893.4,878.7,894.1z M1072.5,556.2c11.7-8.6,24-16.8,36.5-24.5
						c6.2-3.8,14.2-1.8,18,4.3c3.8,6.2,1.8,14.2-4.3,18c-11.8,7.2-23.5,15-34.7,23.2c-5.8,4.3-14,3-18.3-2.8
						c-3.2-4.3-3.3-10-0.7-14.4C1069.8,558.7,1071,557.3,1072.5,556.2z M1172.3,498.8c13.4-5.8,27.2-11.2,41-15.9
						c6.8-2.3,14.3,1.3,16.6,8.2c2.3,6.9-1.3,14.3-8.2,16.6c-13.1,4.5-26.2,9.6-38.9,15.1c-6.6,2.9-14.3-0.1-17.2-6.8
						c-1.7-4-1.3-8.4,0.7-11.9C1167.6,501.9,1169.7,500,1172.3,498.8z M1282.2,464.5c14.3-2.8,29-5,43.4-6.6
						c7.2-0.8,13.7,4.4,14.4,11.6c0.8,7.2-4.4,13.7-11.6,14.4c-13.8,1.5-27.7,3.6-41.3,6.3c-7.1,1.4-14-3.2-15.4-10.3
						c-0.6-3.3,0-6.5,1.6-9.1C1275.2,467.6,1278.4,465.3,1282.2,464.5z M1397,455c14.6,0.4,29.4,1.4,43.9,3.1
						c7.2,0.8,12.4,7.3,11.5,14.5c-0.8,7.2-7.3,12.4-14.5,11.5c-13.8-1.6-27.8-2.5-41.6-2.9c-7.2-0.2-12.9-6.2-12.7-13.5
						c0.1-2.3,0.7-4.4,1.8-6.3C1387.7,457.5,1392,454.9,1397,455z M1511.1,471c14.1,3.6,28.3,7.9,42.1,12.7
						c6.8,2.4,10.5,9.8,8.1,16.7c-2.4,6.8-9.8,10.4-16.7,8.1c-13.1-4.6-26.5-8.6-40-12c-7-1.8-11.2-8.9-9.4-15.9
						c0.3-1.2,0.8-2.4,1.4-3.4C1499.4,472.1,1505.3,469.5,1511.1,471z M1618.8,511.5c9.6,4.9,19.1,10.1,28.4,15.5c3.3,2,6.7,4,10,6
						c6.2,3.8,8.2,11.9,4.3,18c-3.8,6.2-11.9,8.1-18,4.3c-3.1-1.9-6.3-3.8-9.5-5.7c-8.8-5.2-17.9-10.1-27-14.7
						c-6.5-3.3-9-11.2-5.8-17.6c0.1-0.2,0.3-0.5,0.4-0.7C1605.1,510.7,1612.6,508.4,1618.8,511.5z"/>
					<path class="st3" d="M862.4,1013c-1.3,2.2-2,4.9-1.8,7.7c0.6,7.1,1.3,14.3,2.2,21.4c0.9,7.2,7.4,12.3,14.6,11.4
						c7.2-0.9,12.3-7.4,11.4-14.6c-0.8-6.8-1.5-13.6-2.1-20.3c-0.6-7.2-6.9-12.6-14.1-12C868.2,1007,864.5,1009.5,862.4,1013z"/>
				</g>
				<g>
					<path class="st3" d="M1033.5,1158.4c0.9,2.4,3.3,4,5.9,4l74.5-1.8c19.2,29,43.2,55.1,71.5,77.1l-7.2,74.1
						c-0.3,2.6,1.2,5.1,3.5,6.2l81.3,37.2c2.4,1.1,5.2,0.5,7-1.3l51.4-53.9c35.1,7.1,70.6,8.2,105.1,3.8l47.3,57.6
						c1.7,2,4.4,2.8,6.9,1.8l83.8-31.1c2.4-0.9,4-3.3,4-5.9l-1.8-74.5c29-19.2,55.1-43.2,77.1-71.5l74.1,7.2
						c2.6,0.3,5.1-1.2,6.2-3.5l37.2-81.3c1.1-2.4,0.5-5.2-1.3-7l-53.9-51.4c7.1-35.1,8.2-70.6,3.8-105.1l57.6-47.3
						c2-1.7,2.8-4.4,1.9-6.9l-31.1-83.8c-0.9-2.4-3.3-4-5.9-4l-74.5,1.8c-19.2-29-43.2-55.1-71.5-77.1l7.2-74.1
						c0.3-2.6-1.2-5.1-3.5-6.2l-81.3-37.2c-2.4-1.1-5.2-0.5-7,1.3l-51.4,53.9c-35.1-7.1-70.6-8.2-105.1-3.8l-47.3-57.6
						c-1.7-2-4.4-2.8-6.9-1.9l-83.8,31.1c-2.4,0.9-4,3.3-4,5.9l1.8,74.5c-29,19.2-55.1,43.2-77.1,71.5l-74.1-7.2
						c-2.6-0.3-5.1,1.2-6.2,3.5l-37.2,81.3c-1.1,2.4-0.5,5.2,1.3,7l53.9,51.4c-7.1,35.1-8.2,70.6-3.8,105.1l-57.6,47.3
						c-2,1.7-2.8,4.4-1.9,6.9L1033.5,1158.4z"/>
					<g>
						<path class="st4" d="M1315.7,923.5c31-38.6,87.7-44.8,126.3-13.8c18.7,15,30.4,36.4,33,60.3c2.6,23.8-4.2,47.3-19.3,66
							c-31,38.6-87.7,44.8-126.3,13.8c-35.1-28.2-43.4-77.7-21.3-115.4C1310.4,930.6,1312.9,927,1315.7,923.5z M1454.2,972.3
							c-2-18.3-11-34.7-25.3-46.2c-29.6-23.8-73-19-96.8,10.6c-23.8,29.6-19,73,10.6,96.8c29.6,23.8,73,19,96.8-10.6
							c2.2-2.7,4.1-5.5,5.8-8.4C1452.7,1001.8,1455.9,987.2,1454.2,972.3z"/>
					</g>
					<path class="st4" d="M1197.2,867.2c-3.8,6.5-7.3,13.2-10.5,20.1l0,0c-1,2.2-2,4.4-2.9,6.6c-4.6,10.9-8.3,22.2-11.1,33.6
						c0,0.2-0.1,0.3-0.1,0.5c-0.1,0.4-0.2,0.9-0.3,1.3c-0.2,0.9-0.4,1.7-0.6,2.6c-0.5,2.3,0.6,4.5,2.5,5.6c0.5,0.3,1,0.5,1.5,0.6
						c2.8,0.6,5.6-1.2,6.2-4c3.2-14.5,8-28.8,14.3-42.5c31-67.8,93.8-111.2,162.7-120.8c38.3-5.3,78.5-0.2,116.2,17.1
						c6.6,3,13,6.4,19.2,10c41.6,24.4,73.4,62.1,90.4,108c19.6,52.7,17.5,109.8-5.9,160.9c-48.3,105.5-173.4,152-278.9,103.7
						c-6.5-3-12.8-6.3-19-9.9c-26.6-15.6-49.4-36.8-66.9-62.2c-0.5-0.7-1-1.2-1.7-1.6c-1.7-1-3.9-1-5.6,0.2c-2.4,1.6-3,4.9-1.4,7.3
						c18.3,26.7,42.3,49,70.2,65.3c6.4,3.8,13.1,7.2,19.9,10.4c110.7,50.7,242.1,1.8,292.8-108.9c24.6-53.6,26.8-113.6,6.2-168.9
						c-17.9-48.1-51.2-87.7-94.9-113.4c-6.5-3.8-13.2-7.3-20.2-10.5c-53.6-24.6-113.6-26.8-168.9-6.2
						C1262.5,790.1,1222.9,823.4,1197.2,867.2z"/>
				</g>
			</g>
			<g>
				<g class="st2">
					<path class="st3" d="M544,1592.8c-1.8,3-1.4,7,1.1,9.6c4.7,5,9.6,9.9,14.6,14.6c3.2,3.1,8.4,2.9,11.4-0.3
						c3.1-3.2,2.9-8.4-0.3-11.4c-4.8-4.5-9.5-9.2-13.9-14c-3.1-3.3-8.2-3.4-11.4-0.3C544.8,1591.5,544.4,1592.1,544,1592.8z"/>
					<path class="st3" d="M591.1,1633.3c2.6-3.6,7.7-4.4,11.3-1.7c9.1,6.7,18.6,12.9,28.4,18.6c2.1,1.2,4.1,2.4,6.2,3.6
						c3.9,2.2,5.3,7.1,3.1,11c-2.2,3.6-7.1,5.3-11,3.1c-2.2-1.2-4.4-2.5-6.5-3.7c-10.2-6-20.2-12.6-29.7-19.5
						c-3.4-2.5-4.3-7.1-2.2-10.6C590.7,1633.7,590.9,1633.5,591.1,1633.3z M674,1671.5c12.7,5.2,25.7,9.6,38.9,13.2
						c4.3,1.2,6.9,5.6,5.7,9.9c-1.2,4.3-5.6,6.9-9.9,5.7c-13.8-3.7-27.5-8.4-40.8-13.8c-4.1-1.7-6.1-6.4-4.4-10.6
						c0.1-0.4,0.3-0.7,0.5-1C665.9,1671.5,670.2,1670,674,1671.5z M753.1,1692.9c13.5,1.9,27.3,3,41,3.2c4.5,0.1,8,3.8,8,8.2
						c-0.1,4.5-3.7,8-8.2,8c-14.3-0.2-28.8-1.4-43-3.3c-4.4-0.6-7.5-4.7-6.9-9.1c0.2-1.1,0.5-2.1,1-3
						C746.6,1694.1,749.8,1692.5,753.1,1692.9z M835.1,1694.2c13.6-1.5,27.2-3.8,40.5-6.9c4.4-1,8.7,1.7,9.7,6c1,4.3-1.7,8.7-6,9.7
						c-13.9,3.3-28.2,5.7-42.5,7.3c-4.4,0.5-8.4-2.7-8.9-7.2c-0.2-1.8,0.2-3.5,1.1-5C830.3,1696.1,832.5,1694.5,835.1,1694.2z
						 M915,1675.5c12.8-4.7,25.5-10.3,37.6-16.5c4-2,8.8-0.5,10.9,3.5c2,4,0.5,8.9-3.5,10.9c-12.7,6.6-26,12.4-39.4,17.3
						c-4.2,1.5-8.8-0.6-10.4-4.8c-0.9-2.4-0.6-4.9,0.6-6.9C911.7,1677.4,913.1,1676.2,915,1675.5z M987.8,1637.9
						c11.3-7.7,22.2-16.2,32.4-25.2c3.3-3,8.5-2.6,11.4,0.7c3,3.3,2.6,8.4-0.7,11.4c-10.7,9.5-22.1,18.4-34,26.4
						c-3.7,2.5-8.7,1.6-11.2-2.1c-1.8-2.7-1.8-6-0.3-8.7C986,1639.5,986.8,1638.6,987.8,1637.9z M1049.2,1583.7
						c9-10.2,17.5-21.1,25.2-32.4c2.5-3.7,7.6-4.6,11.2-2.1c3.7,2.5,4.6,7.5,2.1,11.2c-8.1,11.8-17,23.3-26.5,34
						c-3,3.3-8.1,3.7-11.4,0.7c-2.9-2.6-3.5-6.9-1.6-10.1C1048.6,1584.5,1048.9,1584.1,1049.2,1583.7z M1122.5,1473.7
						c4.2,1.6,6.3,6.2,4.8,10.4c-4.3,11.6-9.3,23.2-14.9,34.3c-0.8,1.7-1.7,3.4-2.6,5.1c-1.9,4-6.9,5.5-10.9,3.5
						c-4-2.1-5.5-6.9-3.5-10.9c0.8-1.6,1.6-3.2,2.4-4.8c5.3-10.7,10.1-21.7,14.2-32.8c0.2-0.5,0.4-0.9,0.6-1.3
						C1114.7,1473.8,1118.8,1472.3,1122.5,1473.7z"/>
				</g>
				<g class="st2">
					<path class="st3" d="M500.7,1182c7.3-12.1,15.4-23.8,24-34.9c2.8-3.5,7.8-4.1,11.4-1.4c3.5,2.8,4.1,7.8,1.4,11.4
						c-8.3,10.5-16,21.7-22.9,33.2c-2.3,3.8-7.3,5.1-11.1,2.7C499.6,1190.8,498.4,1185.9,500.7,1182
						C500.6,1182,500.7,1182,500.7,1182z M491.7,1215.4c4.1,1.8,5.9,6.6,4,10.7c-5.5,12.3-10.4,25-14.4,37.8
						c-1.3,4.2-5.9,6.6-10.1,5.3c-4.3-1.3-6.6-5.9-5.3-10.1c4.2-13.4,9.3-26.8,15.1-39.6c0.1-0.3,0.3-0.5,0.4-0.8
						C483.5,1215.2,487.9,1213.7,491.7,1215.4z M552.8,1115.4c10-10,20.7-19.4,31.8-28c3.5-2.7,8.6-2.1,11.4,1.4
						c2.8,3.5,2.1,8.6-1.4,11.4c-10.6,8.2-20.8,17.2-30.3,26.7c-3.2,3.2-8.3,3.1-11.4,0c-2.7-2.7-3.1-6.7-1.3-9.8
						C551.9,1116.5,552.3,1115.9,552.8,1115.4z M465.2,1293.7c4.4,0.8,7.3,5,6.5,9.4c-2.4,13.2-4,26.7-4.8,40.1
						c-0.3,4.5-4.1,7.9-8.5,7.6c-4.5-0.3-7.9-4.1-7.6-8.5c0.8-14.1,2.5-28.2,5.1-42.1c0.2-1,0.5-1.8,1-2.6
						C458.4,1294.8,461.8,1293.1,465.2,1293.7z M619.5,1063.4c12.1-7.2,24.7-13.8,37.6-19.6c4.1-1.8,8.9,0,10.7,4.1
						c1.8,4.1,0,8.9-4.1,10.7c-12.3,5.5-24.3,11.7-35.8,18.7c-3.8,2.3-8.8,1.1-11.1-2.8c-1.6-2.6-1.5-5.8,0-8.3
						C617.4,1065.2,618.3,1064.2,619.5,1063.4z M696.7,1029c13.5-4.1,27.3-7.5,41.2-10c4.4-0.8,8.6,2.1,9.4,6.5
						c0.8,4.4-2.1,8.6-6.5,9.4c-13.2,2.4-26.4,5.6-39.3,9.6c-4.3,1.3-8.8-1.1-10.1-5.4c-0.7-2.3-0.4-4.6,0.8-6.5
						C693.1,1030.9,694.7,1029.6,696.7,1029z M780,1014c14.1-0.8,28.4-0.7,42.4,0.2c4.5,0.3,7.8,4.1,7.5,8.6
						c-0.3,4.5-4.1,7.8-8.6,7.5c-13.4-0.9-27-0.9-40.4-0.2c-4.5,0.3-8.3-3.2-8.5-7.6c-0.1-1.7,0.3-3.2,1.1-4.5
						C774.8,1015.8,777.2,1014.2,780,1014z"/>
					<path class="st3" d="M451.9,1380.5c-0.8,1.3-1.2,2.9-1.1,4.6c0.4,6.9,1.1,13.8,1.9,20.6c0.6,4.4,4.6,7.6,9,7
						c4.4-0.6,7.6-4.6,7-9c-0.8-6.4-1.4-13.1-1.9-19.6c-0.3-4.5-4.1-7.8-8.6-7.5C455.6,1376.7,453.3,1378.2,451.9,1380.5z"/>
				</g>
				<g>
					<path class="st3" d="M566.3,1483.6c0.6,1.6,2.2,2.7,3.9,2.7l49.8-1.2c12.9,19.4,28.9,36.9,47.9,51.6l-4.8,49.6
						c-0.2,1.7,0.8,3.4,2.4,4.1l54.4,24.9c1.6,0.7,3.5,0.4,4.7-0.9l34.4-36.1c23.5,4.7,47.2,5.5,70.3,2.6l31.7,38.5
						c1.1,1.4,3,1.8,4.6,1.2l56.1-20.8c1.6-0.6,2.7-2.2,2.7-3.9L923,1546c19.4-12.9,36.9-28.9,51.6-47.9l49.6,4.8
						c1.7,0.2,3.4-0.8,4.1-2.4l24.9-54.4c0.7-1.6,0.4-3.5-0.9-4.7l-36.1-34.4c4.7-23.5,5.5-47.2,2.6-70.3l38.5-31.7
						c1.3-1.1,1.8-3,1.2-4.6l-20.8-56.1c-0.6-1.6-2.2-2.7-3.9-2.7l-49.8,1.2c-12.9-19.4-28.9-36.9-47.9-51.6l4.8-49.6
						c0.2-1.7-0.8-3.4-2.4-4.1l-54.4-24.9c-1.6-0.7-3.5-0.4-4.7,0.9l-34.4,36.1c-23.5-4.7-47.2-5.5-70.3-2.6l-31.7-38.5
						c-1.1-1.4-3-1.8-4.6-1.2l-56.1,20.8c-1.6,0.6-2.7,2.2-2.7,3.9l1.2,49.8c-19.4,12.9-36.9,28.9-51.6,47.9l-49.6-4.8
						c-1.7-0.2-3.4,0.8-4.1,2.4l-24.9,54.4c-0.7,1.6-0.4,3.5,0.9,4.7l36.1,34.4c-4.7,23.5-5.5,47.2-2.6,70.3l-38.5,31.7
						c-1.3,1.1-1.8,3-1.2,4.6L566.3,1483.6z"/>
					<g>
						<path class="st4" d="M754.3,1325.8c10.2-12.7,24.8-20.7,41.1-22.5c16.2-1.8,32.2,2.9,45,13.1c26.3,21.1,30.5,59.7,9.4,86
							c-21.1,26.3-59.7,30.5-86,9.4c-12.7-10.2-20.7-24.8-22.5-41.1c-1.4-13.2,1.4-26.2,8-37.5
							C750.7,1330.6,752.4,1328.1,754.3,1325.8z M830.2,1329c-9.4-7.5-21.1-11-33.1-9.7c-11.9,1.3-22.7,7.2-30.2,16.6l0,0
							c-7.5,9.4-11,21.1-9.7,33.1c1.3,11.9,7.2,22.7,16.6,30.2c19.3,15.5,47.7,12.4,63.3-6.9c1.4-1.7,2.6-3.6,3.8-5.4
							C852,1367.9,847.8,1343.1,830.2,1329z"/>
					</g>
					<path class="st4" d="M671.8,1286.5c-2.6,4.4-5,9-7.2,13.7c-4.3,9.4-7.7,19.3-10,29.4c-0.1,0.5-0.2,0.9-0.3,1.4
						c-0.8,3.5,0.9,7,3.8,8.7c0.7,0.4,1.5,0.7,2.4,0.9c4.4,1,8.7-1.8,9.6-6.2c2.1-9.4,5.2-18.7,9.2-27.5l0,0c0.2-0.5,0.4-1,0.7-1.4
						c9.8-20.8,24.3-38.3,42.3-51.6c9.8-7.2,20.6-13.1,32.2-17.5c0.1,0,0.2-0.1,0.3-0.1c0.3-0.1,0.6-0.2,0.9-0.3
						c34.1-12.7,71.1-11.3,104.2,3.8c4.3,2,8.4,4.1,12.4,6.5c27,15.8,47.5,40.2,58.5,69.9c12.7,34.1,11.3,71.1-3.8,104.2
						c-15.2,33.1-42.3,58.3-76.4,71c-34.1,12.7-71.1,11.3-104.2-3.8c-4.2-1.9-8.3-4.1-12.3-6.4c-17.2-10.1-32-23.8-43.3-40.3
						c-0.7-1-1.6-1.8-2.6-2.4c-2.6-1.5-6-1.5-8.7,0.3c-3.7,2.5-4.6,7.6-2.1,11.3c12.6,18.4,29.2,33.8,48.4,45.1
						c4.4,2.6,9,5,13.7,7.1c37,16.9,78.4,18.5,116.6,4.3c38.1-14.2,68.5-42.3,85.4-79.4c17-37,18.5-78.4,4.3-116.6
						c-12.3-33.2-35.3-60.5-65.5-78.2c-4.5-2.6-9.1-5-13.9-7.2C795,1192.4,710.9,1220,671.8,1286.5z"/>
				</g>
			</g>
		</g>
		<g>
			<linearGradient id="SVGID_2_" gradientUnits="userSpaceOnUse" x1="1883.7441" y1="2053.801" x2="1410.519" y2="973.1516">
				<stop  offset="0" style="stop-color:#4F52FF"/>
				<stop  offset="1" style="stop-color:#4042E2"/>
			</linearGradient>
			<path class="st5" d="M3088.9,2212.2c-26,592.6-565.6,1050.2-1205.2,1022.1s-1137-531.2-1111-1123.8
				c26-592.6,565.6-1050.2,1205.2-1022.1S3115,1619.6,3088.9,2212.2z"/>
			<ellipse class="st6" cx="1868.1" cy="2083.9" rx="909.6" ry="859.3"/>
			<g class="st7">
				<path class="st0" d="M2227,2166.5c-0.3,189.4-13.3,379.2-46.6,566c-8.5,46.6-18.2,93.1-29.9,139c-11.7,46-25.2,91.5-41.8,136.1
					c-16.7,44.4-36.1,88.2-62.3,128.2c-13.2,19.9-28.3,38.9-46.8,54.6c-9.3,7.8-19.4,14.7-30.6,19.7c-11.2,5-23.4,8.2-35.7,8.4
					c-12.4,0.4-24.8-2.1-36.1-6.6c-11.4-4.5-21.8-11.1-31.3-18.7c-19-15.2-34.3-34-47.8-53.7c-26.7-39.7-46.4-83.4-63.2-127.8
					c-16.8-44.5-30.4-90-42.2-135.9c-11.8-45.9-21.7-92.4-30.2-139c-17-93.3-28.6-187.5-36.4-281.9c-7.8-94.5-11.7-189.2-12.1-284
					c-0.2-47.4,1.1-94.7,2.7-142.1c1.8-47.3,4.4-94.6,7.9-141.9c7-94.5,17.5-188.7,33-282.2c7.8-46.7,16.9-93.3,27.9-139.4
					c11-46.1,23.7-91.9,39.6-136.6c8-22.4,16.6-44.5,26.6-66.1c9.9-21.6,21-42.7,34-62.7c13.1-19.9,28.1-38.9,46.7-54
					c9.3-7.5,19.6-14.1,30.9-18.5c11.2-4.5,23.4-6.8,35.5-6.3c12.1,0.3,24.1,3.4,35.1,8.2c11,4.9,21.2,11.5,30.5,19
					c18.6,15.1,34.1,33.7,47.8,53.1c27.2,39.2,47.7,82.4,65.5,126.3c17.6,44.1,32.2,89.3,44.9,135c12.6,45.7,23.3,91.9,32.6,138.4
					C2211.5,1787.3,2226.4,1977.1,2227,2166.5z M2213,2166.5c0.2-94.4-3.4-188.8-11.3-282.8c-7.7-94-19.4-187.8-36.9-280.6
					c-8.7-46.4-18.9-92.5-30.9-138.1c-12.1-45.6-26.1-90.7-43.1-134.6c-17.2-43.8-37-86.9-63.4-125.7
					c-13.3-19.3-28.2-37.6-46.2-52.6c-9-7.4-18.7-13.9-29.3-18.7c-10.5-4.7-21.9-7.8-33.4-8.2c-11.5-0.4-23.1,2-33.7,6.3
					c-10.7,4.3-20.5,10.7-29.5,18.1c-17.9,14.9-32.5,33.6-45.1,53.3c-12.6,19.8-23.3,40.8-32.9,62.3c-9.6,21.5-18,43.5-25.6,65.8
					c-15.2,44.6-27.4,90.2-37.8,136.2c-10.4,46-18.9,92.4-26.2,139.1c-14.5,93.3-23.9,187.3-29.8,281.5c-6,94.2-8.1,188.7-7.9,283
					c-0.2,94.4,2.9,188.8,9.9,282.9c7.1,94.1,17.9,188,34.1,280.9c8.1,46.5,17.6,92.7,29,138.4c11.4,45.7,24.6,91,40.9,135.2
					c16.3,44,35.5,87.4,61.3,126.4c13,19.4,27.8,37.7,45.7,52.3c9,7.2,18.7,13.5,29.2,17.7c10.5,4.3,21.8,6.7,33.1,6.3
					c11.3-0.3,22.4-3.3,32.8-8c10.3-4.8,19.9-11.3,28.7-18.8c17.5-15.1,32-33.6,44.8-53.2c25.4-39.3,44.2-82.8,60.4-126.9
					c16-44.2,29.1-89.6,40.4-135.4c11.2-45.8,20.6-92,28.7-138.5c16.1-93,26.8-186.8,33.9-280.9
					C2209.7,2355.3,2213,2260.9,2213,2166.5z"/>
				<path class="st0" d="M2704.8,2166.5c-0.7,122-16.3,244-49,361.6c-33.2,117.4-83.3,230.3-151.3,331.6
					c-34,50.6-72.5,98.3-115.6,141.5c-43,43.2-90.6,82-142.3,114.5c-51.7,32.4-107.5,58.3-166,75.9
					c-58.4,17.6-119.4,26.8-180.4,26.9c-61,0-122-9.1-180.5-26.7c-58.5-17.5-114.4-43.4-166.1-75.8
					c-51.7-32.5-99.4-71.2-142.4-114.4c-43.1-43.2-81.7-90.9-115.8-141.5c-68.1-101.4-118.3-214.3-151.7-331.7
					c-16.4-58.8-28.6-118.8-36.7-179.3c-8-60.5-12.1-121.6-12.4-182.6c0.3-61.1,4.4-122.1,12.5-182.6
					c8.1-60.5,20.4-120.5,36.9-179.3c33.5-117.4,83.7-230.2,151.9-331.5c34.1-50.6,72.7-98.2,115.8-141.3
					c43.1-43.1,90.7-81.9,142.4-114.2c51.7-32.3,107.6-58,166-75.5c58.3-17.6,119.2-26.8,180.2-26.8c61,0.1,121.8,9.3,180.2,27
					c58.3,17.6,114.2,43.3,165.8,75.6c51.6,32.4,99.2,71.2,142.2,114.3c43,43.2,81.6,90.8,115.6,141.4
					c68,101.3,118.2,214.1,151.5,331.4C2688.3,1922.5,2704.1,2044.6,2704.8,2166.5z M2688.7,2166.5c-0.2-120.6-15.2-241.3-47-357.7
					c-32-116.2-80.2-228.4-146.5-329.4c-33.1-50.4-70.8-97.9-112.9-141.1c-42.2-43.1-88.8-82.1-139.7-114.6
					c-51-32.2-106.1-58.2-163.9-75.8c-57.7-17.6-118-26.8-178.4-27c-60.4,0.3-120.7,9.5-178.4,27.1
					c-57.7,17.6-112.8,43.6-163.7,75.9c-50.9,32.5-97.4,71.5-139.5,114.6c-42.1,43.2-79.7,90.7-112.7,141.1
					c-66.2,100.9-114.3,213.1-146.1,329.2c-15.9,58.2-27.3,117.5-35.1,177.2c-7.8,59.7-11.6,120-11.8,180.3
					c0.2,60.3,4.1,120.5,11.9,180.2c7.8,59.7,19.4,119,35.3,177.1c31.9,116.1,80.1,228.2,146.3,329c33.1,50.4,70.7,97.8,112.7,141
					c42.1,43.1,88.6,82.1,139.5,114.4c50.9,32.2,106,58,163.6,75.6c57.6,17.6,117.8,27,178.1,27.3c60.3-0.3,120.5-9.5,178.1-27.1
					c57.7-17.5,112.7-43.3,163.7-75.5c50.9-32.3,97.5-71.3,139.7-114.4c42.2-43.1,79.8-90.6,113-140.9
					c66.4-100.8,114.6-212.9,146.7-329.1C2673.4,2407.8,2688.5,2287.1,2688.7,2166.5z"/>
				<path class="st0" d="M961.5,1750.2l241.6-2l241.6-1.1l483.2-0.9l483.2,1l241.6,1.2l241.6,2.1c0.4,0,0.7,0.3,0.7,0.7
					c0,0.4-0.3,0.7-0.7,0.7l-241.6,2.1l-241.6,1.2l-483.2,1l-483.2-0.9l-241.6-1.1l-241.6-2c-0.6,0-1.1-0.5-1-1.1
					C960.5,1750.7,960.9,1750.2,961.5,1750.2z"/>
				<path class="st0" d="M1241.8,1345.6c57.2-0.9,114.4-1.3,171.5-2l171.5-1.1c57.2-0.5,114.4-0.4,171.5-0.6l171.5-0.3l343.1,1
					l171.5,1.2c57.2,0.7,114.4,1.1,171.5,2.1c0.4,0,0.7,0.3,0.7,0.7c0,0.4-0.3,0.7-0.7,0.7c-57.2,1-114.4,1.4-171.5,2.1l-171.5,1.2
					l-343.1,1l-171.5-0.3c-57.2-0.1-114.4-0.1-171.5-0.6l-171.5-1.1c-57.2-0.7-114.4-1-171.5-2c-0.6,0-1-0.5-1-1.1
					C1240.8,1346,1241.2,1345.6,1241.8,1345.6z"/>
				<path class="st0" d="M877.5,2154.9l262.6-1.9l262.6-1.1l525.2-0.9l525.2,1l262.6,1.2l262.6,2.1c0.4,0,0.7,0.3,0.7,0.7
					c0,0.4-0.3,0.7-0.7,0.7l-262.6,2.1l-262.6,1.2l-525.2,1l-525.2-0.9l-262.6-1.1l-262.6-1.9c-0.6,0-1.1-0.5-1-1.1
					C876.5,2155.4,877,2154.9,877.5,2154.9z"/>
				<path class="st0" d="M961.5,2559.6l241.6-2l241.6-1.1l483.2-0.9l483.2,1l241.6,1.2l241.6,2.1c0.4,0,0.7,0.3,0.7,0.7
					c0,0.4-0.3,0.7-0.7,0.7l-241.6,2.1l-241.6,1.2l-483.2,1l-483.2-0.9l-241.6-1.1l-241.6-2c-0.6,0-1.1-0.5-1-1.1
					C960.5,2560,960.9,2559.6,961.5,2559.6z"/>
				<path class="st0" d="M2648.6,2969H1276.4c-2,0-3.7-1.7-3.7-3.7c0-2,1.7-3.7,3.7-3.7h1372.3c2,0,3.7,1.7,3.7,3.7
					C2652.3,2967.3,2650.7,2969,2648.6,2969z"/>
			</g>
		</g>
		<g>
			
				<linearGradient id="SVGID_3_" gradientUnits="userSpaceOnUse" x1="-2163.498" y1="-9947.3418" x2="-2079.0044" y2="-9947.3418" gradientTransform="matrix(-0.9813 0.1926 -0.1926 -0.9813 -2396.9971 -7779.7432)">
				<stop  offset="0" style="stop-color:#FEBBBA"/>
				<stop  offset="1" style="stop-color:#FF928E"/>
			</linearGradient>
			<path class="st8" d="M1642.2,1566.4c0,0-58.1-38.1-66.2-29.3c-2.9,3.1-9.6,13.8-15.8,25.4c-4.4,8.2-3,18.3,3.4,24.9l15,15.5
				c14.3,14.8,38.4,13.7,51-2.5C1636.1,1592.2,1641.1,1581.2,1642.2,1566.4z"/>
			<g>
				<g>
					<linearGradient id="SVGID_4_" gradientUnits="userSpaceOnUse" x1="2005.2546" y1="1461.1241" x2="1663.7216" y2="1511.0404">
						<stop  offset="0" style="stop-color:#FEBBBA"/>
						<stop  offset="1" style="stop-color:#FF928E"/>
					</linearGradient>
					<path class="st9" d="M1701.4,1494c0,0-19.9-52.5-43.2-47.7c-23.3,4.8-48.8,22.7-48.8,22.7l-37.4,50.6c0,0,105,41.4,142,17.7
						c0,0,107.3,18.5,242.8-3.7c-19.6-41.4-31.3-82.9-38.2-115C1850,1457.4,1776.1,1486.4,1701.4,1494z"/>
					<linearGradient id="SVGID_5_" gradientUnits="userSpaceOnUse" x1="2535.4341" y1="472.9293" x2="2021.3547" y2="1567.2573">
						<stop  offset="0" style="stop-color:#09005D"/>
						<stop  offset="1" style="stop-color:#1A0F91"/>
					</linearGradient>
					<path class="st10" d="M2269.8,1113.3c0,0-153.6,193.5-351.1,305.3c6.9,32.2,18.6,73.6,38.2,115
						c102.5-16.8,221.1-56.9,321.6-146.1L2269.8,1113.3z"/>
				</g>
				<linearGradient id="SVGID_6_" gradientUnits="userSpaceOnUse" x1="2918.103" y1="652.6939" x2="2404.0217" y2="1747.0261">
					<stop  offset="0" style="stop-color:#09005D"/>
					<stop  offset="1" style="stop-color:#1A0F91"/>
				</linearGradient>
				<path class="st11" d="M2461.3,1970.8c-30-142.7-60.1-225.3-160.7-495.8c-31.7-85.1-60.4-171.2-46.5-261l15.6-100.8
					c0,0,195.5-66.1,412.2-2.8c0,0,295.6,128.4,94.8,762.7C2686.2,1974.4,2580.3,2003.3,2461.3,1970.8z"/>
				
					<linearGradient id="SVGID_7_" gradientUnits="userSpaceOnUse" x1="1142.7931" y1="1096.7844" x2="1081.0966" y2="911.6942" gradientTransform="matrix(1 0 0 1 1290.1023 0)">
					<stop  offset="0" style="stop-color:#FEBBBA"/>
					<stop  offset="1" style="stop-color:#FF928E"/>
				</linearGradient>
				<path class="st12" d="M2303,984.7l50.7,121.8c3.2,7.7,10.1,13.2,18.3,14.6c29.2,5,99.9,12.8,146.3-17.7
					c5.5-3.6,6.9-11.2,3.2-16.6l-93.6-134.4L2303,984.7z"/>
				<g>
					<linearGradient id="SVGID_8_" gradientUnits="userSpaceOnUse" x1="2288.782" y1="869.6453" x2="2510.5317" y2="966.0585">
						<stop  offset="0" style="stop-color:#FEBBBA"/>
						<stop  offset="1" style="stop-color:#FF928E"/>
					</linearGradient>
					<path class="st13" d="M2355.4,798.3c-2.1,2-89.8,174.3-89.8,174.3l99.4,48l107.4-150.9C2472.4,869.7,2391.1,764.8,2355.4,798.3
						z"/>
					
						<linearGradient id="SVGID_9_" gradientUnits="userSpaceOnUse" x1="5260.4243" y1="5126.7036" x2="5525.3188" y2="5126.7036" gradientTransform="matrix(-0.6854 -0.7281 -0.7281 0.6854 9787.373 1318.7853)">
						<stop  offset="0" style="stop-color:#09005D"/>
						<stop  offset="1" style="stop-color:#1A0F91"/>
					</linearGradient>
					<path class="st14" d="M2427.2,887.8l-49.6,82.7c-0.8,1.3-1.6,2.4-2.7,3.4c-5.9,5.5-26.1,21.5-41.7-0.3
						c-13.3-18.5-25.8-35.4-39.2-42.4c-7.8-4.1-17.4-0.8-21.4,7c-8.2,16.2-24,49.2-33.9,80.5c-2.5,7.8,1.6,16.3,9.2,19.4
						c20.1,8.2,59.9,22.9,95.2,27.8c5.8,0.8,11.5-1.6,15-6.4c15.2-20.8,58-79,72.6-93.5c13.6-13.5,38.6-8.4,49.9-5.2
						c4.3,1.2,8.8,0.6,12.7-1.7c11.5-6.9,31.4-24.1,13.2-53.2c-4.5-7.2-2.2-16.9,4.9-21.6c12.8-8.4,26.7-24.2,13.4-49.8
						c-13.4-25.9-37.3-28.2-53.6-26.2c-7.2,0.9-14.5-2.9-17.3-9.6c-1.2-3-3.7-5.5-8.2-6.4c-8.5-1.7-14.1-9.5-12.5-18.1
						c2.9-14.6,0.7-33.7-22.7-46.5c-42.9-23.6-80.5,14.8-90,47.3c-9.6,32.4,38.4,55.4,68.6,59.2c22.2,2.8,34.3,27,39.2,39.6
						C2430.2,878.5,2429.8,883.6,2427.2,887.8z"/>
					<linearGradient id="SVGID_10_" gradientUnits="userSpaceOnUse" x1="2274.9634" y1="901.4271" x2="2496.7134" y2="997.8402">
						<stop  offset="0" style="stop-color:#FEBBBA"/>
						<stop  offset="1" style="stop-color:#FF928E"/>
					</linearGradient>
					<path class="st15" d="M2409.9,990.7c0,0,21.3-50.2,45.8-48.2c24.4,2,43.6,26.4,13.4,53.7
						C2431.3,1030.3,2409.9,990.7,2409.9,990.7z"/>
				</g>
				<g>
					
						<linearGradient id="SVGID_11_" gradientUnits="userSpaceOnUse" x1="2176.8049" y1="2772.834" x2="2181.8953" y2="3259.7915" gradientTransform="matrix(-1 0 0 1 4753.7588 0)">
						<stop  offset="0" style="stop-color:#09005D"/>
						<stop  offset="1" style="stop-color:#1A0F91"/>
					</linearGradient>
					<path class="st16" d="M2442.1,3228.3c47.2,4.1,129.1,10.7,193.7,13.6c38.8,1.7,61.2-2.1,74.1-7.2c0,1.5-0.1,2.8-0.1,4.1
						c-0.3,6.8-5.8,12.2-12.7,12.6c-122.1,6.8-219.1,2.4-253.7,0.3c-7.1-0.4-11.4-8.2-7.8-14.3
						C2437.5,3234.3,2439.7,3231.3,2442.1,3228.3z"/>
					<linearGradient id="SVGID_12_" gradientUnits="userSpaceOnUse" x1="3375.0652" y1="2983.8328" x2="2377.1907" y2="3268.2502">
						<stop  offset="0" style="stop-color:#4F52FF"/>
						<stop  offset="1" style="stop-color:#4042E2"/>
					</linearGradient>
					<path class="st17" d="M2635.8,3241.9c-64.6-2.8-146.5-9.5-193.7-13.6c46.4-56.9,193.7-95.3,193.7-95.3h41.6
						c28.6,41.3,32.8,80.5,32.4,101.6C2697,3239.8,2674.7,3243.6,2635.8,3241.9z"/>
					
						<linearGradient id="SVGID_13_" gradientUnits="userSpaceOnUse" x1="2069.3203" y1="3112.2515" x2="2146.9482" y2="3112.2515" gradientTransform="matrix(-1 0 0 1 4753.7588 0)">
						<stop  offset="0" style="stop-color:#FEBBBA"/>
						<stop  offset="1" style="stop-color:#FF928E"/>
					</linearGradient>
					<path class="st18" d="M2684.4,3065.1l-3.9,77.1c-0.4,8.3-6.7,15.4-15,16.6c-8.3,1.2-19.4,1.3-31.3-2.6c-7.3-2.4-12.7-8.5-14-16
						l-13.5-75H2684.4z"/>
				</g>
				<g>
					<g>
						
							<linearGradient id="SVGID_14_" gradientUnits="userSpaceOnUse" x1="1542.567" y1="2779.4624" x2="1547.6572" y2="3266.4197" gradientTransform="matrix(-1 0 0 1 4753.7588 0)">
							<stop  offset="0" style="stop-color:#09005D"/>
							<stop  offset="1" style="stop-color:#1A0F91"/>
						</linearGradient>
						<path class="st19" d="M3224.9,3241.3c20.5-2.9,29.7-13.5,33.6-24.9c0,0.1,0.1,0.2,0.1,0.3c3,12-4,24.4-17.9,30.3
							c-16.9,7.1-35.3,8.4-49.6,7.8c-15.4-0.6-29.5-7-37.2-17.2l-0.1-0.2C3169.1,3245.2,3190.8,3246.1,3224.9,3241.3z"/>
						<linearGradient id="SVGID_15_" gradientUnits="userSpaceOnUse" x1="2818.7664" y1="2926.0247" x2="3440.6294" y2="3330.959">
							<stop  offset="0" style="stop-color:#4F52FF"/>
							<stop  offset="1" style="stop-color:#4042E2"/>
						</linearGradient>
						<path class="st20" d="M3128.4,3064.6h34.3c52.3-1.1,85.1,109.2,95.8,151.9c-3.9,11.4-13.1,22-33.6,24.9
							c-34.1,4.8-55.8,3.9-71.2-3.8c-28.2-37.2-42.2-91.6-49-123.3C3097.1,3078.1,3128.4,3064.6,3128.4,3064.6z"/>
					</g>
					
						<linearGradient id="SVGID_16_" gradientUnits="userSpaceOnUse" x1="1575.8138" y1="3047.5388" x2="1668.5861" y2="3047.5388" gradientTransform="matrix(-1 0 0 1 4753.7588 0)">
						<stop  offset="0" style="stop-color:#FEBBBA"/>
						<stop  offset="1" style="stop-color:#FF928E"/>
					</linearGradient>
					<path class="st21" d="M3158.3,2993.1l19.1,75.8c2.3,9.3-2.1,18.9-10.7,23.3c-10.7,5.5-25.7,11.2-39.5,9.6
						c-6.5-0.8-11.9-5.4-14-11.5l-28-79.7L3158.3,2993.1z"/>
				</g>
				
					<linearGradient id="SVGID_17_" gradientUnits="userSpaceOnUse" x1="-770.2708" y1="3183.7561" x2="645.3513" y2="1226.5909" gradientTransform="matrix(-1 0 0 1 2420.7585 0)">
					<stop  offset="0" style="stop-color:#09005D"/>
					<stop  offset="1" style="stop-color:#1A0F91"/>
				</linearGradient>
				<path class="st22" d="M3181,3015c-23.7,21-100.8,23.8-100.8,23.8c-277.8-666.7-393.6-850.2-393.6-850.2
					c40.1,251.6,8.6,897.5,8.6,897.5c-45.8,20.2-104.9,0-104.9,0c-3.7-411.9-61.7-854.6-136.5-1137.8
					c187.7-4.2,289.8-45.1,322.4-70.9C2932.7,2129.6,3181,3015,3181,3015z"/>
				<g>
					<linearGradient id="SVGID_18_" gradientUnits="userSpaceOnUse" x1="2756.0256" y1="2252.2693" x2="2796.7468" y2="2548.6292">
						<stop  offset="0" style="stop-color:#FE7062"/>
						<stop  offset="1" style="stop-color:#FF928E"/>
					</linearGradient>
					<path class="st23" d="M2406.5,2134.6l34.5,214.9c6,37.5,40.7,63.5,78.6,58.8l517-63.1c25.3-3.1,44.5-24.2,45-49.6
						c1.1-55.5-1.1-154.3-24.4-244.3L2406.5,2134.6z"/>
					<path class="st0" d="M2530.5,2394.1c-0.6,0-1.1-0.4-1.2-1c-0.1-0.6,0.4-1.2,1-1.3l9.3-1.1c0.7-0.1,1.2,0.4,1.3,1
						c0.1,0.6-0.4,1.2-1,1.3l-9.3,1.1C2530.6,2394.1,2530.5,2394.1,2530.5,2394.1z M2508.8,2393.4c-0.1,0-0.1,0-0.2,0
						c-3.1-0.6-6.2-1.4-9.1-2.5c-0.6-0.2-0.9-0.9-0.7-1.5c0.2-0.6,0.9-0.9,1.5-0.7c2.9,1,5.9,1.8,8.8,2.4c0.6,0.1,1,0.7,0.9,1.4
						C2509.9,2393,2509.4,2393.4,2508.8,2393.4z M2561.3,2390.4c-0.6,0-1.1-0.4-1.2-1c-0.1-0.6,0.4-1.2,1-1.3l9.3-1.1
						c0.7-0.1,1.2,0.4,1.3,1c0.1,0.6-0.4,1.2-1,1.3l-9.3,1.1C2561.4,2390.4,2561.4,2390.4,2561.3,2390.4z M2592.2,2386.6
						c-0.6,0-1.1-0.4-1.2-1c-0.1-0.6,0.4-1.2,1-1.3l9.3-1.1c0.7-0.1,1.2,0.4,1.3,1c0.1,0.6-0.4,1.2-1,1.3l-9.3,1.1
						C2592.3,2386.6,2592.2,2386.6,2592.2,2386.6z M2623,2382.8c-0.6,0-1.1-0.4-1.2-1c-0.1-0.6,0.4-1.2,1-1.3l9.3-1.1
						c0.7-0.1,1.2,0.4,1.3,1c0.1,0.6-0.4,1.2-1,1.3l-9.3,1.1C2623.1,2382.8,2623.1,2382.8,2623,2382.8z M2480.7,2380.8
						c-0.2,0-0.5-0.1-0.7-0.2c-2.5-1.9-4.9-4-7.1-6.3c-0.5-0.5-0.4-1.2,0-1.6c0.5-0.5,1.2-0.4,1.6,0c2.1,2.2,4.5,4.2,6.9,6
						c0.5,0.4,0.6,1.1,0.2,1.6C2481.4,2380.6,2481.1,2380.8,2480.7,2380.8z M2653.9,2379.1c-0.6,0-1.1-0.4-1.2-1
						c-0.1-0.6,0.4-1.2,1-1.3l9.3-1.1c0.7-0.1,1.2,0.4,1.3,1c0.1,0.6-0.4,1.2-1,1.3l-9.3,1.1
						C2654,2379.1,2653.9,2379.1,2653.9,2379.1z M2684.7,2375.3c-0.6,0-1.1-0.4-1.2-1c-0.1-0.6,0.4-1.2,1-1.3l9.3-1.1
						c0.7-0.1,1.2,0.4,1.3,1s-0.4,1.2-1,1.3l-9.3,1.1C2684.8,2375.3,2684.8,2375.3,2684.7,2375.3z M2715.6,2371.5
						c-0.6,0-1.1-0.4-1.2-1c-0.1-0.6,0.4-1.2,1-1.3l9.3-1.1c0.7-0.1,1.2,0.4,1.3,1c0.1,0.6-0.4,1.2-1,1.3l-9.3,1.1
						C2715.7,2371.5,2715.6,2371.5,2715.6,2371.5z M2746.4,2367.8c-0.6,0-1.1-0.4-1.2-1c-0.1-0.6,0.4-1.2,1-1.3l9.3-1.1
						c0.7-0.1,1.2,0.4,1.3,1c0.1,0.6-0.4,1.2-1,1.3l-9.3,1.1C2746.5,2367.8,2746.5,2367.8,2746.4,2367.8z M2777.3,2364
						c-0.6,0-1.1-0.4-1.2-1c-0.1-0.6,0.4-1.2,1-1.3l9.3-1.1c0.7-0.1,1.2,0.4,1.3,1c0.1,0.6-0.4,1.2-1,1.3l-9.3,1.1
						C2777.4,2364,2777.3,2364,2777.3,2364z M2808.1,2360.2c-0.6,0-1.1-0.4-1.2-1c-0.1-0.6,0.4-1.2,1-1.3l9.3-1.1
						c0.7-0.1,1.2,0.4,1.3,1c0.1,0.6-0.4,1.2-1,1.3l-9.3,1.1C2808.2,2360.2,2808.2,2360.2,2808.1,2360.2z M2461.2,2357
						c-0.4,0-0.8-0.2-1-0.7c-1.4-2.8-2.6-5.8-3.6-8.8c-0.2-0.6,0.1-1.3,0.7-1.5c0.6-0.2,1.3,0.1,1.5,0.7c0.9,2.9,2.1,5.8,3.4,8.5
						c0.3,0.6,0,1.3-0.5,1.6C2461.5,2356.9,2461.4,2357,2461.2,2357z M2839,2356.5c-0.6,0-1.1-0.4-1.2-1c-0.1-0.6,0.4-1.2,1-1.3
						l9.3-1.1c0.7-0.1,1.2,0.4,1.3,1c0.1,0.6-0.4,1.2-1,1.3l-9.3,1.1C2839.1,2356.5,2839,2356.5,2839,2356.5z M2869.8,2352.7
						c-0.6,0-1.1-0.4-1.2-1c-0.1-0.6,0.4-1.2,1-1.3l9.3-1.1c0.7-0.1,1.2,0.4,1.3,1s-0.4,1.2-1,1.3l-9.3,1.1
						C2869.9,2352.7,2869.9,2352.7,2869.8,2352.7z M2900.7,2349c-0.6,0-1.1-0.4-1.2-1c-0.1-0.6,0.4-1.2,1-1.3l9.3-1.1
						c0.7-0.1,1.2,0.4,1.3,1c0.1,0.6-0.4,1.2-1,1.3l-9.3,1.1C2900.8,2349,2900.7,2349,2900.7,2349z M2931.6,2345.2
						c-0.6,0-1.1-0.4-1.2-1c-0.1-0.6,0.4-1.2,1-1.3l9.3-1.1c0.7-0.1,1.2,0.4,1.3,1c0.1,0.6-0.4,1.2-1,1.3l-9.3,1.1
						C2931.6,2345.2,2931.6,2345.2,2931.6,2345.2z M2962.4,2341.4c-0.6,0-1.1-0.4-1.2-1c-0.1-0.6,0.4-1.2,1-1.3l9.3-1.1
						c0.7-0.1,1.2,0.4,1.3,1c0.1,0.6-0.4,1.2-1,1.3l-9.3,1.1C2962.5,2341.4,2962.5,2341.4,2962.4,2341.4z M2993.3,2337.7
						c-0.6,0-1.1-0.4-1.2-1c-0.1-0.6,0.4-1.2,1-1.3l9.3-1.1c0.7-0.1,1.2,0.4,1.3,1c0.1,0.6-0.4,1.2-1,1.3l-9.3,1.1
						C2993.4,2337.7,2993.3,2337.7,2993.3,2337.7z M3024.1,2333.9c-0.6,0-1.1-0.4-1.1-1c-0.1-0.6,0.3-1.2,1-1.3c3-0.5,6-1.3,8.8-2.3
						c0.6-0.2,1.3,0.1,1.5,0.7c0.2,0.6-0.1,1.3-0.7,1.5c-3,1.1-6.1,1.9-9.2,2.4C3024.2,2333.9,3024.2,2333.9,3024.1,2333.9z
						 M2453.4,2327c-0.6,0-1.1-0.4-1.1-1l-1.5-9.2c-0.1-0.6,0.3-1.2,1-1.3c0.6-0.1,1.2,0.3,1.3,1l1.5,9.2c0.1,0.6-0.3,1.2-1,1.3
						C2453.6,2327,2453.5,2327,2453.4,2327z M3051.2,2319.7c-0.3,0-0.6-0.1-0.8-0.3c-0.5-0.4-0.5-1.2,0-1.6c2.1-2.2,4-4.6,5.7-7.1
						c0.4-0.5,1.1-0.7,1.6-0.3c0.5,0.4,0.7,1.1,0.3,1.6c-1.7,2.7-3.7,5.2-6,7.4C3051.8,2319.6,3051.5,2319.7,3051.2,2319.7z
						 M2448.5,2296.4c-0.6,0-1.1-0.4-1.1-1l-1.5-9.2c-0.1-0.6,0.3-1.2,1-1.3c0.7-0.1,1.2,0.3,1.3,1l1.5,9.2c0.1,0.6-0.3,1.2-1,1.3
						C2448.6,2296.3,2448.6,2296.4,2448.5,2296.4z M3064.5,2292.2c0,0-0.1,0-0.1,0c-0.6-0.1-1.1-0.7-1-1.3c0.2-1.7,0.3-3.4,0.4-5.1
						l0.1-4.1c0-0.6,0.5-1.1,1.2-1.1c0,0,0,0,0,0c0.6,0,1.2,0.5,1.1,1.2l-0.1,4.1c0,1.8-0.2,3.6-0.4,5.4
						C3065.6,2291.8,3065.1,2292.2,3064.5,2292.2z M2443.6,2265.7c-0.6,0-1.1-0.4-1.1-1l-1.5-9.2c-0.1-0.6,0.3-1.2,1-1.3
						c0.7-0.1,1.2,0.3,1.3,1l1.5,9.2c0.1,0.6-0.3,1.2-1,1.3C2443.7,2265.7,2443.6,2265.7,2443.6,2265.7z M3065.1,2261.2
						c-0.6,0-1.2-0.5-1.2-1.2c0-3,0-6.1-0.1-9.3c0-0.6,0.5-1.2,1.2-1.2c0,0,0,0,0,0c0.6,0,1.2,0.5,1.2,1.1c0,3.2,0.1,6.3,0.1,9.3
						C3066.2,2260.6,3065.7,2261.1,3065.1,2261.2L3065.1,2261.2z M2438.6,2235c-0.6,0-1.1-0.4-1.1-1l-1.5-9.2
						c-0.1-0.6,0.3-1.2,1-1.3c0.6-0.1,1.2,0.3,1.3,1l1.5,9.2c0.1,0.6-0.3,1.2-1,1.3C2438.8,2235,2438.7,2235,2438.6,2235z
						 M3064.5,2230.1c-0.6,0-1.1-0.5-1.2-1.1c-0.1-3.1-0.2-6.2-0.3-9.3c0-0.6,0.5-1.2,1.1-1.2c0,0,0,0,0,0c0.6,0,1.1,0.5,1.2,1.1
						c0.1,3.2,0.2,6.3,0.3,9.3C3065.7,2229.5,3065.2,2230,3064.5,2230.1C3064.5,2230.1,3064.5,2230.1,3064.5,2230.1z M2433.7,2204.3
						c-0.6,0-1.1-0.4-1.1-1l-1.5-9.2c-0.1-0.6,0.3-1.2,1-1.3c0.7-0.1,1.2,0.3,1.3,1l1.5,9.2c0.1,0.6-0.3,1.2-1,1.3
						C2433.8,2204.3,2433.8,2204.3,2433.7,2204.3z M3063.1,2199c-0.6,0-1.1-0.5-1.2-1.1c-0.2-3.1-0.4-6.2-0.6-9.3
						c0-0.6,0.4-1.2,1.1-1.2c0.7,0,1.2,0.4,1.2,1.1c0.2,3.1,0.4,6.2,0.6,9.3C3064.3,2198.4,3063.8,2199,3063.1,2199
						C3063.1,2199,3063.1,2199,3063.1,2199z M2428.8,2173.6c-0.6,0-1.1-0.4-1.1-1l-1.5-9.2c-0.1-0.6,0.3-1.2,1-1.3
						c0.6-0.1,1.2,0.3,1.3,1l1.5,9.2c0.1,0.6-0.3,1.2-1,1.3C2428.9,2173.6,2428.8,2173.6,2428.8,2173.6z M3060.7,2168
						c-0.6,0-1.1-0.5-1.2-1.1c-0.3-3.1-0.6-6.2-0.9-9.3c-0.1-0.6,0.4-1.2,1-1.3c0.6-0.1,1.2,0.4,1.3,1c0.3,3.1,0.6,6.2,0.9,9.3
						c0.1,0.6-0.4,1.2-1.1,1.3C3060.8,2168,3060.7,2168,3060.7,2168z M2423.8,2142.9c-0.6,0-1.1-0.4-1.1-1l-1.5-9.2
						c-0.1-0.6,0.3-1.2,1-1.3c0.7-0.1,1.2,0.3,1.3,1l1.5,9.2c0.1,0.6-0.3,1.2-1,1.3C2424,2142.9,2423.9,2142.9,2423.8,2142.9z
						 M3057.3,2137.1c-0.6,0-1.1-0.4-1.2-1c-0.4-3.1-0.8-6.1-1.2-9.2c-0.1-0.6,0.4-1.2,1-1.3c0.7-0.1,1.2,0.4,1.3,1
						c0.4,3.1,0.9,6.2,1.2,9.3c0.1,0.6-0.4,1.2-1,1.3C3057.4,2137.1,3057.3,2137.1,3057.3,2137.1z M2437.6,2131.8
						c-0.6,0-1.1-0.4-1.2-1c-0.1-0.6,0.4-1.2,1-1.3l9.2-1.2c0.7-0.1,1.2,0.4,1.3,1c0.1,0.6-0.4,1.2-1,1.3l-9.2,1.2
						C2437.7,2131.8,2437.7,2131.8,2437.6,2131.8z M2468.5,2127.8c-0.6,0-1.1-0.4-1.2-1c-0.1-0.6,0.4-1.2,1-1.3l9.2-1.2
						c0.7-0.1,1.2,0.4,1.3,1c0.1,0.6-0.4,1.2-1,1.3l-9.2,1.2C2468.6,2127.8,2468.5,2127.8,2468.5,2127.8z M2499.3,2123.9
						c-0.6,0-1.1-0.4-1.2-1c-0.1-0.6,0.4-1.2,1-1.3l9.2-1.2c0.7-0.1,1.2,0.4,1.3,1c0.1,0.6-0.4,1.2-1,1.3l-9.2,1.2
						C2499.4,2123.9,2499.3,2123.9,2499.3,2123.9z M2530.1,2119.9c-0.6,0-1.1-0.4-1.2-1c-0.1-0.6,0.4-1.2,1-1.3l9.2-1.2
						c0.7-0.1,1.2,0.4,1.3,1c0.1,0.6-0.4,1.2-1,1.3l-9.2,1.2C2530.2,2119.9,2530.2,2119.9,2530.1,2119.9z M2561,2116
						c-0.6,0-1.1-0.4-1.2-1c-0.1-0.6,0.4-1.2,1-1.3l9.2-1.2c0.7-0.1,1.2,0.4,1.3,1c0.1,0.6-0.4,1.2-1,1.3l-9.2,1.2
						C2561,2116,2561,2116,2561,2116z M2591.8,2112c-0.6,0-1.1-0.4-1.2-1c-0.1-0.6,0.4-1.2,1-1.3l9.2-1.2c0.7-0.1,1.2,0.4,1.3,1
						c0.1,0.6-0.4,1.2-1,1.3l-9.2,1.2C2591.9,2112,2591.8,2112,2591.8,2112z M2622.6,2108.1c-0.6,0-1.1-0.4-1.2-1
						c-0.1-0.6,0.4-1.2,1-1.3l9.2-1.2c0.7-0.1,1.2,0.4,1.3,1c0.1,0.6-0.4,1.2-1,1.3l-9.2,1.2
						C2622.7,2108.1,2622.7,2108.1,2622.6,2108.1z M3052.7,2106.4c-0.6,0-1.1-0.4-1.1-1c-0.5-3.1-1.1-6.1-1.6-9.2
						c-0.1-0.6,0.3-1.2,0.9-1.4c0.6-0.1,1.2,0.3,1.4,0.9c0.6,3.1,1.1,6.1,1.6,9.2c0.1,0.6-0.3,1.2-1,1.3
						C3052.8,2106.4,3052.7,2106.4,3052.7,2106.4z M2653.4,2104.1c-0.6,0-1.1-0.4-1.2-1c-0.1-0.6,0.4-1.2,1-1.3l9.2-1.2
						c0.7-0.1,1.2,0.4,1.3,1c0.1,0.6-0.4,1.2-1,1.3l-9.2,1.2C2653.5,2104.1,2653.5,2104.1,2653.4,2104.1z M2684.3,2100.2
						c-0.6,0-1.1-0.4-1.2-1c-0.1-0.6,0.4-1.2,1-1.3l9.2-1.2c0.7-0.1,1.2,0.4,1.3,1c0.1,0.6-0.4,1.2-1,1.3l-9.2,1.2
						C2684.4,2100.2,2684.3,2100.2,2684.3,2100.2z M2715.1,2096.3c-0.6,0-1.1-0.4-1.2-1c-0.1-0.6,0.4-1.2,1-1.3l9.2-1.2
						c0.7-0.1,1.2,0.4,1.3,1c0.1,0.6-0.4,1.2-1,1.3l-9.2,1.2C2715.2,2096.2,2715.1,2096.3,2715.1,2096.3z M2745.9,2092.3
						c-0.6,0-1.1-0.4-1.2-1c-0.1-0.6,0.4-1.2,1-1.3l9.2-1.2c0.7-0.1,1.2,0.4,1.3,1c0.1,0.6-0.4,1.2-1,1.3l-9.2,1.2
						C2746,2092.3,2746,2092.3,2745.9,2092.3z M2776.8,2088.4c-0.6,0-1.1-0.4-1.2-1c-0.1-0.6,0.4-1.2,1-1.3l9.2-1.2
						c0.7-0.1,1.2,0.4,1.3,1c0.1,0.6-0.4,1.2-1,1.3l-9.2,1.2C2776.9,2088.4,2776.8,2088.4,2776.8,2088.4z M2807.6,2084.4
						c-0.6,0-1.1-0.4-1.2-1c-0.1-0.6,0.4-1.2,1-1.3l9.2-1.2c0.7-0.1,1.2,0.4,1.3,1c0.1,0.6-0.4,1.2-1,1.3l-9.2,1.2
						C2807.7,2084.4,2807.6,2084.4,2807.6,2084.4z M2838.4,2080.5c-0.6,0-1.1-0.4-1.2-1c-0.1-0.6,0.4-1.2,1-1.3l9.2-1.2
						c0.7-0.1,1.2,0.4,1.3,1c0.1,0.6-0.4,1.2-1,1.3l-9.2,1.2C2838.5,2080.5,2838.5,2080.5,2838.4,2080.5z M2869.3,2076.5
						c-0.6,0-1.1-0.4-1.2-1c-0.1-0.6,0.4-1.2,1-1.3l9.2-1.2c0.7-0.1,1.2,0.4,1.3,1c0.1,0.6-0.4,1.2-1,1.3l-9.2,1.2
						C2869.3,2076.5,2869.3,2076.5,2869.3,2076.5z M3046.8,2075.9c-0.5,0-1-0.4-1.1-0.9c-0.7-3-1.3-6.1-2.1-9.1
						c-0.1-0.6,0.2-1.3,0.9-1.4c0.6-0.1,1.3,0.2,1.4,0.9c0.7,3,1.4,6.1,2.1,9.1c0.1,0.6-0.3,1.3-0.9,1.4
						C3046.9,2075.9,3046.8,2075.9,3046.8,2075.9z M2900.1,2072.6c-0.6,0-1.1-0.4-1.2-1c-0.1-0.6,0.4-1.2,1-1.3l9.2-1.2
						c0.7-0.1,1.2,0.4,1.3,1c0.1,0.6-0.4,1.2-1,1.3l-9.2,1.2C2900.2,2072.6,2900.1,2072.6,2900.1,2072.6z M2930.9,2068.6
						c-0.6,0-1.1-0.4-1.2-1c-0.1-0.6,0.4-1.2,1-1.3l9.2-1.2c0.7-0.1,1.2,0.4,1.3,1c0.1,0.6-0.4,1.2-1,1.3l-9.2,1.2
						C2931,2068.6,2931,2068.6,2930.9,2068.6z M2961.7,2064.7c-0.6,0-1.1-0.4-1.2-1c-0.1-0.6,0.4-1.2,1-1.3l9.2-1.2
						c0.7-0.1,1.2,0.4,1.3,1c0.1,0.6-0.4,1.2-1,1.3l-9.2,1.2C2961.8,2064.7,2961.8,2064.7,2961.7,2064.7z M2992.6,2060.7
						c-0.6,0-1.1-0.4-1.2-1c-0.1-0.6,0.4-1.2,1-1.3l9.2-1.2c0.7-0.1,1.2,0.4,1.3,1c0.1,0.6-0.4,1.2-1,1.3l-9.2,1.2
						C2992.7,2060.7,2992.6,2060.7,2992.6,2060.7z M3023.4,2056.8c-0.6,0-1.1-0.4-1.2-1c-0.1-0.6,0.4-1.2,1-1.3l9.2-1.2
						c0.7-0.1,1.2,0.4,1.3,1c0.1,0.6-0.4,1.2-1,1.3l-9.2,1.2C3023.5,2056.8,3023.4,2056.8,3023.4,2056.8z"/>
					
						<linearGradient id="SVGID_19_" gradientUnits="userSpaceOnUse" x1="302.0757" y1="88.2791" x2="307.1663" y2="-235.813" gradientTransform="matrix(0.9919 -0.127 0.127 0.9919 1989.9969 -609.5969)">
						<stop  offset="0" style="stop-color:#E1473D"/>
						<stop  offset="1" style="stop-color:#E9605A"/>
					</linearGradient>
					<path class="st24" d="M2537.9,1958.6l-0.6-16.8c1.2-4.2,4.5-7.5,8.7-8.7c15.8-4.6,55.1-14.2,76.2-2.3l5.3,19L2537.9,1958.6z"/>
					
						<linearGradient id="SVGID_20_" gradientUnits="userSpaceOnUse" x1="301.2826" y1="88.3511" x2="306.3731" y2="-235.7304" gradientTransform="matrix(0.9919 -0.127 0.127 0.9919 1989.9969 -609.5969)">
						<stop  offset="0" style="stop-color:#E1473D"/>
						<stop  offset="1" style="stop-color:#E9605A"/>
					</linearGradient>
					<path class="st25" d="M2586.1,1936.1c-3.6,1.4-7.3,1.9-11.1,1.4c-4.6-0.5-8.3-4.1-8.9-8.8l-6.7-52.1l26.5-3.4l6.7,52.1
						C2593.2,1930,2590.5,1934.5,2586.1,1936.1z"/>
					
						<linearGradient id="SVGID_21_" gradientUnits="userSpaceOnUse" x1="560.9175" y1="92.3509" x2="566.0082" y2="-231.7411" gradientTransform="matrix(0.9919 -0.127 0.127 0.9919 1989.9969 -609.5969)">
						<stop  offset="0" style="stop-color:#E1473D"/>
						<stop  offset="1" style="stop-color:#E9605A"/>
					</linearGradient>
					<path class="st26" d="M2794.7,1925.7l-0.6-16.8c1.2-4.2,4.5-7.5,8.7-8.7c15.8-4.6,55.1-14.2,76.2-2.3l5.3,19L2794.7,1925.7z"/>
					
						<linearGradient id="SVGID_22_" gradientUnits="userSpaceOnUse" x1="560.0816" y1="92.4152" x2="565.1721" y2="-231.6663" gradientTransform="matrix(0.9919 -0.127 0.127 0.9919 1989.9969 -609.5969)">
						<stop  offset="0" style="stop-color:#E1473D"/>
						<stop  offset="1" style="stop-color:#E9605A"/>
					</linearGradient>
					<path class="st27" d="M2842.9,1903.3c-3.6,1.4-7.3,1.9-11.1,1.4c-4.6-0.5-8.3-4.1-8.9-8.8l-7.4-57.6l26.5-3.4l7.4,57.6
						C2850,1897.1,2847.3,1901.6,2842.9,1903.3z"/>
					
						<linearGradient id="SVGID_23_" gradientUnits="userSpaceOnUse" x1="428.8361" y1="90.4771" x2="433.9263" y2="-233.5878" gradientTransform="matrix(0.9919 -0.127 0.127 0.9919 1989.9969 -609.5969)">
						<stop  offset="0" style="stop-color:#E1473D"/>
						<stop  offset="1" style="stop-color:#E9605A"/>
					</linearGradient>
					<path class="st28" d="M2558.3,1889.8l283.9-45.9c6.5-1,11.4-6.4,11.7-13c0.4-9.1,0.1-22.7-3.7-36.3
						c-4.4-15.5-19.4-25.4-35.4-23.8c-53.4,5.5-188.8,22.9-259.6,62c-7.5,4.1-12.5,11.6-13.4,20.1c-0.9,8.1-0.8,18.7,3,29
						C2546.8,1887.5,2552.5,1890.7,2558.3,1889.8z"/>
					<linearGradient id="SVGID_24_" gradientUnits="userSpaceOnUse" x1="2591.5969" y1="1804.8777" x2="2594.9902" y2="1477.411">
						<stop  offset="0" style="stop-color:#FEBBBA"/>
						<stop  offset="1" style="stop-color:#FF928E"/>
					</linearGradient>
					<path class="st29" d="M2551.3,1877.5c-1.4,0-2.7-1-3-2.4c-0.1-0.5-2.6-11.4-1.1-22.4c1.2-8.7,7-16.4,15.2-20
						c15.4-6.7,44.9-18.6,69.8-22.5c1.7-0.3,3.3,0.9,3.6,2.6c0.3,1.7-0.9,3.3-2.6,3.6c-24.2,3.8-53.2,15.4-68.3,22.1
						c-6.2,2.7-10.6,8.5-11.5,15.1c-1.4,9.9,1,20,1,20.1c0.4,1.7-0.7,3.3-2.3,3.7C2551.8,1877.4,2551.6,1877.5,2551.3,1877.5z"/>
					<linearGradient id="SVGID_25_" gradientUnits="userSpaceOnUse" x1="2692.884" y1="1875.4662" x2="2758.49" y2="2230.6448">
						<stop  offset="0" style="stop-color:#FE7062"/>
						<stop  offset="1" style="stop-color:#FF928E"/>
					</linearGradient>
					<path class="st30" d="M2404.8,1969c92-13,489.9-68.1,607.5-69c10.1-0.1,19.2,6.2,22.6,15.7c10.8,30,33.8,100.1,41.2,171.5
						c1,9.7-5,18.8-14.4,21.8l-257.8,83.8l-93.9,12l-288.7-19.9c-10.2-0.7-18.6-8.2-20.4-18.2c-6.4-35.6-20-119.3-17.3-174.6
						C2384.2,1980.4,2393,1970.7,2404.8,1969z"/>
					<path class="st0" d="M2709.3,2183C2709.3,2183,2709.3,2183,2709.3,2183l-9.4-0.6c-0.6,0-1.1-0.6-1.1-1.2c0-0.6,0.6-1.1,1.2-1.1
						l9.3,0.6c0,0,0,0,0,0c0.1,0,0.2-0.1,0.3-0.1l9.2-1.2c0.7-0.1,1.2,0.4,1.3,1c0.1,0.6-0.4,1.2-1,1.3l-9.2,1.2c-0.1,0-0.2,0-0.3,0
						C2709.6,2183,2709.5,2183,2709.3,2183z M2678.3,2180.9C2678.3,2180.9,2678.3,2180.9,2678.3,2180.9l-9.4-0.6
						c-0.6,0-1.1-0.6-1.1-1.2c0-0.6,0.6-1.1,1.2-1.1l9.3,0.6c0.6,0,1.1,0.6,1.1,1.2C2679.4,2180.4,2678.9,2180.9,2678.3,2180.9z
						 M2740.7,2179c-0.6,0-1.1-0.4-1.2-1c-0.1-0.6,0.4-1.2,1-1.3l9.2-1.2c0.7-0.1,1.2,0.4,1.3,1c0.1,0.6-0.4,1.2-1,1.3l-9.2,1.2
						C2740.8,2179,2740.7,2179,2740.7,2179z M2647.3,2178.7C2647.3,2178.7,2647.3,2178.7,2647.3,2178.7l-9.4-0.6
						c-0.6,0-1.1-0.6-1.1-1.2c0-0.6,0.6-1.1,1.2-1.1l9.3,0.6c0.6,0,1.1,0.6,1.1,1.2C2648.4,2178.2,2647.9,2178.7,2647.3,2178.7z
						 M2616.3,2176.6C2616.3,2176.6,2616.2,2176.6,2616.3,2176.6l-9.4-0.6c-0.6,0-1.1-0.6-1.1-1.2c0-0.6,0.6-1.1,1.2-1.1l9.3,0.6
						c0.6,0,1.1,0.6,1.1,1.2C2617.4,2176.1,2616.9,2176.6,2616.3,2176.6z M2771.5,2175c-0.6,0-1.1-0.4-1.2-1c-0.1-0.6,0.4-1.2,1-1.3
						l9.2-1.2c0.7-0.1,1.2,0.4,1.3,1c0.1,0.6-0.4,1.2-1,1.3l-9.2,1.2C2771.6,2175,2771.6,2175,2771.5,2175z M2585.3,2174.4
						C2585.3,2174.4,2585.2,2174.4,2585.3,2174.4l-9.4-0.6c-0.6,0-1.1-0.6-1.1-1.2c0-0.6,0.6-1.1,1.2-1.1l9.3,0.6
						c0.6,0,1.1,0.6,1.1,1.2C2586.4,2174,2585.9,2174.4,2585.3,2174.4z M2554.3,2172.3C2554.3,2172.3,2554.2,2172.3,2554.3,2172.3
						l-9.4-0.6c-0.6,0-1.1-0.6-1.1-1.2c0-0.6,0.6-1.1,1.2-1.1l9.3,0.6c0.6,0,1.1,0.6,1.1,1.2
						C2555.4,2171.8,2554.9,2172.3,2554.3,2172.3z M2802.2,2170.4c-0.5,0-0.9-0.3-1.1-0.8c-0.2-0.6,0.1-1.3,0.7-1.5l8.9-2.9
						c0.6-0.2,1.3,0.1,1.5,0.7c0.2,0.6-0.1,1.3-0.7,1.5l-8.9,2.9C2802.4,2170.4,2802.3,2170.4,2802.2,2170.4z M2523.3,2170.1
						C2523.2,2170.1,2523.2,2170.1,2523.3,2170.1l-9.4-0.6c-0.6,0-1.1-0.6-1.1-1.2c0-0.6,0.6-1.1,1.2-1.1l9.3,0.6
						c0.6,0,1.1,0.6,1.1,1.2C2524.4,2169.7,2523.9,2170.1,2523.3,2170.1z M2492.3,2168C2492.2,2168,2492.2,2168,2492.3,2168
						l-9.4-0.6c-0.6,0-1.1-0.6-1.1-1.2c0-0.6,0.7-1.1,1.2-1.1l9.3,0.6c0.6,0,1.1,0.6,1.1,1.2C2493.4,2167.5,2492.9,2168,2492.3,2168
						z M2461.3,2165.9C2461.2,2165.9,2461.2,2165.9,2461.3,2165.9l-9.4-0.6c-0.6,0-1.1-0.6-1.1-1.2c0-0.6,0.6-1.1,1.2-1.1l9.3,0.6
						c0.6,0,1.1,0.6,1.1,1.2C2462.4,2165.4,2461.9,2165.9,2461.3,2165.9z M2430.3,2163.7C2430.2,2163.7,2430.2,2163.7,2430.3,2163.7
						l-7.8-0.5l-0.6-3.3c-0.1-0.6,0.3-1.2,0.9-1.4c0.7-0.1,1.2,0.3,1.4,0.9l0.3,1.5l6,0.4c0.6,0,1.1,0.6,1.1,1.2
						C2431.4,2163.3,2430.9,2163.7,2430.3,2163.7z M2831.8,2160.8c-0.5,0-0.9-0.3-1.1-0.8c-0.2-0.6,0.1-1.3,0.7-1.5l8.9-2.9
						c0.6-0.2,1.3,0.1,1.5,0.7c0.2,0.6-0.1,1.3-0.7,1.5l-8.9,2.9C2832,2160.8,2831.9,2160.8,2831.8,2160.8z M2861.3,2151.2
						c-0.5,0-0.9-0.3-1.1-0.8c-0.2-0.6,0.1-1.3,0.7-1.5l8.9-2.9c0.6-0.2,1.3,0.1,1.5,0.7c0.2,0.6-0.1,1.3-0.7,1.5l-8.9,2.9
						C2861.6,2151.2,2861.4,2151.2,2861.3,2151.2z M2890.9,2141.6c-0.5,0-0.9-0.3-1.1-0.8c-0.2-0.6,0.1-1.3,0.7-1.5l8.9-2.9
						c0.6-0.2,1.3,0.1,1.5,0.7c0.2,0.6-0.1,1.3-0.7,1.5l-8.9,2.9C2891.1,2141.6,2891,2141.6,2890.9,2141.6z M2419.3,2139.4
						c-0.6,0-1.1-0.4-1.1-1c-0.5-3-1-6-1.5-9.2c-0.1-0.6,0.3-1.2,1-1.3c0.6-0.1,1.2,0.3,1.3,1c0.5,3.2,1,6.3,1.5,9.2
						c0.1,0.6-0.3,1.2-1,1.3C2419.4,2139.4,2419.4,2139.4,2419.3,2139.4z M2920.4,2132c-0.5,0-0.9-0.3-1.1-0.8
						c-0.2-0.6,0.1-1.3,0.7-1.5l8.9-2.9c0.6-0.2,1.3,0.1,1.5,0.7c0.2,0.6-0.1,1.3-0.7,1.5l-8.9,2.9
						C2920.7,2132,2920.6,2132,2920.4,2132z M2950,2122.4c-0.5,0-0.9-0.3-1.1-0.8c-0.2-0.6,0.1-1.3,0.7-1.5l8.9-2.9
						c0.6-0.2,1.3,0.1,1.5,0.7c0.2,0.6-0.1,1.3-0.7,1.5l-8.9,2.9C2950.2,2122.4,2950.1,2122.4,2950,2122.4z M2979.6,2112.8
						c-0.5,0-0.9-0.3-1.1-0.8c-0.2-0.6,0.1-1.3,0.7-1.5l8.9-2.9c0.6-0.2,1.3,0.1,1.5,0.7c0.2,0.6-0.1,1.3-0.7,1.5l-8.9,2.9
						C2979.8,2112.8,2979.7,2112.8,2979.6,2112.8z M2414.7,2108.6c-0.6,0-1.1-0.4-1.2-1c-0.4-3-0.8-6.1-1.3-9.3
						c-0.1-0.6,0.4-1.2,1-1.3c0.6-0.1,1.2,0.4,1.3,1c0.4,3.1,0.8,6.2,1.3,9.2c0.1,0.6-0.4,1.2-1,1.3
						C2414.8,2108.6,2414.7,2108.6,2414.7,2108.6z M3009.1,2103.2c-0.5,0-0.9-0.3-1.1-0.8c-0.2-0.6,0.1-1.3,0.7-1.5l8.9-2.9
						c0.6-0.2,1.3,0.1,1.5,0.7c0.2,0.6-0.1,1.3-0.7,1.5l-8.9,2.9C3009.4,2103.2,3009.2,2103.2,3009.1,2103.2z M3038.7,2093.6
						c-0.5,0-0.9-0.3-1.1-0.8c-0.2-0.6,0.1-1.3,0.7-1.5l8.9-2.9c0.6-0.2,1.3,0.1,1.5,0.7c0.2,0.6-0.1,1.3-0.7,1.5l-8.9,2.9
						C3038.9,2093.6,3038.8,2093.6,3038.7,2093.6z M2410.8,2077.8c-0.6,0-1.1-0.4-1.2-1c-0.3-3.1-0.7-6.2-1-9.3
						c-0.1-0.6,0.4-1.2,1-1.3c0.7-0.1,1.2,0.4,1.3,1c0.3,3.1,0.7,6.2,1,9.3c0.1,0.6-0.4,1.2-1,1.3
						C2410.8,2077.8,2410.8,2077.8,2410.8,2077.8z M3051.1,2073.1c-0.6,0-1.1-0.4-1.2-1c-0.4-3.1-0.9-6.1-1.4-9.2
						c-0.1-0.6,0.3-1.2,1-1.3c0.6-0.1,1.2,0.3,1.3,1c0.5,3.1,0.9,6.2,1.4,9.2c0.1,0.6-0.4,1.2-1,1.3
						C3051.2,2073.1,3051.1,2073.1,3051.1,2073.1z M2407.8,2046.8c-0.6,0-1.1-0.5-1.2-1.1c-0.2-3.1-0.4-6.2-0.6-9.3
						c0-0.6,0.5-1.2,1.1-1.2c0.7-0.1,1.2,0.5,1.2,1.1c0.2,3.1,0.4,6.2,0.6,9.3C2409,2046.2,2408.5,2046.7,2407.8,2046.8
						C2407.9,2046.8,2407.8,2046.8,2407.8,2046.8z M3045.9,2042.4c-0.5,0-1-0.4-1.1-0.9c-0.6-3.1-1.2-6.1-1.8-9.1
						c-0.1-0.6,0.3-1.2,0.9-1.4c0.6-0.1,1.2,0.3,1.4,0.9c0.6,3,1.2,6.1,1.8,9.2c0.1,0.6-0.3,1.2-0.9,1.4
						C3046.1,2042.4,3046,2042.4,3045.9,2042.4z M2406.3,2015.7c-0.6,0-1.2-0.5-1.2-1.1c0-2.2-0.1-4.5-0.1-6.7l0-2.7
						c0-0.6,0.5-1.2,1.2-1.2c0.7,0,1.2,0.5,1.2,1.2l0,2.7c0,2.2,0,4.4,0.1,6.6C2407.5,2015.2,2407,2015.7,2406.3,2015.7
						C2406.3,2015.7,2406.3,2015.7,2406.3,2015.7z M3039.3,2012c-0.5,0-1-0.4-1.1-0.9c-0.7-3.1-1.5-6.1-2.2-9
						c-0.2-0.6,0.2-1.3,0.8-1.4c0.6-0.2,1.3,0.2,1.4,0.8c0.8,3,1.5,6,2.2,9.1c0.1,0.6-0.2,1.3-0.9,1.4
						C3039.5,2012,3039.4,2012,3039.3,2012z M2415.4,1991.9c-0.6,0-1.1-0.4-1.2-1c-0.1-0.6,0.4-1.2,1-1.3l9.2-1.3
						c0.7-0.1,1.2,0.4,1.3,1c0.1,0.6-0.4,1.2-1,1.3l-9.2,1.3C2415.6,1991.9,2415.5,1991.9,2415.4,1991.9z M2446.2,1987.6
						c-0.6,0-1.1-0.4-1.2-1c-0.1-0.6,0.4-1.2,1-1.3l9.2-1.3c0.6-0.1,1.2,0.4,1.3,1c0.1,0.6-0.4,1.2-1,1.3l-9.2,1.3
						C2446.4,1987.6,2446.3,1987.6,2446.2,1987.6z M2477.1,1983.3c-0.6,0-1.1-0.4-1.2-1c-0.1-0.6,0.4-1.2,1-1.3l9.2-1.3
						c0.7-0.1,1.2,0.4,1.3,1c0.1,0.6-0.4,1.2-1,1.3l-9.2,1.3C2477.2,1983.3,2477.1,1983.3,2477.1,1983.3z M3031.5,1981.9
						c-0.5,0-1-0.3-1.1-0.9c-0.9-3.1-1.7-6-2.6-9c-0.2-0.6,0.2-1.3,0.8-1.4c0.6-0.2,1.3,0.2,1.4,0.8c0.9,2.9,1.7,5.9,2.6,9
						c0.2,0.6-0.2,1.3-0.8,1.4C3031.7,1981.9,3031.6,1981.9,3031.5,1981.9z M2507.9,1979.1c-0.6,0-1.1-0.4-1.2-1
						c-0.1-0.6,0.4-1.2,1-1.3l9.2-1.3c0.6-0.1,1.2,0.4,1.3,1c0.1,0.6-0.4,1.2-1,1.3l-9.2,1.3
						C2508,1979.1,2507.9,1979.1,2507.9,1979.1z M2538.7,1975c-0.6,0-1.1-0.4-1.2-1c-0.1-0.6,0.4-1.2,1-1.3l9.2-1.2
						c0.6-0.1,1.2,0.4,1.3,1c0.1,0.6-0.4,1.2-1,1.3l-9.2,1.2C2538.8,1975,2538.7,1975,2538.7,1975z M2569.5,1970.9
						c-0.6,0-1.1-0.4-1.2-1c-0.1-0.6,0.4-1.2,1-1.3l9.2-1.2c0.7-0.1,1.2,0.4,1.3,1c0.1,0.6-0.4,1.2-1,1.3l-9.2,1.2
						C2569.6,1970.9,2569.5,1970.9,2569.5,1970.9z M2600.3,1966.8c-0.6,0-1.1-0.4-1.2-1c-0.1-0.6,0.4-1.2,1-1.3l9.3-1.2
						c0.6-0.1,1.2,0.4,1.3,1c0.1,0.6-0.4,1.2-1,1.3l-9.2,1.2C2600.4,1966.8,2600.4,1966.8,2600.3,1966.8z M2631.1,1962.8
						c-0.6,0-1.1-0.4-1.2-1c-0.1-0.6,0.4-1.2,1-1.3l9.2-1.2c0.6,0,1.3,0.5,1.3,1.2c0,0.6-0.4,1.2-1.1,1.2l-9.1,1.2
						C2631.2,1962.8,2631.2,1962.8,2631.1,1962.8z M2662,1958.9c-0.6,0-1.1-0.4-1.2-1c-0.1-0.6,0.4-1.2,1-1.3l9.2-1.2
						c0.7-0.1,1.2,0.4,1.3,1c0.1,0.6-0.4,1.2-1,1.3l-9.2,1.2C2662.1,1958.9,2662,1958.9,2662,1958.9z M2692.8,1955
						c-0.6,0-1.1-0.4-1.2-1c-0.1-0.6,0.4-1.2,1-1.3l9.3-1.1c0.7-0.1,1.2,0.4,1.3,1c0.1,0.6-0.4,1.2-1,1.3l-9.3,1.1
						C2692.9,1955,2692.9,1955,2692.8,1955z M3022.5,1952.2c-0.5,0-1-0.3-1.1-0.8c-1-3.1-2-6.1-2.9-8.9c-0.2-0.6,0.1-1.3,0.7-1.5
						c0.6-0.2,1.3,0.1,1.5,0.7c0.9,2.8,1.9,5.8,2.9,8.9c0.2,0.6-0.1,1.3-0.8,1.5C3022.8,1952.1,3022.7,1952.2,3022.5,1952.2z
						 M2723.7,1951.2c-0.6,0-1.1-0.4-1.2-1c-0.1-0.6,0.4-1.2,1-1.3l9.3-1.1c0.6-0.1,1.2,0.4,1.3,1s-0.4,1.2-1,1.3l-9.3,1.1
						C2723.8,1951.2,2723.7,1951.2,2723.7,1951.2z M2754.5,1947.5c-0.6,0-1.1-0.4-1.2-1c-0.1-0.6,0.4-1.2,1-1.3l9.3-1.1
						c0.6-0.1,1.2,0.4,1.3,1c0.1,0.6-0.4,1.2-1,1.3l-9.3,1.1C2754.6,1947.5,2754.6,1947.5,2754.5,1947.5z M2785.4,1943.9
						c-0.6,0-1.1-0.4-1.2-1c-0.1-0.6,0.4-1.2,1-1.3l9.3-1.1c0.7-0.1,1.2,0.4,1.3,1c0.1,0.6-0.4,1.2-1,1.3l-9.3,1.1
						C2785.5,1943.9,2785.4,1943.9,2785.4,1943.9z M2816.3,1940.4c-0.6,0-1.1-0.4-1.2-1c-0.1-0.6,0.4-1.2,1-1.3l9.3-1
						c0.7-0.1,1.2,0.4,1.3,1c0.1,0.6-0.4,1.2-1,1.3l-9.3,1C2816.4,1940.4,2816.3,1940.4,2816.3,1940.4z M2847.2,1937
						c-0.6,0-1.1-0.4-1.2-1c-0.1-0.6,0.4-1.2,1-1.3l9.3-1c0.7-0.1,1.2,0.4,1.3,1c0.1,0.6-0.4,1.2-1,1.3l-9.3,1
						C2847.3,1937,2847.2,1937,2847.2,1937z M2878.1,1933.8c-0.6,0-1.1-0.4-1.2-1c-0.1-0.6,0.4-1.2,1-1.3l9.3-0.9
						c0.6-0.1,1.2,0.4,1.3,1c0.1,0.6-0.4,1.2-1,1.3l-9.3,0.9C2878.2,1933.8,2878.1,1933.8,2878.1,1933.8z M2909,1930.9
						c-0.6,0-1.1-0.5-1.2-1.1c-0.1-0.6,0.4-1.2,1.1-1.3l9.3-0.8c0.6-0.1,1.2,0.4,1.3,1.1c0.1,0.6-0.4,1.2-1.1,1.3l-9.3,0.8
						C2909.1,1930.8,2909.1,1930.9,2909,1930.9z M2940,1928.1c-0.6,0-1.1-0.5-1.2-1.1c0-0.6,0.4-1.2,1.1-1.3
						c3.2-0.3,6.3-0.5,9.3-0.7c0.6-0.1,1.2,0.4,1.3,1.1c0,0.6-0.4,1.2-1.1,1.3C2946.4,1927.6,2943.3,1927.9,2940,1928.1
						C2940.1,1928.1,2940,1928.1,2940,1928.1z M2971,1925.9c-0.6,0-1.1-0.5-1.2-1.1c0-0.6,0.4-1.2,1.1-1.2c3.2-0.2,6.3-0.4,9.3-0.6
						c0.8-0.1,1.2,0.5,1.2,1.1c0,0.6-0.5,1.2-1.1,1.2C2977.4,1925.5,2974.3,1925.7,2971,1925.9
						C2971.1,1925.9,2971,1925.9,2971,1925.9z M3002.1,1924.3c-0.6,0-1.1-0.5-1.2-1.1c0-0.6,0.5-1.2,1.1-1.2
						c3.3-0.1,6.4-0.2,9.3-0.2c0,0,0,0,0,0c0.6,0,1.2,0.5,1.2,1.2c0,0.6-0.5,1.2-1.2,1.2C3008.5,1924.2,3005.4,1924.2,3002.1,1924.3
						C3002.1,1924.3,3002.1,1924.3,3002.1,1924.3z"/>
					<linearGradient id="SVGID_26_" gradientUnits="userSpaceOnUse" x1="2705.1924" y1="2268.437" x2="2827.3562" y2="2002.0518">
						<stop  offset="0" style="stop-color:#E1473D"/>
						<stop  offset="1" style="stop-color:#E9605A"/>
					</linearGradient>
					<path class="st31" d="M2800.1,2233.4l-82.2,10.5c-10.8,1.4-20.9-5.5-23.5-16l-19.6-77.9c-3.1-12.4,5.3-24.8,18.1-26.4
						l98.8-12.6c12.5-1.6,23.7,7.8,24.1,20.3l3.1,80C2819.2,2222.4,2811.1,2232,2800.1,2233.4z"/>
					<linearGradient id="SVGID_27_" gradientUnits="userSpaceOnUse" x1="2808.1633" y1="1904.8582" x2="2714.8435" y2="2323.9475">
						<stop  offset="0" style="stop-color:#FE7062"/>
						<stop  offset="1" style="stop-color:#FF928E"/>
					</linearGradient>
					<path class="st32" d="M2788.1,2220.2l-62.6,8c-8.2,1-15.9-4.2-17.9-12.2l-14.9-59.3c-2.4-9.4,4.1-18.8,13.8-20.1l75.2-9.6
						c9.5-1.2,18,5.9,18.4,15.5l2.3,60.9C2802.7,2211.8,2796.5,2219.1,2788.1,2220.2z"/>
				</g>
				<linearGradient id="SVGID_28_" gradientUnits="userSpaceOnUse" x1="2813.1765" y1="1634.3888" x2="2603.0977" y2="2038.3867">
					<stop  offset="0" style="stop-color:#FEBBBA"/>
					<stop  offset="1" style="stop-color:#FF928E"/>
				</linearGradient>
				<path class="st33" d="M2739.2,1589.6c19.4,80.1,19.9,158.6,17,187.1c-1.1,10.8-9.8,19.2-20.6,19.9c-12.3,0.9-28.9,2-43.9,2.8
					c-16.4,0.9-34.6-9.4-46.8-18.1c-6.2-4.4-14.2,2.5-10.8,9.3c6,11.7,16.4,20.9,26.7,28.7c6.2,4.7,26.8,13.1,25.4,22.4
					c-0.5,2.9-2.2,5.5-4.1,7.7c-11.4,13.7-28.8,21.1-45.9,26.3c-2.1,0.7-4.4,1.4-5.9,3c-0.4,11.1,33.6,23.3,42.4,26.3
					c13.2,4.4,27.1,6.2,40.9,4.8c34.2-3.6,65.8-27.2,84.3-55.7c49.3-76.1,74.7-168.1,84.1-238.4
					C2836,1569.9,2766.9,1581.5,2739.2,1589.6z"/>
				<g>
					<linearGradient id="SVGID_29_" gradientUnits="userSpaceOnUse" x1="3072.197" y1="725.0829" x2="2558.1179" y2="1819.4099">
						<stop  offset="0" style="stop-color:#09005D"/>
						<stop  offset="1" style="stop-color:#1A0F91"/>
					</linearGradient>
					<path class="st34" d="M2881.9,1623c36.6-276.1-176.2-488.5-176.2-488.5L2579,1282.1c96.1,119.8,141.8,229.6,162.7,315.8
						C2769.4,1589.9,2836,1577.1,2881.9,1623z"/>
					<linearGradient id="SVGID_30_" gradientUnits="userSpaceOnUse" x1="4252.6143" y1="-373.3987" x2="2921.9709" y2="1131.5669">
						<stop  offset="0" style="stop-color:#4F52FF"/>
						<stop  offset="1" style="stop-color:#4042E2"/>
					</linearGradient>
					<path class="st35" d="M2738.7,1596.6c-3.5,0-6.7-2.4-7.6-6c-25.7-106.3-80-211.5-161.2-312.8c-2.7-3.4-2.2-8.3,1.2-11
						c3.4-2.7,8.3-2.2,11,1.2c82.7,103.1,137.9,210.3,164.2,318.9c1,4.2-1.6,8.4-5.8,9.5C2739.9,1596.5,2739.3,1596.6,2738.7,1596.6
						z"/>
				</g>
			</g>
			<g>
				<g>
					
						<linearGradient id="SVGID_31_" gradientUnits="userSpaceOnUse" x1="-446.8647" y1="3169.1782" x2="-266.0768" y2="3169.1782" gradientTransform="matrix(1 0 0 1 1290.1023 0)">
						<stop  offset="0" style="stop-color:#09005D"/>
						<stop  offset="1" style="stop-color:#1A0F91"/>
					</linearGradient>
					<path class="st36" d="M1024,3233.6c0-1.3-0.1-2.7-0.4-4.1c-20.4-80.7-121.4-131-121.4-131l-40,3.1
						c-23,71.2-20.1,114.8-16.4,134.2c0.1,0.5,0.3,1.1,0.4,1.6C879.2,3240.4,947.2,3242.3,1024,3233.6z"/>
					
						<linearGradient id="SVGID_32_" gradientUnits="userSpaceOnUse" x1="5.7288" y1="2955.8994" x2="-651.9837" y2="3472.3372" gradientTransform="matrix(1 0 0 1 1290.1023 0)">
						<stop  offset="0" style="stop-color:#4F52FF"/>
						<stop  offset="1" style="stop-color:#4042E2"/>
					</linearGradient>
					<path class="st37" d="M846.2,3237.4c1.8,6.5,6.6,11.5,12.7,12.8c47,9.9,121.7,1.9,153-2.2c6.9-0.9,12-7.3,12.1-14.5
						C947.2,3242.3,879.2,3240.4,846.2,3237.4z"/>
					
						<linearGradient id="SVGID_33_" gradientUnits="userSpaceOnUse" x1="-396.5894" y1="2963.3594" x2="-431.1229" y2="3264.7441" gradientTransform="matrix(1 0 0 1 1290.1023 0)">
						<stop  offset="0" style="stop-color:#FEBBBA"/>
						<stop  offset="1" style="stop-color:#FF928E"/>
					</linearGradient>
					<path class="st38" d="M846,3041.9l17,81.7c1.2,6,5.8,10.5,11.4,11c6.8,0.6,16.5,1,26.3-0.4c8.7-1.3,14.8-10.2,13.3-19.7
						l-11.8-72.5H846z"/>
					
						<linearGradient id="SVGID_34_" gradientUnits="userSpaceOnUse" x1="122.5676" y1="3104.4863" x2="-535.1456" y2="3620.9246" gradientTransform="matrix(1 0 0 1 1290.1023 0)">
						<stop  offset="0" style="stop-color:#4F52FF"/>
						<stop  offset="1" style="stop-color:#4042E2"/>
					</linearGradient>
					<path class="st39" d="M1197.5,3236.4c-44.2-1.2-67.1-6.4-78.9-11.3c0,4.4,0,8.9,0.1,13.5c0.2,5,3.8,8.9,8.3,8.9l242.8-1.6
						c7.8,0,12.3-9,8.9-16.1C1346.9,3232.4,1265.8,3238.3,1197.5,3236.4z"/>
					
						<linearGradient id="SVGID_35_" gradientUnits="userSpaceOnUse" x1="-171.5728" y1="3173.7732" x2="88.6691" y2="3173.7732" gradientTransform="matrix(1 0 0 1 1290.1023 0)">
						<stop  offset="0" style="stop-color:#09005D"/>
						<stop  offset="1" style="stop-color:#1A0F91"/>
					</linearGradient>
					<path class="st40" d="M1378.8,3229.8c-0.3-0.6-0.5-1.2-1-1.8c-21.4-30-76.1-89.6-184-115.5l-51.8-1.6c0,0-23.1,40.1-23.5,114.3
						c11.8,4.8,34.7,10,78.9,11.3C1265.8,3238.3,1346.9,3232.4,1378.8,3229.8z"/>
					
						<linearGradient id="SVGID_36_" gradientUnits="userSpaceOnUse" x1="-7.721" y1="2934.8098" x2="-42.2551" y2="3236.2" gradientTransform="matrix(0.998 -6.290000e-02 6.290000e-02 0.998 993.2088 65.7657)">
						<stop  offset="0" style="stop-color:#FEBBBA"/>
						<stop  offset="1" style="stop-color:#FF928E"/>
					</linearGradient>
					<path class="st41" d="M1130.1,3034.7c0.8,3.8,11.6,61.9,15.8,84.4c1,5.4,5.2,9.3,10.1,9.6c8.9,0.5,23.2,0.6,35.5-2.8
						c6.6-1.8,11.1-8.6,10.6-16.1l-5.8-91.9L1130.1,3034.7z"/>
					<linearGradient id="SVGID_37_" gradientUnits="userSpaceOnUse" x1="883.9796" y1="3308.0017" x2="1139.6484" y2="1436.959">
						<stop  offset="0" style="stop-color:#09005D"/>
						<stop  offset="1" style="stop-color:#1A0F91"/>
					</linearGradient>
					<path class="st42" d="M1090.9,1962c0,0,71.2,489.5,122.6,1071.9c1,10.8-7.7,20.3-18.3,22.5c-15.7,3.3-38.8,7.2-57.9,6.7
						c-10.2-0.3-18.7-7.9-20.4-17.9c-17.5-102.7-142.5-653.8-175.3-775.1c0,0-37.7,515.3-25.6,782.6c0.3,6.6-4.6,12.4-11.2,13.2
						c-10,1.2-26.1,2-46.5-0.1c-7.7-0.8-14-6.7-15.1-14.4c-12.5-86.9-84.3-604.3-81.2-976.9c0.2-21,24.7-193.7,24.7-193.7
						L1090.9,1962z"/>
				</g>
				
					<linearGradient id="SVGID_38_" gradientUnits="userSpaceOnUse" x1="409.1129" y1="1065.248" x2="-612.6227" y2="2412.8826" gradientTransform="matrix(0.991 -0.1339 0.1339 0.991 690.6002 157.8111)">
					<stop  offset="0" style="stop-color:#FE7062"/>
					<stop  offset="1" style="stop-color:#FF928E"/>
				</linearGradient>
				<path class="st43" d="M775.9,1990.2c-7.3-2.6-12.4-9.2-13.2-17c-9.5-91.9-55.3-661.7,234.2-896.1c0,0,16.6-43.4,153.1,63.3
					c136.5,106.8,63.4,218.7,30.7,373.1c-39.5,186.8-108.9,339.5-78.2,454.5c2.1,7.9-2.1,16.3-9.8,19.1
					C986.7,2026.3,881.1,2027.6,775.9,1990.2z"/>
				<linearGradient id="SVGID_39_" gradientUnits="userSpaceOnUse" x1="956.4192" y1="1203.0057" x2="1229.6459" y2="898.2532">
					<stop  offset="0" style="stop-color:#FEBBBA"/>
					<stop  offset="1" style="stop-color:#FF928E"/>
				</linearGradient>
				<path class="st44" d="M1109.8,906.4c-0.1,8.1-115.7,172.3-115.7,172.3s20.8,40.9,119.8,74.1l85.5-175.8L1109.8,906.4z"/>
				<g>
					<linearGradient id="SVGID_40_" gradientUnits="userSpaceOnUse" x1="1115.7759" y1="982.3765" x2="1248.8856" y2="794.9719">
						<stop  offset="0" style="stop-color:#FEBBBA"/>
						<stop  offset="1" style="stop-color:#FF928E"/>
					</linearGradient>
					<path class="st45" d="M1200.9,812.3c0,0,41.1,94.5,43.9,144.1c2.8,49.6,13.5,81.8-43.9,91.8c-57.4,10-105.7-18.6-131.8-68
						c0,0-41-76.1-31.8-107.3C1046.4,841.7,1200.9,812.3,1200.9,812.3z"/>
					<linearGradient id="SVGID_41_" gradientUnits="userSpaceOnUse" x1="961.4276" y1="664.9789" x2="1159.7286" y2="897.2359">
						<stop  offset="0" style="stop-color:#09005D"/>
						<stop  offset="1" style="stop-color:#1A0F91"/>
					</linearGradient>
					<path class="st46" d="M1088.6,944.7l3.3-1.4c4.2-1.8,5.9-6.8,3.8-10.8c-8.1-15.6-23.9-51.4-3.5-59.8
						c26.2-10.8,130.2-32,152.7-68.9c21.6-35.5,2.5-81.2-26.3-94.2c-1.9-0.9-4.2-0.2-5.2,1.7l-2.4,4.5c-1.6,3.1-6.2,2.6-7.2-0.7l0,0
						c-0.9-3.2-5.2-3.9-7-1c-6.9,11-25.5,28.9-75.3,38.1c-70.8,13.1-117.5,41.7-118.7,90.6c-0.1,3.1-3.4,4.8-6,3.2
						c-5.2-3.2-13.6-4.7-24.8,4.7c-19.4,16.3-11.5,58.7,31.1,93.6c2,1.7,2,4.8-0.2,6.2c-7.7,5-19.2,17,10.6,32.9
						c30.9,16.5,53.9,15.1,62.8,13.7c2.2-0.4,3.6-2.5,3.1-4.7l-9.5-43c-0.5-2.4,1.3-4.7,3.8-4.7H1088.6z"/>
					<linearGradient id="SVGID_42_" gradientUnits="userSpaceOnUse" x1="1064.2142" y1="945.7532" x2="1197.3243" y2="758.348">
						<stop  offset="0" style="stop-color:#FEBBBA"/>
						<stop  offset="1" style="stop-color:#FF928E"/>
					</linearGradient>
					<path class="st47" d="M1090.4,953.7c0,0-15.7-60.4-42.8-43.4c-27.1,16.9,14,67.6,35.8,69.9L1090.4,953.7z"/>
				</g>
				<g>
					<linearGradient id="SVGID_43_" gradientUnits="userSpaceOnUse" x1="1288.2631" y1="1247.0511" x2="1119.7975" y2="1418.9547">
						<stop  offset="0" style="stop-color:#FE7062"/>
						<stop  offset="1" style="stop-color:#FF928E"/>
					</linearGradient>
					<path class="st48" d="M1193.9,1190l8,214.1c22.6,7.8,44.2,13.9,64.7,18.4c12.8-41.3,41.1-92.1,64.3-129.8
						C1245.8,1262.6,1193.9,1190,1193.9,1190z"/>
					<linearGradient id="SVGID_44_" gradientUnits="userSpaceOnUse" x1="1772.5782" y1="1168.4004" x2="1268.0394" y2="1419.3805">
						<stop  offset="0" style="stop-color:#FEBBBA"/>
						<stop  offset="1" style="stop-color:#FF928E"/>
					</linearGradient>
					<path class="st49" d="M1618.5,1186.4c-116.7,126-211.1,133.4-287.7,106.3c-23.2,37.7-51.4,88.5-64.3,129.8
						c311.6,68.7,385-217.7,385-217.7L1618.5,1186.4z"/>
					<linearGradient id="SVGID_45_" gradientUnits="userSpaceOnUse" x1="1765.1921" y1="1105.4535" x2="1592.6135" y2="1285.7025">
						<stop  offset="0" style="stop-color:#FEBBBA"/>
						<stop  offset="1" style="stop-color:#FF928E"/>
					</linearGradient>
					<path class="st50" d="M1642.2,1173c0,0,13.4-14.4,38.3-9.9s47,13.2,62.5,0c15.5-13.2,20.9,4.5,20.9,4.5l-46.4,35.3L1642.2,1173
						z"/>
					<linearGradient id="SVGID_46_" gradientUnits="userSpaceOnUse" x1="1774.9766" y1="1165.4259" x2="1270.4395" y2="1416.4053">
						<stop  offset="0" style="stop-color:#FEBBBA"/>
						<stop  offset="1" style="stop-color:#FF928E"/>
					</linearGradient>
					<path class="st51" d="M1614.4,1197.7c0,0,9.2-38.5,37-33.2c27.8,5.3,90.8,39.5,107,33.2c16.2-6.3,37-21.4,47.7-16.1l-18.8,23.3
						c0,0,48.2-27.8,56.5-10.7l-80.3,45.2C1763.6,1239.4,1646.1,1227.6,1614.4,1197.7z"/>
				</g>
				<linearGradient id="SVGID_47_" gradientUnits="userSpaceOnUse" x1="1596.9551" y1="1585.1331" x2="958.5526" y2="1335.5524">
					<stop  offset="0" style="stop-color:#FEBBBA"/>
					<stop  offset="1" style="stop-color:#FF928E"/>
				</linearGradient>
				<path class="st52" d="M1064.4,1470.2c0,0,219.4,183.7,456.2,103.6c14.7-5,30.8-3.9,44.5,3.4l68.1,36c28.6,15.1,64,5.2,80.6-22.6
					c9.5-15.8,17.5-33.9,19.1-51.2l-133.2-53.9l9.8-16.3c0,0-65.1-5.5-82.1,41.1c0,0-123.9,51.5-332.9-178.3
					C1194.5,1331.8,1099.6,1412.5,1064.4,1470.2z"/>
				<linearGradient id="SVGID_48_" gradientUnits="userSpaceOnUse" x1="2266.5688" y1="-709.7117" x2="1452.142" y2="620.521">
					<stop  offset="0" style="stop-color:#E1473D"/>
					<stop  offset="1" style="stop-color:#E9605A"/>
				</linearGradient>
				<path class="st53" d="M1052.6,1468.3c-0.7,0-1.5-0.2-2.1-0.6c-92.4-62.4-135.8-163.1-136.2-164.1c-0.8-1.9,0.1-4.1,2-4.9
					c1.9-0.8,4.1,0.1,4.9,2c0.4,1,43.1,99.7,133.5,160.9c1.7,1.2,2.2,3.5,1,5.2C1054.9,1467.8,1053.8,1468.3,1052.6,1468.3z"/>
				<linearGradient id="SVGID_49_" gradientUnits="userSpaceOnUse" x1="2261.7847" y1="-712.6427" x2="1447.3617" y2="617.5834">
					<stop  offset="0" style="stop-color:#E1473D"/>
					<stop  offset="1" style="stop-color:#E9605A"/>
				</linearGradient>
				<path class="st54" d="M1190.1,1328.7c-1.2,0-2.4-0.6-3.2-1.7c-0.3-0.4-28.5-44.4-82.2-140.6c-16.5-29.6-38.2-48.3-64.6-55.7
					c-43.6-12.2-85.6,11.2-86,11.4c-1.8,1-4.1,0.4-5.1-1.4c-1-1.8-0.4-4.1,1.4-5.1c1.8-1,45-25.2,91.6-12.1
					c28.3,7.9,51.6,27.8,69.2,59.3c53.6,96,81.7,139.8,82,140.2c1.1,1.7,0.6,4.1-1.1,5.2C1191.5,1328.5,1190.8,1328.7,1190.1,1328.7
					z"/>
			</g>
		</g>
		<g>
			<g>
				<g>
					
						<ellipse transform="matrix(0.7071 -0.7071 0.7071 0.7071 -839.7303 2050.1453)" class="st3" cx="2054.9" cy="2038.7" rx="174.5" ry="174.5"/>
					<path class="st3" d="M2229,2022.7h-174.1h-174.5c0,0-13.9,100.2,141.8,365.4c6.8,11.6,19.2,20.2,32.6,20.2
						c13.4,0,25.9-9.3,32.6-20.9C2243.2,2122.1,2229,2022.7,2229,2022.7z"/>
				</g>
				<g>
					<path class="st4" d="M2059.1,2415.6v0.8h-4.2c-15.2,0-29.4-8.2-37-21.2c-91-155-124.4-253-136.3-307.8c-3.4-12.6-5.4-25-6-37.6
						c-1.1-13-0.2-18.4-0.2-19l0.5-2.8c7-93.7,85-166.6,179-166.6c95.2,0,173.9,74,179.2,168.4c0.1,1.2,0.4,4.4,0.3,9.6l0,0.6
						c0,17.1-2.4,34.1-7.2,50.4c-12.4,54.8-43.8,151.9-133.2,304.3C2086.3,2407.7,2072.7,2415.6,2059.1,2415.6z M1885.2,2036.3
						c0,0,0,6.8,0.5,12.5l0,0.2c0.6,12,2.4,23.7,5.7,35.7l0.1,0.3c11.8,54.1,44.8,150.9,135.2,304.9c5.8,9.9,18.8,16.1,30.4,16.1
						l2.1,5.1v-5.1c3.4,0,20.8-6.2,26.7-16.2c88.9-151.4,122.6-247.7,132.8-301.7v-0.3c6.8-15.5,6.8-31.5,6.8-47.8l0-0.7v-0.1
						c0-5-0.7-7.8-0.8-8.5l-0.3-0.3c-5-89.2-79.4-159-169.3-159c-89.7,0-164,70.3-169.2,160.3l-0.3,4.7H1885.2z"/>
				</g>
				
					<ellipse transform="matrix(0.7071 -0.7071 0.7071 0.7071 -839.1677 2050.3784)" class="st55" cx="2055.4" cy="2038.2" rx="100.7" ry="100.7"/>
				<g>
					<linearGradient id="SVGID_50_" gradientUnits="userSpaceOnUse" x1="2073.3701" y1="1998.0568" x2="2388.96" y2="1292.2227">
						<stop  offset="0" style="stop-color:#4F52FF"/>
						<stop  offset="1" style="stop-color:#4042E2"/>
					</linearGradient>
					<path class="st56" d="M2055.4,2144.5c-58.6,0-106.4-47.7-106.4-106.4s47.7-106.4,106.4-106.4c58.6,0,106.4,47.7,106.4,106.4
						S2114.1,2144.5,2055.4,2144.5z M2055.4,1943.1c-52.4,0-95.1,42.7-95.1,95.1s42.7,95.1,95.1,95.1c52.4,0,95.1-42.7,95.1-95.1
						S2107.9,1943.1,2055.4,1943.1z"/>
				</g>
			</g>
			<g>
				<path class="st4" d="M1959.9,1933.3c-0.5,0-0.9-0.2-1.3-0.6c-0.6-0.7-0.5-1.8,0.2-2.4c28.3-24.3,64.5-37.7,101.8-37.7
					c0.9,0,1.7,0.8,1.7,1.7c0,0.9-0.8,1.7-1.7,1.7c-36.5,0-71.9,13.1-99.6,36.9C1960.7,1933.1,1960.3,1933.3,1959.9,1933.3z"/>
			</g>
			<g>
				<path class="st4" d="M1905.9,2050.6c-0.9,0-1.7-0.8-1.7-1.7c0-29.2,8.1-57.6,23.4-82.3c0.5-0.8,1.5-1,2.3-0.5
					c0.8,0.5,1,1.5,0.5,2.3c-15,24.1-22.9,52-22.9,80.5C1907.6,2049.9,1906.9,2050.6,1905.9,2050.6z"/>
			</g>
		</g>
	</g>
</g>
</svg>
