<?xml version="1.0" encoding="utf-8"?>
<!-- Generator: Adobe Illustrator 24.1.1, SVG Export Plug-In . SVG Version: 6.00 Build 0)  -->
<svg version="1.1" xmlns="http://www.w3.org/2000/svg" xmlns:xlink="http://www.w3.org/1999/xlink" x="0px" y="0px"
	 viewBox="0 0 500 325.9" style="enable-background:new 0 0 500 325.9;" xml:space="preserve">
<style type="text/css">
	.st0{fill:#FFFFFF;}
	.st1{fill:#E6E6E6;}
	.st2{fill:#E0E0E0;}
	.st3{fill:#FAFAFA;}
	.st4{fill:#F5F5F5;}
	.st5{fill:#F0F0F0;}
	.st6{display:none;}
	.st7{display:inline;}
	.st8{fill:#E58A7B;}
	.st9{fill:#407BFF;}
	.st10{opacity:0.2;}
	.st11{fill:#E8ECF1;}
	.st12{fill:#263238;}
	.st13{fill:#CF6F64;}
	.st14{fill:#DF5753;}
	.st15{opacity:0.56;fill:#FAFAFA;}
	.st16{opacity:7.000000e-02;fill:#407BFF;}
	.st17{opacity:0.47;fill:#407BFF;}
	.st18{opacity:0.1;fill:#FFFFFF;}
	.st19{opacity:0.6;}
	.st20{opacity:0.4;}
	.st21{opacity:0.4;fill:#FFFFFF;}
	.st22{opacity:0.3;fill:#FFFFFF;}
</style>
<g id="background_x5F_color">
	<rect class="st0" width="500" height="325.9"/>
</g>
<g id="Background_complete">
	<g>
		<g>
			<rect x="37.6" y="269.1" class="st1" width="424.7" height="0.2"/>
			<rect x="115.5" y="280.7" class="st1" width="28.1" height="0.2"/>
			<rect x="90.3" y="280.7" class="st1" width="16.3" height="0.2"/>
			<rect x="200.2" y="283.5" class="st1" width="16.3" height="0.2"/>
			<rect x="264.8" y="287.8" class="st1" width="36.7" height="0.2"/>
			<rect x="251.9" y="287.8" class="st1" width="5.4" height="0.2"/>
			<rect x="343.2" y="283.5" class="st1" width="79.6" height="0.2"/>
			<g>
				<path class="st1" d="M239,234.8h-164c-2.7,0-4.8-2-4.8-4.4V22.1c0-2.4,2.2-4.4,4.8-4.4h164c2.7,0,4.8,2,4.8,4.4v208.4
					C243.8,232.9,241.6,234.8,239,234.8z M74.9,17.9c-2.6,0-4.6,1.9-4.6,4.2v208.4c0,2.3,2.1,4.2,4.6,4.2h164c2.6,0,4.6-1.9,4.6-4.2
					V22.1c0-2.3-2.1-4.2-4.6-4.2H74.9z"/>
				<path class="st1" d="M422.7,234.8h-164c-2.7,0-4.8-2-4.8-4.4V22.1c0-2.4,2.2-4.4,4.8-4.4h164c2.7,0,4.8,2,4.8,4.4v208.4
					C427.5,232.9,425.4,234.8,422.7,234.8z M258.7,17.9c-2.6,0-4.6,1.9-4.6,4.2v208.4c0,2.3,2.1,4.2,4.6,4.2h164
					c2.6,0,4.6-1.9,4.6-4.2V22.1c0-2.3-2.1-4.2-4.6-4.2H258.7z"/>
			</g>
		</g>
		<g>
			<rect x="246.1" y="203.5" class="st2" width="18.7" height="67"/>
			<polygon class="st3" points="261.2,270.5 264.8,270.5 264.8,261.4 257.5,261.4 			"/>
			<rect x="164.3" y="203.5" class="st2" width="18.7" height="67"/>
			<rect x="179.8" y="203.5" class="st3" width="84.9" height="61.4"/>
			<path class="st2" d="M261.7,206.5v16.2h-78.8v-16.2H261.7 M262,206.2h-79.4v16.8H262V206.2L262,206.2z"/>
			<polygon class="st3" points="183.4,270.5 179.8,270.5 179.8,261.4 187.1,261.4 			"/>
			<path class="st1" d="M220.4,214.6c0,0.9,0.8,1.7,1.9,1.7c1,0,1.9-0.8,1.9-1.7c0-0.9-0.8-1.7-1.9-1.7
				C221.3,212.9,220.4,213.7,220.4,214.6z"/>
			<path class="st2" d="M261.7,226.1v16.2h-78.8v-16.2H261.7 M262,225.8h-79.4v16.8H262V225.8L262,225.8z"/>
			<path class="st1" d="M220.4,234.2c0,0.9,0.8,1.7,1.9,1.7c1,0,1.9-0.8,1.9-1.7c0-0.9-0.8-1.7-1.9-1.7
				C221.3,232.5,220.4,233.3,220.4,234.2z"/>
			<path class="st2" d="M261.7,245.6v16.2h-78.8v-16.2H261.7 M262,245.3h-79.4v16.8H262V245.3L262,245.3z"/>
			<path class="st1" d="M220.4,253.7c0,0.9,0.8,1.7,1.9,1.7c1,0,1.9-0.8,1.9-1.7c0-0.9-0.8-1.7-1.9-1.7
				C221.3,252,220.4,252.8,220.4,253.7z"/>
		</g>
		<g>
			<rect x="152.8" y="164.6" class="st2" width="18.7" height="105.9"/>
			<polygon class="st3" points="168,270.5 171.5,270.5 171.5,261.4 164.3,261.4 			"/>
			<rect x="83" y="164.6" class="st2" width="18.7" height="105.9"/>
			<rect x="98.6" y="164.6" class="st3" width="72.9" height="100.3"/>
			<path class="st2" d="M168.4,167.4v22.7h-66.6v-22.7H168.4 M168.8,167.1h-67.4v23.4h67.4V167.1L168.8,167.1z"/>
			<path class="st2" d="M168.4,192.9v60.2h-31.7v-60.2H168.4 M168.8,192.6h-32.5v60.9h32.5V192.6L168.8,192.6z"/>
			<path class="st2" d="M133.5,192.9v60.2h-31.7v-60.2H133.5 M133.9,192.6h-32.5v60.9h32.5V192.6L133.9,192.6z"/>
			<polygon class="st3" points="102.2,270.5 98.6,270.5 98.6,261.4 105.9,261.4 			"/>
			<path class="st1" d="M133.2,178.8c0,0.9,0.8,1.7,1.9,1.7c1,0,1.9-0.8,1.9-1.7c0-0.9-0.8-1.7-1.9-1.7
				C134,177.1,133.2,177.9,133.2,178.8z"/>
			<path class="st1" d="M139.9,221.6c0,0.9,0.8,1.7,1.9,1.7c1,0,1.9-0.8,1.9-1.7c0-0.9-0.8-1.7-1.9-1.7
				C140.8,219.9,139.9,220.6,139.9,221.6z"/>
			<path class="st1" d="M126.5,221.6c0,0.9,0.8,1.7,1.9,1.7c1,0,1.9-0.8,1.9-1.7c0-0.9-0.8-1.7-1.9-1.7
				C127.3,219.9,126.5,220.6,126.5,221.6z"/>
		</g>
		<path class="st2" d="M124.4,135.1h-7.9c0,0,1.4,6.6,1.4,10.5c0,3.9-6,19.1,2.6,19.1c8.6,0,2.6-15.2,2.6-19.1
			C123,141.7,124.4,135.1,124.4,135.1z"/>
		<path class="st4" d="M94.4,150.7v4.6c0,5.1,4.6,9.3,10.3,9.3h5.1c5.7,0,10.3-4.2,10.3-9.3v-4.6H94.4z"/>
		<path class="st2" d="M203.8,193.7c0,5.4,6.7,9.8,14.8,9.8h7.3c8.1,0,14.8-4.4,14.8-9.8H203.8z"/>
		<g>
			<path class="st2" d="M398.3,185.9c-4.5,3.3-10.6,9.3-16.2,17.8c-3.7,5.6-6,11.5-7,19.3c0-8.8,0.1-18.3,0.1-27.3
				c1.1-2.3,3.7-7.6,5.6-11.8c6.2-14,8.5-17.4,14-29.5c7.4-16.1,15-35.2,12.8-33.7c-4.4,3.1-21.4,31.9-23.3,36
				c-6.3,14.2-8.1,24.5-9.2,34.4c0-8.4,0.1-16.1,0.1-22.1c0.1-19.4,0.5-25.7,0.7-27.6c0.7-1,1.5-2.1,2-2.7c4-5.2,5.5-9.7,9.3-17.4
				c5.3-11,9.9-30.6,8.6-29.6c-5.6,4.1-10,12.9-15.8,24.2c-5.8,11.3-4.1,17.7-5.3,27.3c-0.2,1.9-0.4,9-0.6,18.9
				c-1.5-10.5-4.3-17.4-9.5-23.7c-6.3-7.7-12.4-13-16.9-15.7c-4.5-2.7,7.7,16.3,13.6,24.6c5.2,7.4,10,13.9,12.7,20.3
				c-0.1,13.4-0.2,30.3-0.2,46.1c-1.3-7.2-3.5-14.9-6.5-20.9c-3.5-7.2-8.9-18.2-13.2-22c-1-0.9,4.5,20.5,8,26.2
				c3.6,5.7,6.2,11.1,8.4,14.3c0.5,0.8,2.3,3.7,3.2,5.3c0,19.2,0.1,36.2,0.3,42h0.9c-0.1-1.5-0.1-11.3-0.1-24.2
				c2.2-7,7.3-15.1,11.5-22.4C391.1,204.1,402.8,182.6,398.3,185.9z"/>
			<g>
				<polygon class="st5" points="388,270.5 361.4,270.5 359.3,246.9 390,246.9 				"/>
				<polygon class="st4" points="392,249.6 357.4,249.6 356.4,241.7 393,241.7 				"/>
			</g>
		</g>
		<g>
			<rect x="95.6" y="33.5" class="st2" width="47.6" height="47.3"/>
			<rect x="99.2" y="33.5" class="st4" width="49.2" height="47.3"/>
			
				<rect x="103.9" y="36.6" transform="matrix(-1.836970e-16 1 -1 -1.836970e-16 180.8562 -66.6686)" class="st0" width="39.8" height="40.9"/>
			
				<rect x="113.5" y="46.5" transform="matrix(-1.836970e-16 1 -1 -1.836970e-16 180.8562 -66.6686)" class="st4" width="20.5" height="21.1"/>
		</g>
		<g>
			<g>
				<rect x="341.7" y="39" class="st2" width="44.2" height="43.9"/>
				<rect x="345.1" y="39" class="st4" width="45.7" height="43.9"/>
				
					<rect x="349.4" y="41.9" transform="matrix(-1.836970e-16 1 -1 -1.836970e-16 428.8201 -306.9725)" class="st0" width="37" height="38"/>
			</g>
			<ellipse class="st4" cx="367.9" cy="60.9" rx="11.9" ry="10.7"/>
		</g>
		<g>
			<g>
				<rect x="157.3" y="61.6" class="st2" width="35.3" height="35.1"/>
				<rect x="160" y="61.6" class="st4" width="36.5" height="35.1"/>
				
					<rect x="163.5" y="64" transform="matrix(-1.836970e-16 1 -1 -1.836970e-16 257.4099 -99.0717)" class="st0" width="29.5" height="30.4"/>
				<polygon class="st4" points="178.2,71.7 169.9,84.7 186.5,84.7 				"/>
			</g>
		</g>
	</g>
</g>
<g id="Background_simple" class="st6">
	<g class="st7">
		<path class="st4" d="M134.5,195.9c58.5,60.4,135.5,102.2,206.8,34.6c36.8-34.8,85.3-128.9,37.4-172
			c-66.1-59.3-104,37.8-153.4,50.9c-33.9,9-62.3-43-102.9-8.3C90.4,128.6,110.1,170.8,134.5,195.9z"/>
	</g>
</g>
<g id="Shadow">
	<ellipse class="st4" cx="250" cy="295.1" rx="164.7" ry="8.7"/>
</g>
<g id="Character_2">
	<g>
		<path class="st8" d="M334.3,101l-8.4-3.1c0,0-11.1,18.3-14.3,19.3c-4.3,1.3-13.3,4.8-18.6,5.4c-0.7,0.8-1.9,3.2-1.8,4
			c7.1,2.2,22.8-0.7,26.2-3C325,118.5,334.3,101,334.3,101z"/>
		<g>
			<path class="st9" d="M336.9,96.8c1.6,5.3-6.9,15.8-6.9,15.8l-11.2-5.7c0,0,2.1-4.3,4.6-8.8C327.5,91.1,335.1,90.8,336.9,96.8z"/>
			<path class="st10" d="M336.9,96.8c1.6,5.3-6.9,15.8-6.9,15.8l-11.2-5.7c0,0,2.1-4.3,4.6-8.8C327.5,91.1,335.1,90.8,336.9,96.8z"
				/>
		</g>
		<path class="st10" d="M323.2,109.2l4.4,2.2l0.8-12.2C325.8,101,324,106.4,323.2,109.2z"/>
		<g>
			<path class="st9" d="M329.6,92.9c0,0-8.7,17.5-3.6,50c10.3,0,29.2,0,34.2,0c0.5-4.7-1.3-27.9,5.3-50.3c0,0-5.8-1.1-11.4-1.3
				c-4.4-0.2-10.7-0.3-14.5,0C334.4,91.7,329.6,92.9,329.6,92.9z"/>
			<path class="st10" d="M329.6,92.9c0,0-8.7,17.5-3.6,50c10.3,0,29.2,0,34.2,0c0.5-4.7-1.3-27.9,5.3-50.3c0,0-5.8-1.1-11.4-1.3
				c-4.4-0.2-10.7-0.3-14.5,0C334.4,91.7,329.6,92.9,329.6,92.9z"/>
		</g>
		<path class="st11" d="M321.6,295.8c-0.1,0.8,12.9,1.5,29,1.5s29.1-0.7,29.2-1.5c0.1-0.8-12.9-1.5-29-1.5
			C334.7,294.3,321.7,294.9,321.6,295.8z"/>
		<polygon class="st8" points="350.5,287.3 344.4,289.4 339.2,277.2 345.3,275 		"/>
		<polygon class="st8" points="371.5,289.9 365.1,289.9 362.8,276.5 369.2,276.5 		"/>
		<path class="st12" d="M364.7,289.2l7.2,0c0.3,0,0.5,0.2,0.5,0.4l0.9,5.1c0.1,0.5-0.4,1-1,1c-2.5,0-3.7-0.2-6.9-0.2
			c-1.9,0-6,0.2-8.6,0.2c-2.6,0-2.9-2.4-1.8-2.6c5-1,6.9-2.3,8.6-3.6C363.9,289.3,364.3,289.2,364.7,289.2z"/>
		<path class="st12" d="M343.4,287.2l6.8-1.8c0.3-0.1,0.5,0,0.6,0.2l2.5,4.6c0.3,0.5,0,1.1-0.6,1.2c-2.5,0.6-4.1,1-7.2,1.8
			c-2.1,0.6-4.3,1.5-6.4,2.1c-1.5,0.4-4.9,0.4-6.7,0.4c-2.6,0-3.2-2.5-2.1-2.6c2.8-0.3,3.2-0.2,4.8-0.9c2.6-1.2,4.6-2.2,6.9-4.3
			C342.4,287.6,342.9,287.3,343.4,287.2z"/>
		<path class="st8" d="M294,122.5l-7-2.7l-2.9,7c0,0,4.1,0.7,8.7,0L294,122.5z"/>
		<polygon class="st8" points="281.8,119.7 281.6,124.3 284.1,126.9 287,119.8 		"/>
		<g>
			<polygon class="st13" points="339.2,277.2 341.9,283.5 348,281.3 345.3,275 			"/>
			<polygon class="st13" points="369.2,276.5 362.8,276.5 364,283.4 370.4,283.4 			"/>
		</g>
		<path class="st10" d="M324.9,134c0.1,1.4,0.3,2.8,0.5,4.3l25.4-7.5c4-1.1,7.4-3.3,9.8-6.4c0.1-2.1,0.2-4.2,0.4-6.5
			c0.1-1.1,0.2-2.2,0.3-3.4c0.1-1.2,0.3-2.4,0.4-3.6L324.9,134z"/>
		<path class="st0" d="M333.2,108.9l-0.9-0.1c0.5-3.8,3.7-6.9,7-6.8l0,0.8C336.4,102.7,333.6,105.4,333.2,108.9z"/>
		<path class="st0" d="M337.7,115.9c0,0-0.1,0-0.1,0l0-0.8c2.9,0.1,5.7-2.7,6.1-6.1l0.9,0.1C344.1,112.9,341,115.9,337.7,115.9z"/>
		<path class="st8" d="M353.6,76.5c-1.2,4.2-2.6,12,0.5,14.8c0,0-2.2,4.3-10.9,4.3c-7.9,0-3.7-4.3-3.7-4.3c5.3-1.1,5.4-4.6,4.7-7.9
			L353.6,76.5z"/>
		<path class="st13" d="M349.7,79.3l-5.5,4.1c0.2,0.8,0.3,1.6,0.3,2.3c1.6,1.5,4.9-2.2,5.2-4.1C349.9,80.6,349.9,79.7,349.7,79.3z"
			/>
		<path class="st13" d="M334.7,76.4c0.8,1.3,2.2,2.1,3.6,2.4c2,0.4,3.1-1.3,2.5-3c-0.5-1.5-2.2-3.6-4.2-3.2
			C334.5,72.9,333.7,74.9,334.7,76.4z"/>
		<path class="st12" d="M338,62.9c-3.2,1.3-4.3,12.7-0.3,14.4C341.7,79,344,60.4,338,62.9z"/>
		<path class="st8" d="M354.5,70.1c-0.8,5.7-0.9,9.1-4.3,12c-5.1,4.4-12.7,1.8-13.9-3.9c-1-5.1,0.4-13.6,6.7-15.9
			C349.4,60,355.3,64.4,354.5,70.1z"/>
		<path class="st12" d="M344.1,65.8c4.7-1.1,8.2-1.8,6.9,1.7c-1.6,4.7-3.6,9.3-1,9.5c1.6,0.1,8.7-2.6,7.8-5.4
			c-0.8-2.4,2.5-3.1,3.1-4.3c2.2-4.4-4.1-3.9-3-6.5c1.1-2.6-5.1-7-8.5-4.9c-5.5,3.5-15,3.4-10-2.3c3.6-4.1-2.8-3.3-2.8-3.3
			s3.9,2.1-2.6,5.3C327.2,59.1,333.5,68.3,344.1,65.8z"/>
		<path class="st8" d="M357,76.4c-1,1.3-2.5,2.1-3.9,2.4c-2.1,0.4-2.9-1.3-2.1-3c0.7-1.5,2.6-3.6,4.6-3.2
			C357.6,72.9,358.1,74.9,357,76.4z"/>
		<path class="st9" d="M325.9,142.8c0,0-5.7,46.4-6.2,64.1c-0.5,18.3,19.5,75.5,19.5,75.5l10.2-3.9c0,0-11.9-52.3-10.2-70.3
			c1.8-19.6,9.2-65.5,9.2-65.5H325.9z"/>
		<path class="st10" d="M340.2,155.6c-4.6,8.6-1.5,25.6,1,35.6c0.9-7.1,2.1-14.8,3.1-21.9C344.2,158.3,343.3,149.8,340.2,155.6z"/>
		<path class="st9" d="M348.9,275.6c0,0,1.2,2.9,1.2,2.9l-11.8,4.5l-1.9-3.1L348.9,275.6z"/>
		<path class="st9" d="M338.1,142.8c0,0,4.4,44.2,7.3,60.7c3.2,18.1,15.7,78.5,15.7,78.5h11.7c0,0-7-58.9-8.3-76.8
			c-1.4-19.5-4.3-62.4-4.3-62.4H338.1z"/>
		<path class="st9" d="M373,279.3c0.1,0,0.4,3,0.4,3h-12.9l-0.9-3.4L373,279.3z"/>
		<path class="st10" d="M368.5,275.8c-0.1,0-0.1,0-0.1-0.1c-0.1-0.5-6.4-53.7-7.6-69.8c-1.3-17.5-3.9-56.3-3.9-56.7
			c0-0.1,0-0.1,0.1-0.1c0,0,0,0,0,0c0.1,0,0.1,0,0.1,0.1c0,0.4,2.6,39.2,3.9,56.7c1.2,16.1,7.5,69.3,7.6,69.8
			C368.6,275.7,368.6,275.8,368.5,275.8C368.5,275.8,368.5,275.8,368.5,275.8z"/>
		<path class="st12" d="M344.8,71.7c0,0.5-0.3,0.8-0.7,0.8c-0.3,0-0.6-0.4-0.6-0.8c0-0.5,0.3-0.8,0.7-0.8
			C344.6,70.9,344.8,71.2,344.8,71.7z"/>
		<path class="st12" d="M339,71.7c0,0.5-0.3,0.8-0.7,0.8s-0.6-0.4-0.6-0.8c0-0.5,0.3-0.8,0.7-0.8C338.8,70.9,339,71.2,339,71.7z"/>
		<path class="st14" d="M340.8,71.9c0,0-1.3,2.7-2.7,4c0.9,0.8,2.4,0.4,2.4,0.4L340.8,71.9z"/>
		<path class="st12" d="M341,78.3c-0.1,0-0.1-0.1-0.1-0.1c0-0.1,0.1-0.1,0.2-0.1c2.3,0,3.4-1.4,3.4-1.4c0.1-0.1,0.1-0.1,0.2,0
			c0.1,0,0.1,0.1,0,0.2C344.6,76.8,343.4,78.3,341,78.3z"/>
		<path class="st12" d="M345.9,70.3c-0.1,0-0.2,0-0.3,0c-1.1-0.6-2.2-0.2-2.2-0.2c-0.1,0.1-0.3,0-0.4-0.1c-0.1-0.1,0-0.3,0.2-0.4
			c0.1,0,1.4-0.6,2.7,0.2c0.1,0.1,0.2,0.2,0.1,0.4C346,70.2,345.9,70.3,345.9,70.3z"/>
		<path class="st12" d="M336.7,68.7c0,0-0.1,0-0.1-0.1c-0.1-0.1-0.1-0.3,0-0.4c1.2-1.1,2.6-1,2.6-1c0.2,0,0.3,0.2,0.2,0.3
			c0,0.1-0.2,0.3-0.4,0.2l0,0c0,0-1.1-0.1-2.1,0.8C337,68.7,336.8,68.8,336.7,68.7z"/>
		<path class="st8" d="M368.7,100.1l-8.8-2.1c0,0-8.7,19.3-11.7,20.5c-4.2,1.7-14.7,7.6-19.2,10.5c-0.2,1-0.1,3.5,0.5,4.2
			c7.6-1.3,22.3-6.3,25.3-8.9C361.8,118.4,368.7,100.1,368.7,100.1z"/>
		<path class="st9" d="M362.5,290.2c-0.5,0-0.9-0.1-1.2-0.3c-0.2-0.2-0.3-0.4-0.3-0.7c0-0.2,0.2-0.3,0.3-0.4
			c0.7-0.3,2.7,0.8,2.9,0.9c0,0,0.1,0.1,0.1,0.1c0,0.1-0.1,0.1-0.1,0.1C363.8,290.1,363.1,290.2,362.5,290.2z M361.6,289
			c-0.1,0-0.1,0-0.2,0c0,0-0.1,0.1-0.1,0.2c0,0.2,0,0.4,0.2,0.5c0.3,0.3,1.2,0.3,2.3,0.1C363.1,289.4,362.1,289,361.6,289z"/>
		<path class="st9" d="M364.2,290C364.1,290,364.1,290,364.2,290c-0.7-0.3-1.9-1.6-1.7-2.3c0-0.1,0.1-0.3,0.5-0.4
			c0.2,0,0.4,0,0.6,0.2c0.7,0.5,0.8,2.2,0.8,2.3C364.3,289.9,364.3,289.9,364.2,290C364.2,290,364.2,290,364.2,290z M363,287.6
			C363,287.6,363,287.7,363,287.6c-0.3,0-0.3,0.1-0.3,0.1c-0.1,0.4,0.6,1.3,1.3,1.8c0-0.5-0.2-1.5-0.6-1.8
			C363.3,287.7,363.2,287.6,363,287.6z"/>
		<path class="st9" d="M340,289.2c-0.6,0.1-1.2,0.2-1.6,0c-0.2-0.1-0.4-0.3-0.4-0.6c0-0.2,0-0.3,0.2-0.4c0.7-0.6,3.5,0,3.8,0.1
			c0.1,0,0.1,0.1,0.1,0.1c0,0.1,0,0.1-0.1,0.1C341.4,288.8,340.7,289.1,340,289.2z M338.6,288.3c-0.1,0-0.2,0.1-0.3,0.1
			c-0.1,0-0.1,0.1-0.1,0.2c0,0.2,0.1,0.3,0.3,0.4c0.5,0.2,1.5,0,2.8-0.5C340.4,288.3,339.2,288.2,338.6,288.3z"/>
		<path class="st9" d="M341.9,288.6C341.9,288.6,341.8,288.6,341.9,288.6c-0.9-0.1-2.6-1-2.7-1.7c0-0.2,0.1-0.4,0.5-0.5
			c0.3-0.1,0.6-0.1,0.9,0c0.9,0.4,1.4,1.9,1.4,1.9C342,288.5,342,288.5,341.9,288.6C341.9,288.6,341.9,288.6,341.9,288.6z
			 M339.9,286.7C339.8,286.7,339.8,286.7,339.9,286.7c-0.4,0.1-0.3,0.2-0.3,0.2c0,0.4,1.2,1.1,2.1,1.4c-0.2-0.4-0.6-1.3-1.2-1.5
			C340.2,286.7,340.1,286.6,339.9,286.7z"/>
		<path class="st8" d="M329.7,128.6l-8.9,3.7l-1,2.3l3.3,2c0,0,6.1-0.6,7.8-4.1L329.7,128.6z"/>
		<path class="st12" d="M330,133.3c-0.6-3-1.6-4.3-1.6-4.3l1.4-0.9c0.1,0.1,1.3,1.6,2,5L330,133.3z"/>
		<path class="st12" d="M331.5,129.7c0.3,0.6-0.2,1.4-1,1.7c-0.9,0.3-1.8,0-2.1-0.6c-0.3-0.6,0.2-1.4,1-1.7
			C330.3,128.7,331.3,129,331.5,129.7z"/>
		<polygon class="st8" points="314.8,135.2 316,136.3 323.9,133.2 320.8,132.3 		"/>
		<path class="st10" d="M348.9,275.6c0,0,1.2,2.9,1.2,2.9l-11.8,4.5l-1.9-3.1L348.9,275.6z"/>
		<path class="st10" d="M373,279.3c0.1,0,0.4,3,0.4,3h-12.9l-0.9-3.4L373,279.3z"/>
		<g>
			<path class="st9" d="M371,97.9c2.3,6.8-6.8,16.1-6.8,16.1l-12.6-4.7c0,0,1.8-4.9,5.2-11.6C360.6,90.3,368.6,91,371,97.9z"/>
			<path class="st10" d="M371,97.9c2.3,6.8-6.8,16.1-6.8,16.1l-12.6-4.7c0,0,1.8-4.9,5.2-11.6C360.6,90.3,368.6,91,371,97.9z"/>
		</g>
	</g>
</g>
<g id="Screen">
	<g>
		<rect x="240.2" y="29.7" class="st9" width="5.4" height="0.8"/>
		<polygon class="st9" points="316.1,74.2 315.3,74.2 315.9,61 316.8,61 		"/>
		<polygon class="st9" points="314.2,33.2 214,33.2 204.7,221.9 304.9,221.9 		"/>
		<polygon class="st15" points="311.2,35.8 211,35.8 201.7,224.5 301.9,224.5 		"/>
		<polygon class="st16" points="308.2,38.4 208,38.4 198.7,227.1 298.9,227.1 		"/>
		<polygon class="st0" points="296.8,120.7 211.3,120.7 210.6,135.1 296.1,135.1 		"/>
		<polygon class="st9" points="258.3,110.2 211.8,110.2 211.5,116.6 258,116.6 		"/>
		<polygon class="st0" points="294.9,159.6 209.4,159.6 208.6,174.1 294.2,174.1 		"/>
		<polygon class="st17" points="279.2,193.6 221.7,193.6 220.8,210.9 278.4,210.9 		"/>
		<path class="st0" d="M275.4,213.6h-57.5c0,0-0.1,0-0.1,0c0,0,0,0,0-0.1l0.9-17.3c0,0,0-0.1,0.1-0.1h57.5c0,0,0.1,0,0.1,0
			c0,0,0,0,0,0.1l-0.9,17.3C275.5,213.5,275.4,213.6,275.4,213.6z M217.9,213.4h57.3l0.8-17.1h-57.3L217.9,213.4z"/>
		<polygon class="st9" points="248.3,149.1 209.9,149.1 209.6,155.6 248,155.6 		"/>
		<path class="st0" d="M278.1,74.1c-0.2,4.3-1.9,8.3-4.7,11.6c-4.2,4.9-10.8,8.1-18,8.1c-7.2,0-13.5-3.2-17.2-8.1
			c-2.5-3.2-3.8-7.2-3.6-11.6c0.5-10.9,10.7-19.7,22.7-19.7C269.4,54.4,278.7,63.2,278.1,74.1z"/>
		<path class="st9" d="M280.2,58.5c-0.1,1.1-0.5,2.2-1.3,3.1c-1.1,1.3-2.9,2.2-4.8,2.2c-1.9,0-3.6-0.8-4.6-2.2c-0.7-0.9-1-1.9-1-3.1
			c0.1-2.9,2.8-5.2,6-5.2C277.8,53.3,280.3,55.6,280.2,58.5z"/>
		<path class="st12" d="M220.5,127.9c-0.1,1.3-1.3,2.3-2.7,2.3c-1.4,0-2.5-1-2.4-2.3c0.1-1.3,1.3-2.3,2.7-2.3
			C219.5,125.6,220.6,126.6,220.5,127.9z"/>
		<path class="st12" d="M232,127.9c-0.1,1.3-1.3,2.3-2.7,2.3c-1.4,0-2.5-1-2.4-2.3c0.1-1.3,1.3-2.3,2.7-2.3
			C230.9,125.6,232,126.6,232,127.9z"/>
		<path class="st12" d="M243.4,127.9c-0.1,1.3-1.3,2.3-2.7,2.3c-1.4,0-2.5-1-2.4-2.3c0.1-1.3,1.3-2.3,2.7-2.3
			C242.4,125.6,243.5,126.6,243.4,127.9z"/>
		<path class="st12" d="M218.6,166.9c-0.1,1.3-1.3,2.3-2.7,2.3c-1.4,0-2.5-1-2.4-2.3c0.1-1.3,1.3-2.3,2.7-2.3
			C217.5,164.6,218.6,165.6,218.6,166.9z"/>
		<path class="st12" d="M230,166.9c-0.1,1.3-1.3,2.3-2.7,2.3s-2.5-1-2.4-2.3c0.1-1.3,1.3-2.3,2.7-2.3
			C229,164.6,230.1,165.6,230,166.9z"/>
		<path class="st12" d="M241.5,166.9c-0.1,1.3-1.3,2.3-2.7,2.3s-2.5-1-2.4-2.3c0.1-1.3,1.3-2.3,2.7-2.3
			C240.4,164.6,241.5,165.6,241.5,166.9z"/>
		<path class="st12" d="M252.9,166.9c-0.1,1.3-1.3,2.3-2.7,2.3c-1.4,0-2.5-1-2.4-2.3c0.1-1.3,1.3-2.3,2.7-2.3
			C251.9,164.6,253,165.6,252.9,166.9z"/>
		<path class="st12" d="M264.4,166.9c-0.1,1.3-1.3,2.3-2.7,2.3c-1.4,0-2.5-1-2.4-2.3c0.1-1.3,1.3-2.3,2.7-2.3
			C263.4,164.6,264.5,165.6,264.4,166.9z"/>
		<g>
			
				<ellipse transform="matrix(0.9789 -0.2044 0.2044 0.9789 -8.3759 53.8906)" class="st9" cx="256.7" cy="67.5" rx="8.8" ry="7.9"/>
			<path class="st9" d="M273.4,85.6c-4.2,4.9-10.8,8.1-18,8.1c-7.2,0-13.5-3.2-17.2-8.1c4.1-3.7,10.7-6.1,17.9-6.1
				C263.3,79.5,269.6,81.9,273.4,85.6z"/>
			
				<ellipse transform="matrix(0.9789 -0.2044 0.2044 0.9789 -8.3759 53.8906)" class="st18" cx="256.7" cy="67.5" rx="8.8" ry="7.9"/>
			<path class="st18" d="M273.4,85.6c-4.2,4.9-10.8,8.1-18,8.1c-7.2,0-13.5-3.2-17.2-8.1c4.1-3.7,10.7-6.1,17.9-6.1
				C263.3,79.5,269.6,81.9,273.4,85.6z"/>
		</g>
	</g>
</g>
<g id="Character_1">
	<g>
		<g>
			<path class="st8" d="M148.4,138.6c-0.8,1.6-1.7,3.3-2.4,5.1c-0.7,1.7-1.5,3.5-2.1,5.2c-1.3,3.5-2.5,7-3,10.6l-0.2,1.1
				c0,0.1,0,0.3,0.1,0.6c0.1,0.5,0.5,1.1,0.9,1.8c1,1.3,2.3,2.6,3.8,3.8c1.5,1.2,3,2.4,4.7,3.5c1.6,1.1,3.3,2.2,5,3.3l-1.6,2.7
				c-4-1.6-7.8-3.5-11.5-5.9c-1.8-1.2-3.6-2.6-5.1-4.4c-0.8-0.9-1.5-1.9-2-3.3c-0.2-0.7-0.4-1.4-0.4-2.3c0-0.2,0-0.5,0-0.6l0-0.4
				l0.1-0.8c0.5-4.1,1.5-8,2.8-11.8c0.7-1.9,1.4-3.8,2.2-5.6c0.8-1.9,1.6-3.6,2.7-5.5L148.4,138.6z"/>
			<path class="st8" d="M153.9,173.1l6-2.8l-1.6,6c0,0-4.1,1-6-0.8L153.9,173.1z"/>
			<polygon class="st8" points="165.4,171.4 163.8,176.3 158.4,176.4 159.9,170.4 			"/>
			<path class="st14" d="M173.9,109.9c0,0,0.5,1.7,1.3,3c-0.7,0.6-1.3,0.4-1.3,0.4V109.9z"/>
			<ellipse class="st12" cx="173.7" cy="109" rx="0.6" ry="0.9"/>
			<path class="st12" d="M173.6,108.2l1.3-0.3C174.9,107.8,174.2,108.7,173.6,108.2z"/>
			<path class="st8" d="M157.3,115.5c0.8,3.6,1.5,10.1-1.2,12.5c0,0,1.1,3.6,8.4,3.6c8.1,0,3.9-3.6,3.9-3.6c-4.4-1-4.3-3.9-3.5-6.7
				L157.3,115.5z"/>
			<path class="st8" d="M155.2,107.4c0.4,6,0.4,8.5,3.8,11.6c5,4.6,13,2.9,14.6-3.1c1.4-5.4,0.5-14.2-5.9-16.6
				C161.3,96.9,154.8,101.4,155.2,107.4z"/>
			<path class="st12" d="M155.8,100.6c-3.3,1.1-7.7,0.3-6,9.5c1.8,9.8-1,13-1,13s12.6,2.4,25.4-0.1c0,0-3.9-6.2-2.8-10.7
				c1.4-5.8,0.3-7.9,0.3-7.9S160.5,99.1,155.8,100.6z"/>
			<path class="st8" d="M169.8,110.5c0,1.2,0.4,2.4,1,3.2c0.9,1.2,2,0.7,2.2-0.6c0.2-1.2,0.1-3.2-1.1-4
				C170.9,108.3,169.9,109.1,169.8,110.5z"/>
			<path class="st12" d="M153,101.7c-1-2.4,3.6-6.1,13.2-4.6c9.6,1.5,10,8.8,10,8.8l-1.9-2.1l0.1,2.2l-9.9,1.7L153,101.7z"/>
			<g>
				<path class="st9" d="M153.8,128.4L153.8,128.4c-0.1-0.7,0.4-1.4,1.2-1.6c3-0.4,9.8-1.3,13.2-0.9c2.5,0.3,3.2,1.7,3.3,2.8
					c0.1,0.8-0.7,1.5-1.6,1.5l-14.8-0.6C154.5,129.5,153.9,129,153.8,128.4z"/>
				<path class="st19" d="M153.8,128.4L153.8,128.4c-0.1-0.7,0.4-1.4,1.2-1.6c3-0.4,9.8-1.3,13.2-0.9c2.5,0.3,3.2,1.7,3.3,2.8
					c0.1,0.8-0.7,1.5-1.6,1.5l-14.8-0.6C154.5,129.5,153.9,129,153.8,128.4z"/>
			</g>
			<polygon class="st8" points="162.3,262.5 167.8,266 176.9,254.7 171.5,251.3 			"/>
			<polygon class="st8" points="149.5,262.3 155.3,265.3 163.4,253.4 157.6,250.4 			"/>
			<g>
				<polygon class="st13" points="176.9,254.7 172.2,260.5 166.7,257.1 171.5,251.3 				"/>
				<polygon class="st13" points="157.6,250.4 163.4,253.4 159.2,259.5 153.5,256.6 				"/>
			</g>
			<g>
				<path class="st9" d="M166.9,165.9c0,0,21.4,24.4,17.4,47.7c-3.2,18.8-22,44.3-22,44.3l-8.8-4c0,0,9.6-16.9,15.9-34.9
					c2.6-7.5,1.5-15.8-3.4-22.3c-10.8-14.3-28.2-5.8-16.5-30.8H166.9z"/>
				<path class="st19" d="M166.9,165.9c0,0,21.4,24.4,17.4,47.7c-3.2,18.8-22,44.3-22,44.3l-8.8-4c0,0,9.6-16.9,15.9-34.9
					c2.6-7.5,1.5-15.8-3.4-22.3c-10.8-14.3-28.2-5.8-16.5-30.8H166.9z"/>
			</g>
			<path class="st20" d="M177.4,181.5l-3.1-2.8c0,0.2,6,33.8,7.7,43.3c1-2.9,1.8-5.8,2.3-8.5C186.3,202.1,182.1,190.5,177.4,181.5z"
				/>
			<g>
				<path class="st9" d="M176.5,165.9c0,0,25.8,30.6,26.5,49c0.6,15.4-28.1,45.1-28.1,45.1l-8.3-4.9c0,0,16.8-21.1,21-38.4
					c-1.6-17.1-36.1-50.8-36.1-50.8H176.5z"/>
				<path class="st19" d="M176.5,165.9c0,0,25.8,30.6,26.5,49c0.6,15.4-28.1,45.1-28.1,45.1l-8.3-4.9c0,0,16.8-21.1,21-38.4
					c-1.6-17.1-36.1-50.8-36.1-50.8H176.5z"/>
			</g>
			<path class="st9" d="M144.6,129.4c-2.8,0.6-5.4,9.6-5.4,9.6l10.8,6.5c0,0,3.6-7.2,2.3-10.3C151,131.9,148.1,128.6,144.6,129.4z"
				/>
			<path class="st10" d="M146.7,135.2l-0.8,7.9l4,2.4c0,0,1.9-3.7,2.4-7L146.7,135.2z"/>
			<path class="st9" d="M179.7,129.5c0,0,3.2,1-3.2,36.4c-10.7,0-21.8,0-27.1,0c0.5-10,0.5-16.1-4.8-36.5c0,0,5.7-1.1,11.5-1.4
				c4.6-0.2,8.3-0.3,12.3,0C173.7,128.4,179.7,129.5,179.7,129.5z"/>
			<path class="st8" d="M182.4,135.2c0.6,1.5,1.3,3.2,1.9,4.8c0.6,1.6,1.3,3.2,2,4.8l2.1,4.8l0.5,1.2l0.3,0.6l0.1,0.3c0,0.1,0,0,0,0
				c0,0-0.1-0.2-0.6-0.5c-0.3-0.1-0.7-0.3-1.1-0.3c-0.4,0-0.8,0.1-0.9,0.2c-0.4,0.2-0.4,0.2-0.4,0.2c0,0,0.1-0.1,0.2-0.2
				c0.4-0.4,0.8-1.1,1.2-1.8c0.4-0.7,0.8-1.5,1.2-2.2c0.8-1.5,1.4-3.1,2.1-4.7c0.7-1.6,1.3-3.2,2-4.9l1.9-4.9l3.3,0.7
				c-0.6,3.5-1.5,6.9-2.5,10.4c-0.5,1.7-1.1,3.4-1.7,5.2c-0.3,0.9-0.7,1.7-1.1,2.6c-0.4,0.9-0.9,1.8-1.6,2.8
				c-0.2,0.3-0.4,0.5-0.7,0.8c-0.3,0.3-0.7,0.7-1.5,1c-0.4,0.2-1,0.3-1.6,0.3c-0.7,0-1.3-0.2-1.8-0.5c-0.9-0.5-1.3-1.1-1.5-1.4
				c-0.1-0.2-0.2-0.4-0.3-0.5l-0.2-0.3l-0.3-0.6l-0.6-1.2c-0.8-1.6-1.7-3.2-2.4-4.8c-0.8-1.6-1.5-3.3-2.3-4.9
				c-0.7-1.7-1.4-3.3-2-5.1L182.4,135.2z"/>
			<path class="st9" d="M179.7,129.5c3.3,0.7,6.9,9.4,6.9,9.4l-9.7,7.4c0,0-6.3-9.5-5-12.6C173.2,130.5,175.4,128.6,179.7,129.5z"/>
			<path class="st8" d="M196.5,130l3.4-2.6l2.4,3.3l-1.7,2.8c0,0-2.8,2.3-5.2,1.1l0,0C194.5,133,195,131.1,196.5,130z"/>
			<polygon class="st8" points="206,127.4 205.8,128.2 200.4,129.1 199.9,127.4 			"/>
			<polygon class="st9" points="175.6,260.4 165.9,254.7 167.6,252 178.5,258 			"/>
			<path class="st12" d="M159.1,264.9c-0.8,0-1.8-0.4-2.4-0.8c-0.1,0-0.1-0.1-0.1-0.1c0-0.1,0-0.1,0.1-0.1c0.3-0.1,2.6-0.7,3.2-0.2
				c0.1,0.1,0.2,0.2,0.2,0.5c0,0.3-0.2,0.5-0.5,0.7C159.5,264.9,159.3,264.9,159.1,264.9z M157.2,264c1.1,0.5,1.9,0.7,2.3,0.5
				c0.2-0.1,0.3-0.2,0.3-0.4c0-0.1,0-0.2-0.1-0.2C159.4,263.6,158.1,263.8,157.2,264z"/>
			<path class="st12" d="M156.8,264.1c0,0-0.1,0-0.1,0c0,0-0.1-0.1,0-0.1c0-0.1,0.6-1.7,1.4-2.1c0.2-0.1,0.5-0.1,0.7,0
				c0.4,0.1,0.4,0.4,0.4,0.5C159.1,263,157.5,264,156.8,264.1C156.8,264.1,156.8,264.1,156.8,264.1z M158.4,262.1
				c-0.1,0-0.2,0-0.2,0.1c-0.5,0.2-1,1.1-1.2,1.7c0.7-0.3,1.8-1,1.8-1.5c0-0.1,0-0.2-0.2-0.2C158.6,262.1,158.5,262.1,158.4,262.1z"
				/>
			<path class="st12" d="M171.2,268.2c-1,0-2.3-1.1-3-1.8c0,0-0.1-0.1,0-0.2c0-0.1,0.1-0.1,0.2-0.1c0.3,0,3.3,0.4,3.7,1.2
				c0.1,0.1,0.1,0.3,0,0.4c-0.2,0.2-0.4,0.4-0.7,0.4C171.3,268.2,171.3,268.2,171.2,268.2z M168.8,266.5c1.1,0.9,2,1.5,2.6,1.4
				c0.2,0,0.3-0.1,0.4-0.3c0-0.1,0-0.1,0-0.2C171.5,267,170,266.7,168.8,266.5z"/>
			<path class="st12" d="M168.9,266.5c-0.2,0-0.4,0-0.6,0c-0.1,0-0.1,0-0.1-0.1c0,0,0-0.1,0-0.1c0-0.1,1.2-1.3,2.3-1.4
				c0.3,0,0.6,0.1,0.9,0.2c0.3,0.3,0.3,0.5,0.2,0.6C171.3,266.2,169.9,266.5,168.9,266.5z M168.6,266.2c0.9,0,2.5-0.2,2.7-0.6
				c0,0,0.1-0.1-0.2-0.3c-0.2-0.1-0.4-0.2-0.6-0.2C169.8,265.2,169,265.8,168.6,266.2z"/>
			<path class="st9" d="M157,263.3l-7.2-1.8c-0.3-0.1-0.5,0-0.6,0.3l-2.4,4.9c-0.3,0.5,0.1,1.1,0.7,1.3c2.5,0.6,3.8,0.8,6.9,1.6
				c1.9,0.5,4.7,1.4,7.4,2.1c2.6,0.7,3.6-1.7,2.5-2.2c-4.7-2.3-5.1-3.8-6.4-5.5C157.7,263.7,157.4,263.4,157,263.3z"/>
			<path class="st9" d="M168.4,265.5l-6.1-3.9c-0.2-0.1-0.5-0.1-0.7,0.1l-4.1,4c-0.4,0.4-0.3,1.1,0.2,1.4c2.2,1.3,3.3,1.8,6,3.5
				c1.7,1,5,3.4,7.3,4.8c2.2,1.4,4-0.5,3.2-1.3c-3.6-3.5-4.5-5.7-5.1-7.7C169,266,168.7,265.7,168.4,265.5z"/>
			<polygon class="st9" points="163.4,258.4 152.3,253.4 153.5,250.7 165.3,255.9 			"/>
			<g>
				<path class="st9" d="M149,164.5l-0.9,2.2c-0.1,0.2,0.1,0.3,0.4,0.3h28.1c0.2,0,0.4-0.1,0.5-0.2l0.2-2.2c0-0.2-0.2-0.3-0.5-0.3
					h-27.4C149.2,164.3,149.1,164.3,149,164.5z"/>
				<path class="st21" d="M149,164.5l-0.9,2.2c-0.1,0.2,0.1,0.3,0.4,0.3h28.1c0.2,0,0.4-0.1,0.5-0.2l0.2-2.2c0-0.2-0.2-0.3-0.5-0.3
					h-27.4C149.2,164.3,149.1,164.3,149,164.5z"/>
			</g>
			<g>
				<path class="st9" d="M153.4,167.2h-0.7c-0.1,0-0.3-0.1-0.2-0.2l0.3-2.8c0-0.1,0.1-0.2,0.3-0.2h0.7c0.1,0,0.3,0.1,0.2,0.2
					l-0.3,2.8C153.7,167.2,153.6,167.2,153.4,167.2z"/>
				<path class="st9" d="M170.8,167.2H170c-0.1,0-0.3-0.1-0.2-0.2l0.3-2.8c0-0.1,0.1-0.2,0.3-0.2h0.7c0.1,0,0.3,0.1,0.2,0.2
					l-0.3,2.8C171,167.2,170.9,167.2,170.8,167.2z"/>
			</g>
		</g>
		<g>
			<g>
				<ellipse class="st4" cx="152.8" cy="295.8" rx="22.8" ry="1.5"/>
				<path class="st2" d="M166.6,293.7c-4-1.1-8.5-2.4-11.2-3.9c-0.1,0-0.2-0.1-0.2-0.1v-16.5h8.1c1.3,0,2.4-1,2.4-2.2
					c0-1.2-1.1-2.2-2.4-2.2h-8.1v-75.1h-4.8v75.1h-8.1c-1.3,0-2.4,1-2.4,2.2c0,1.2,1.1,2.2,2.4,2.2h8.1v16.5c-0.1,0-0.2,0.1-0.2,0.1
					c-2.7,1.4-7.2,2.8-11.2,3.9c-1.3,0.3-1,2.1,0.3,2.1h13.5h13.5C167.7,295.8,168,294,166.6,293.7z"/>
			</g>
			<g>
				<path class="st9" d="M168.1,202.2h-30.6c-2.3,0-4.2-1.9-4.2-4.2v-7.7c0-2.3,1.9-4.2,4.2-4.2h30.6c2.3,0,4.2,1.9,4.2,4.2v7.7
					C172.3,200.3,170.4,202.2,168.1,202.2z"/>
				<g>
					<path class="st9" d="M137.4,202.2v1.4c0,1.2,1.4,2.1,3.1,2.1h24.6c1.7,0,3.1-0.9,3.1-2.1v-1.4H137.4z"/>
					<path class="st22" d="M137.4,202.2v1.4c0,1.2,1.4,2.1,3.1,2.1h24.6c1.7,0,3.1-0.9,3.1-2.1v-1.4H137.4z"/>
				</g>
			</g>
		</g>
	</g>
</g>
</svg>
