<?xml version="1.0" encoding="utf-8"?>
<!-- Generator: Adobe Illustrator 24.1.1, SVG Export Plug-In . SVG Version: 6.00 Build 0)  -->
<svg version="1.1" id="Layer_1" xmlns="http://www.w3.org/2000/svg" xmlns:xlink="http://www.w3.org/1999/xlink" x="0px" y="0px"
	 viewBox="0 0 3000 2000" style="enable-background:new 0 0 3000 2000;" xml:space="preserve">
<style type="text/css">
	.st0{fill:#FFFFFF;}
	.st1{fill:none;stroke:#E4E4E4;stroke-width:4;stroke-miterlimit:10;stroke-dasharray:32.0882,32.0882;}
	.st2{fill:#F6F5F5;}
	.st3{fill:#A9BAE6;}
	.st4{fill:#E4E4E4;}
	.st5{fill:#708CD5;}
	.st6{fill:#D3DFFF;}
	.st7{fill:#FFFFFF;stroke:#708CD5;stroke-width:6;stroke-miterlimit:10;}
	.st8{fill:#EE6F57;}
	.st9{fill:#F9B384;}
	.st10{fill:#1F3C88;}
	.st11{fill:#E28B6D;}
	.st12{fill:#102048;}
	.st13{opacity:0.6;fill:#102048;}
	.st14{opacity:0.3;fill:#1F3C88;}
	.st15{opacity:0.6;fill:#E28B6D;}
	.st16{fill:#6F3428;}
	.st17{fill:#FBC343;}
	.st18{opacity:0.3;fill:none;stroke:#6F3428;stroke-width:8;stroke-miterlimit:10;}
	.st19{opacity:0.4;fill:#FC8879;}
	.st20{opacity:0.6;fill:#6F3428;}
	.st21{fill:none;stroke:#102048;stroke-width:8;stroke-miterlimit:10;}
</style>
<g>
	<rect class="st0" width="3000" height="2000"/>
	<g>
		<g>
			<g>
				<path class="st1" d="M2712,1308c125.3,224.2-56,664-1205.6,358.3c-576.4-153.3-1007,192-1095.7-49
					C204,1056,1048,406.7,1517.3,860C1946.3,1274.4,2484,900,2712,1308z"/>
			</g>
			<path class="st2" d="M2705.4,1801.4H361.3c73.4-542,570.1-961.2,1172-961.2C2135.3,840.2,2632,1259.4,2705.4,1801.4z"/>
		</g>
		<g>
			<path class="st3" d="M2399.8,1796.7h-881.7c-41,0-74.3-33.3-74.3-74.3V457.6c0-41,33.3-74.3,74.3-74.3h881.7
				c41,0,74.3,33.3,74.3,74.3v1264.7C2474.2,1763.4,2440.9,1796.7,2399.8,1796.7z"/>
			<g>
				<g>
					<rect x="1537" y="440.3" class="st2" width="848" height="1231.9"/>
					<path class="st4" d="M2385,440.3c0.3,480.4,15.8,1059.7-38.2,1188c-237.7,23.2-516,30.6-809.9,32L1648.7,444L2385,440.3z"/>
					<path class="st0" d="M2308.8,1589.5c-370.4,59.3-618,62.4-818.8,47.5c26-277,36.5-737.2,46.9-1196.6l446.4,1l404,26.7
						C2393.2,944.8,2393.9,1385.3,2308.8,1589.5z"/>
				</g>
				<g>
					
						<rect x="1731" y="559.1" transform="matrix(0.9997 2.352837e-02 -2.352837e-02 0.9997 14.4959 -45.8121)" class="st5" width="446.2" height="68"/>
					<g>
						<g>
							<g>
								
									<rect x="1861.1" y="725.9" transform="matrix(0.9997 2.352839e-02 -2.352839e-02 0.9997 18.017 -48.3191)" class="st5" width="402.5" height="31.1"/>
								
									<rect x="1859.5" y="792.2" transform="matrix(0.9997 2.352875e-02 -2.352875e-02 0.9997 19.559 -46.7477)" class="st6" width="273.6" height="31.1"/>
							</g>
							<g>
								
									<rect x="1638.4" y="718.9" transform="matrix(0.9997 2.352853e-02 -2.352853e-02 0.9997 18.5028 -39.4568)" class="st7" width="95.3" height="95.3"/>
								<g>
									<path class="st8" d="M1655,742.9c2.9,11.3,8.4,58.4,32,45.2c5.4-3,10.1-11.1,14.1-15.7c7.3-8.3,14.6-16.6,22-24.9
										c14.6-16.6,29.3-33.3,43.9-49.9c3.8-4.3-12.8-15-17.5-9.6c-13,14.8-26,29.6-39.1,44.3c-6.5,7.4-13,14.8-19.5,22.2
										c-4.5,5.1-15,21.7-21.7,23.1c3.6,1.2,7.3,2.4,10.9,3.5c2.6,2.1-2.2-12.9-2.3-13.3c-1.8-7-3.6-13.9-5.5-20.9
										C1670.9,741.3,1652.8,734.4,1655,742.9L1655,742.9z"/>
								</g>
							</g>
						</g>
						<g>
							<g>
								
									<rect x="1857.1" y="898.3" transform="matrix(0.9997 2.352835e-02 -2.352835e-02 0.9997 22.0613 -47.3398)" class="st5" width="331.5" height="31.1"/>
								
									<rect x="1855.4" y="966.9" transform="matrix(0.9997 2.352838e-02 -2.352838e-02 0.9997 23.686 -48.1189)" class="st6" width="402.5" height="31.1"/>
							</g>
							<g>
								
									<rect x="1634.3" y="892.1" transform="matrix(0.9997 2.352853e-02 -2.352853e-02 0.9997 22.5766 -39.3129)" class="st7" width="95.3" height="95.3"/>
								<g>
									<path class="st8" d="M1650.9,918.8c2.9,11.3,8.4,58.4,32,45.2c5.4-3,10.1-11.1,14.1-15.7c7.3-8.3,14.6-16.6,22-24.9
										c14.6-16.6,29.3-33.3,43.9-49.9c3.8-4.3-12.8-15-17.5-9.6c-13,14.8-26,29.6-39.1,44.3c-6.5,7.4-13,14.8-19.5,22.2
										c-4.5,5.1-15,21.7-21.7,23.1c3.6,1.2,7.3,2.4,10.9,3.5c2.6,2.1-2.2-12.9-2.3-13.3c-1.8-7-3.6-13.9-5.5-20.9
										C1666.8,917.1,1648.6,910.2,1650.9,918.8L1650.9,918.8z"/>
								</g>
							</g>
						</g>
						<g>
							<g>
								
									<rect x="1853" y="1072.3" transform="matrix(0.9997 2.352863e-02 -2.352863e-02 0.9997 26.1649 -48.0319)" class="st5" width="402.5" height="31.1"/>
								
									<rect x="1851.4" y="1137.5" transform="matrix(0.9997 2.352825e-02 -2.352825e-02 0.9997 27.6672 -45.3588)" class="st6" width="180" height="31.1"/>
							</g>
							<g>
								
									<rect x="1630.2" y="1065.3" transform="matrix(0.9997 2.352853e-02 -2.352853e-02 0.9997 26.6504 -39.1691)" class="st7" width="95.3" height="95.3"/>
								<g>
									<path class="st8" d="M1648.1,1093.2c2.9,11.3,8.4,58.4,32,45.2c5.4-3,10.1-11.1,14.1-15.7c7.3-8.3,14.6-16.6,22-24.9
										c14.6-16.6,29.3-33.3,43.9-49.9c3.8-4.3-12.8-15-17.5-9.6c-13,14.8-26,29.6-39.1,44.3c-6.5,7.4-13,14.8-19.5,22.2
										c-4.5,5.1-15,21.7-21.7,23.1c3.6,1.2,7.3,2.4,10.9,3.5c2.6,2.1-2.2-12.9-2.3-13.3c-1.8-7-3.6-13.9-5.5-20.9
										C1664,1091.6,1645.9,1084.7,1648.1,1093.2L1648.1,1093.2z"/>
								</g>
							</g>
						</g>
						<g>
							<g>
								
									<rect x="1848.9" y="1245.5" transform="matrix(0.9997 2.352838e-02 -2.352838e-02 0.9997 30.2383 -47.8876)" class="st5" width="402.5" height="31.1"/>
								
									<rect x="1847.3" y="1312.3" transform="matrix(0.9997 2.352849e-02 -2.352849e-02 0.9997 31.7986 -46.8374)" class="st6" width="318" height="31.1"/>
							</g>
							<g>
								
									<rect x="1626.1" y="1238.5" transform="matrix(0.9997 2.352853e-02 -2.352853e-02 0.9997 30.7242 -39.0252)" class="st7" width="95.3" height="95.3"/>
								<g>
									<path class="st8" d="M1644,1265.2c2.9,11.3,8.4,58.4,32,45.2c5.4-3,10.1-11.1,14.1-15.7c7.3-8.3,14.6-16.6,22-24.9
										c14.6-16.6,29.3-33.3,43.9-49.9c3.8-4.3-12.8-15-17.5-9.6c-13,14.8-26,29.6-39.1,44.3c-6.5,7.4-13,14.8-19.5,22.2
										c-4.5,5.1-15,21.7-21.7,23.1c3.6,1.2,7.3,2.4,10.9,3.5c2.6,2.1-2.2-12.9-2.3-13.3c-1.8-7-3.6-13.9-5.5-20.9
										C1660,1263.6,1641.8,1256.7,1644,1265.2L1644,1265.2z"/>
								</g>
							</g>
						</g>
						<g>
							<g>
								
									<rect x="1844.9" y="1414.5" transform="matrix(0.9997 2.352802e-02 -2.352802e-02 0.9997 34.1799 -44.8875)" class="st5" width="159.6" height="31.1"/>
								<path class="st6" d="M2246.1,1489.9l-402.4-9.5l-0.7,31.1c155.7,3.7,353.9,10.9,394.4,4.7
									C2243.4,1509.3,2246.7,1500.8,2246.1,1489.9z"/>
							</g>
							<g>
								
									<rect x="1623.4" y="1410.4" transform="matrix(0.9997 2.352850e-02 -2.352850e-02 0.9997 34.7682 -38.9138)" class="st7" width="95.3" height="95.3"/>
								<g>
									<path class="st8" d="M1640,1435.8c2.9,11.3,8.4,58.4,32,45.2c5.4-3,10.1-11.1,14.1-15.7c7.3-8.3,14.6-16.6,22-24.9
										c14.6-16.6,29.3-33.3,43.9-49.9c3.8-4.3-12.8-15-17.5-9.6c-13,14.8-26,29.6-39.1,44.3c-6.5,7.4-13,14.8-19.5,22.2
										c-4.5,5.1-15,21.7-21.7,23.1c3.6,1.2,7.3,2.4,10.9,3.5c2.6,2.1-2.2-12.9-2.3-13.3c-1.8-7-3.6-13.9-5.5-20.9
										C1655.9,1434.2,1637.8,1427.3,1640,1435.8L1640,1435.8z"/>
								</g>
							</g>
						</g>
					</g>
				</g>
			</g>
			<g>
				<path class="st8" d="M2150,391.9V487h-382v-95.1c0-15.2,6.2-28.9,16.1-38.8c1.2-1.2,2.5-2.4,3.9-3.5c9.5-7.9,21.7-12.6,35-12.6
					c10,0,19.5-2.3,28.1-6.4c3.7-1.8,7.2-3.9,10.6-6.4c10.9-8.1,19.3-19.6,23.4-33.2c4.2-14,12.9-25.6,24.2-33.8
					c10.8-7.8,24-12.2,37.9-12.2h23.8c14,0,27.1,4.5,37.9,12.2c11.2,8.1,19.9,19.8,24.2,33.8c4.2,13.7,12.5,25.2,23.4,33.2
					c3.3,2.4,6.8,4.6,10.6,6.4c8.6,4.1,18.1,6.4,28.1,6.4c13.3,0,25.5,4.7,35,12.6C2142.2,359.6,2150,374.8,2150,391.9z"/>
				<polygon class="st4" points="2181,440.3 2181,511 1737,511 1737,440.3 1768,440.3 1768,487 2150,487 2150,440.3 				"/>
				<ellipse class="st0" cx="1959" cy="302" rx="33.9" ry="32.2"/>
			</g>
		</g>
		<g>
			<g>
				<path class="st9" d="M1226.9,747.1c-13.5-2.6-26.2-25.2-30.6-33.9c-1.1-2.1-1.4-4.5-1-6.9l5.4-28.6c0,0,12.4,2.1,11.5,18.7
					c-0.1,1.7,0.3,3.4,0.9,5l4.8,12.5l14.1-10.9l-7.7-21.8c0,0-10.3,2.8-15.7,1.1c-11-3.5,3.4-12,7.9-12.9
					c4.5-0.9,14.5-4.5,19.1,3.2c4.5,7.7,7.3,12.3,7.3,12.3s5-17.3,1.6-55.9c-0.2-1.7,4.2-1.7,5.4-0.5c3.7,3.7,9.5,15.1,9.8,49.5
					c0,0,0.6-40.2,7.5-44.3c5.7-3.4,8.5,16.2,4.5,49.6c0,0,7.4-28.9,12.7-28.9c9-0.1,0.1,77.1-22.4,100.1L1226.9,747.1z"/>
				<path class="st9" d="M1269.4,735.3c-0.4,3.8-0.8,7.6-1.3,11.2v0c-1.6,12.8-3.6,24.2-5.9,34c-0.1,0.5-0.2,0.9-0.3,1.4
					c-6.8,28-8.1,41.8-31.4,38.1l-24-27.4l-0.2-0.3l-1.8-2l4.9-14.4l0.6-1.9l3.6-10.5l0.4-1.4l6.2-18l2.5-7.3L1269.4,735.3z"/>
			</g>
			<g>
				<path class="st10" d="M822.8,1731.5l-6.1,19.1c-42,13.8-66.4,29.6-68,48H870l9.7-64C855.2,1740.6,835.5,1736.5,822.8,1731.5z"/>
				<path class="st9" d="M838,1684l-15.2,47.5c12.7,4.9,32.4,9.1,56.9,3.1l6.3-41.3L838,1684z"/>
				<path class="st9" d="M1045.4,1729.4l3.6-48.4l-57,3l-3.1,44.6C1013,1736.3,1033,1733.3,1045.4,1729.4z"/>
				<path class="st10" d="M1114,1798.7c-1.6-18.4-23-43.7-70-49.7l1.4-19.6c-12.5,3.9-32.4,6.9-56.6-0.8l-4.9,70H1114z"/>
			</g>
			<polygon class="st9" points="999.2,759.5 930.5,760 930.5,656 997.2,656 997.2,662.4 997.5,695.3 998,748.2 			"/>
			<path class="st11" d="M997.5,700.3c-12.4,13-44.6-1.7-58.2-16l57.9-17L997.5,700.3z"/>
			<path class="st9" d="M1013.5,632c0,7.7-0.5,15.7-1.8,23.4c-3.4,21-12.2,39.1-32.7,39.6c-48.4,1.4-62.2-26.3-71.3-48.9
				c-9.1-22.7,5.7-77.2,5.7-77.2l62.6-6.2l34.4,28.2C1010.4,590.9,1013.7,610.1,1013.5,632z"/>
			<path class="st12" d="M909.6,633.2c0,0,13.8-0.6,16.2-36.3c24.7,8.3,42.7,0.7,57-15.7c12.2,16.1,46.3,21.2,57.9-11.8
				c8.3-23.8-14.7-59.3-48.2-37.8c-32.8-16.6-82.6-15.4-97,25.2c0,0-49.8,23,2.9,73.5C899.5,631.3,909.6,633.2,909.6,633.2z"/>
			<polygon class="st12" points="1100,1133.3 1062,1708 972.7,1708 995,1150.3 1008.7,1144 			"/>
			<polygon class="st10" points="867.3,1054.7 804.7,1708 902,1708 994.7,1165.3 1100,1133.3 1104.7,1017.3 870,1012 			"/>
			<path class="st13" d="M881.3,1056.1c53.2,19.1,177.9-2.7,203.8-29.3l-18.4-36.8l-205.2,27.3L881.3,1056.1z"/>
			<path class="st0" d="M1080.3,1017.9c-1.7,0.7-3.5,1.5-5.3,2.2c-19.9,8.1-42.5,15.2-66.6,19.8c-14.4,2.8-29.4,4.8-44.7,5.5
				c-23,1.2-46.7-0.4-70.2-5.7l29.8-277.8L927,728c0,0,39,48,82-5L1080.3,1017.9z"/>
			<path class="st14" d="M963.7,1045.4c-23,1.2-46.7-0.4-70.2-5.7l29.8-277.8l10.6-15.4C960.3,810.4,987.2,952,963.7,1045.4z"/>
			<path class="st5" d="M930.5,717c29.6,125.8,41.8,255.3-1.8,399c-32.4,12.3-67.6,12.2-105.3,1.3l9.3-261.3L613,1007l-13.3-82.3
				C684.1,843.9,830.1,721.9,930.5,717z"/>
			<path class="st14" d="M1075,1020.1c-19.9,8.1-42.5,15.2-66.6,19.8C995.2,964,992.2,839.3,1003,783L1075,1020.1z"/>
			<path class="st15" d="M1262.2,780.5c-0.1,0.5-0.2,0.9-0.3,1.4c-6.8,28-8.1,41.8-31.4,38.1l-24-27.4l-0.2-0.3l3.1-16.4l0.6-1.9
				l3.6-10.5l0.4-1.4L1262.2,780.5z"/>
			<path class="st5" d="M1258,806c0,0-59,125-94,128c-33.9,2.9-50-30-50-30l24,182.7c-28.2,13.2-59,19.6-94.7,13.3
				c-31.7-103-43.7-236.2-46.1-384.5c25.7,1.6,76.5,3.8,94.8,15.5c32.7,21,73,96,73,96l47-64L1258,806z"/>
			<g>
				<path class="st16" d="M538.7,629.9c0,0,3.6-59.8,9.7-57c6.1,2.8,18.3,54.8,18.3,54.8l-13.1,21.1L538.7,629.9z"/>
				<path class="st8" d="M718.3,1709.7l1.8,19.7c3.1,34.7-22.5,65.4-57.3,68.6l-5.1,0.5c-34.7,3.1-65.4-22.5-68.6-57.3l-1.8-19.7
					L718.3,1709.7z"/>
				
					<rect x="544.4" y="760.7" transform="matrix(0.996 -8.948319e-02 8.948319e-02 0.996 -108.4282 59.5604)" class="st17" width="131.4" height="956.8"/>
				
					<rect x="579.7" y="741.8" transform="matrix(0.996 -8.948348e-02 8.948348e-02 0.996 -101.4825 58.6203)" class="st18" width="46.7" height="838.7"/>
				<polygon class="st12" points="718.3,1709.7 587.4,1721.4 584,1683 581.6,1656.4 574.2,1574.4 705.1,1562.6 712.4,1644.6 
					714.8,1671.3 				"/>
				
					<rect x="582.5" y="1650.4" transform="matrix(0.996 -8.951984e-02 8.951984e-02 0.996 -146.3423 64.709)" class="st17" width="131.4" height="26.8"/>
				<path class="st8" d="M501.8,768.5l36.4-145.7c0,0,12.5,5.6,27.8-3.8l66.8,137.8L501.8,768.5z"/>
			</g>
			<path class="st9" d="M916.8,627.1c-0.6-2.1-10.4-5.1-12.5-5.7c-3.3-0.9-7-1.4-10.2,0.1c-11.8,5.3-10.2,22.3-4.1,31.1
				c3.5,5,8.5,8.9,14.4,10.6c2.1,0.6,22.5,0.9,21.6-2.4C926,660.8,916.9,627.2,916.8,627.1z"/>
			<path class="st9" d="M545,967c-3.1-9.6-13.2-15-22.7-11.7c-14.9,5.1-27.9,13.9-29.9,28.7c-1.8,13.5,4.9,56.7,35.1,62.2l-2.5-22.2
				c0,0,18.5-4.3,22.2-12.3C549.8,1006.1,550,982.7,545,967z"/>
			<path class="st10" d="M1104.8,818.6c1.6,9.4,2.9,18.9,4.2,28.4c1.3,9.5,2.4,19,3.6,28.5l3.1,28.5c0.9,9.5,1.8,19.1,2.4,28.6
				l-1.6,0.2c-1.6-9.4-3-18.9-4.3-28.4l-3.6-28.5c-1-9.5-2.2-19-3-28.5c-0.9-9.5-1.8-19-2.4-28.6L1104.8,818.6z"/>
			<path class="st10" d="M835.8,817c0,10.6-0.3,21.2-0.6,31.8c-0.3,10.6-0.8,21.2-1.2,31.8l-1.7,31.7c-0.7,10.6-1.4,21.1-2.5,31.7
				l-1.6-0.1c0-10.6,0.2-21.2,0.5-31.8l1.3-31.8c0.6-10.6,1.1-21.2,1.8-31.7c0.7-10.6,1.4-21.1,2.4-31.7L835.8,817z"/>
			<path class="st12" d="M965.4,626.1c0.8,3.8-0.7,7.3-3.5,8c-2.8,0.6-5.7-1.9-6.5-5.7c-0.8-3.8,0.7-7.3,3.5-8
				C961.6,619.8,964.5,622.4,965.4,626.1z"/>
			<path class="st12" d="M1005.2,621.5c-0.2,3.9-2.6,6.9-5.4,6.8c-2.8-0.1-5-3.3-4.8-7.2c0.2-3.9,2.6-6.9,5.4-6.8
				C1003.3,614.4,1005.4,617.6,1005.2,621.5z"/>
			<path class="st11" d="M983,624.6c1.4,3.3,1.2,6.9,2,9.6c0.5,1.4,1.1,2.6,1.9,3.3c0.8,0.7,2.1,1.2,3.8,1.8
				c1.7,0.7,3.5,1.8,4.7,3.6c1.3,1.7,1.7,4.6,0.5,6.5c-1.1,1.9-2.6,3-3.9,4c-1.4,0.9-2.7,1.9-4.1,2.8l-1-1.2c1-1.3,2.2-2.5,3.3-3.7
				c1.1-1.2,2.2-2.3,2.6-3.4c0.8-1.9-1-3.9-3.6-4.9c-1.4-0.6-3.3-1.2-4.9-2.8c-1.5-1.5-2.3-3.5-2.6-5.3c-0.7-3.7,0.1-6.9-0.3-10
				L983,624.6z"/>
			<path class="st12" d="M946.3,616c0.6-2.4,2-4.6,4.1-6.2c2-1.7,4.6-2.6,7.3-2.7c5.3-0.3,10.5,2.7,12.6,7.1l-1.2,1
				c-3.5-2.7-7.3-4.2-11.2-4.1c-3.9,0.1-7.5,2.1-10.1,5.6L946.3,616z"/>
			<path class="st12" d="M987.6,611.1c0.6-1.9,1.6-3.6,3.1-5.1c1.5-1.5,3.5-2.5,5.7-2.8c4.3-0.7,8.9,1.5,10.6,5.3l-1.3,0.9
				c-2.8-1.9-5.9-2.7-8.8-2.3c-1.4,0.2-2.8,0.7-4.2,1.5c-1.3,0.8-2.6,2-3.9,3.2L987.6,611.1z"/>
			<path class="st0" d="M965.5,663.4c7,10.9,16.3,12.1,23.5,0.6L965.5,663.4z"/>
			<path class="st19" d="M1013.7,629.3c0,7.7-0.7,18.4-2,26.1c-4.8-1.6-8.4-6.1-8.4-11.5C1003.3,637.9,1007.9,630.3,1013.7,629.3z"
				/>
			<circle class="st19" cx="948.4" cy="651.1" r="12.9"/>
			<path class="st11" d="M908.4,640c-2.5-1.7-4.9-3.6-7.2-4.7c-1.2-0.6-2.2-0.9-3.2-0.8c-1,0.1-2.1,0.6-3.3,1.5l-1.3-0.8
				c0.5-1.6,1.7-3.4,3.8-4.1c2.1-0.7,4.2-0.1,5.8,0.7c3.2,1.7,5.4,4.3,6.7,7.4L908.4,640z"/>
			<path class="st20" d="M547.2,1011.7l-18.6,56.4l-3.8-44.1C536.4,1021.5,542.7,1016.9,547.2,1011.7z"/>
		</g>
		<line class="st21" x1="240.4" y1="1799" x2="2826.3" y2="1799"/>
	</g>
</g>
</svg>
