<?xml version="1.0" encoding="utf-8"?>
<!-- Generator: Adobe Illustrator 24.1.1, SVG Export Plug-In . SVG Version: 6.00 Build 0)  -->
<svg version="1.1" xmlns="http://www.w3.org/2000/svg" xmlns:xlink="http://www.w3.org/1999/xlink" x="0px" y="0px"
	 viewBox="0 0 500 500" style="enable-background:new 0 0 500 500;" xml:space="preserve">
<style type="text/css">
	.st0{fill:#EBEBEB;}
	.st1{fill:#F0F0F0;}
	.st2{fill:#F5F5F5;}
	.st3{fill:#FFFFFF;}
	.st4{opacity:0.7;fill:#E6E6E6;}
	.st5{fill:#E6E6E6;}
	.st6{fill:#FAFAFA;}
	.st7{display:none;}
	.st8{display:inline;}
	.st9{fill:#407BFF;}
	.st10{opacity:0.9;fill:#FFFFFF;}
	.st11{opacity:0.4;}
	.st12{opacity:0.3;fill:#407BFF;}
	.st13{opacity:0.6;fill:#FFFFFF;}
	.st14{opacity:0.5;fill:#FFFFFF;}
	.st15{fill:#263238;}
	.st16{fill:#FFC3BD;}
	.st17{fill:#ED847E;}
	.st18{opacity:0.2;}
	.st19{opacity:0.8;fill:#263238;}
	.st20{opacity:0.3;}
</style>
<g id="Background_Complete">
	<g>
		<g>
			<rect y="382.4" class="st0" width="500" height="0.3"/>
			<path class="st0" d="M237,337.8H43.9c-3.1,0-5.7-2.6-5.7-5.7V60.7c0-3.1,2.6-5.7,5.7-5.7H237c3.1,0,5.7,2.6,5.7,5.7v271.4
				C242.7,335.2,240.2,337.8,237,337.8z M43.9,55.2c-3,0-5.5,2.4-5.5,5.5v271.4c0,3,2.4,5.5,5.5,5.5H237c3,0,5.5-2.4,5.5-5.5V60.7
				c0-3-2.4-5.5-5.5-5.5H43.9z"/>
			<path class="st0" d="M453.3,337.8H260.2c-3.1,0-5.7-2.6-5.7-5.7V60.7c0-3.1,2.6-5.7,5.7-5.7h193.1c3.1,0,5.7,2.6,5.7,5.7v271.4
				C459,335.2,456.5,337.8,453.3,337.8z M260.2,55.2c-3,0-5.5,2.4-5.5,5.5v271.4c0,3,2.4,5.5,5.5,5.5h193.1c3,0,5.5-2.4,5.5-5.5
				V60.7c0-3-2.4-5.5-5.5-5.5H260.2z"/>
		</g>
		<g>
			<rect x="51.3" y="391.9" class="st0" width="26" height="0.3"/>
			<rect x="145.2" y="389.2" class="st0" width="45" height="0.3"/>
			<rect x="78.3" y="401.2" class="st0" width="60.8" height="0.3"/>
			<rect x="429.5" y="399.5" class="st0" width="19.2" height="0.3"/>
			<rect x="365.3" y="399.5" class="st0" width="55.3" height="0.3"/>
			<rect x="257" y="395.3" class="st0" width="74.5" height="0.3"/>
		</g>
	</g>
	<g>
		<g>
			<g>
				<rect x="222.8" y="274.5" class="st1" width="42" height="107.9"/>
				
					<rect x="72.4" y="274.5" transform="matrix(-1 -1.224647e-16 1.224647e-16 -1 295.1656 656.9081)" class="st2" width="150.5" height="107.9"/>
				
					<rect x="81.6" y="349.9" transform="matrix(-1 -1.224647e-16 1.224647e-16 -1 188.2566 721.8099)" class="st3" width="25.1" height="22"/>
				
					<rect x="81.6" y="319.9" transform="matrix(-1 -1.224647e-16 1.224647e-16 -1 188.2566 661.7457)" class="st0" width="25.1" height="22"/>
				<rect x="71.9" y="288.4" class="st4" width="193" height="4.3"/>
			</g>
			<g>
				<rect x="222.8" y="272.4" class="st1" width="44.4" height="17.5"/>
				
					<rect x="70" y="272.4" transform="matrix(-1 -1.224647e-16 1.224647e-16 -1 292.845 562.3096)" class="st2" width="152.8" height="17.5"/>
			</g>
		</g>
		<g>
			<g>
				<rect x="216.2" y="239.4" class="st1" width="32.7" height="33.3"/>
				
					<rect x="102.5" y="239.4" transform="matrix(-1 -1.224647e-16 1.224647e-16 -1 318.7046 512.1246)" class="st2" width="113.8" height="33.3"/>
				<rect x="102.1" y="244.4" class="st4" width="146.8" height="2.7"/>
			</g>
			<g>
				<rect x="216.2" y="237.8" class="st1" width="34.5" height="7.8"/>
				
					<rect x="100.7" y="237.8" transform="matrix(-1 -1.224647e-16 1.224647e-16 -1 316.9012 483.3903)" class="st2" width="115.6" height="7.8"/>
			</g>
		</g>
		<g>
			<g>
				
					<rect x="287.4" y="220.5" transform="matrix(-1 -1.224647e-16 1.224647e-16 -1 606.8085 602.9208)" class="st5" width="32" height="161.9"/>
				<polygon class="st1" points="294.3,382.4 287.4,382.4 287.4,370.9 301.4,370.9 				"/>
				
					<rect x="394.1" y="220.5" transform="matrix(-1 -1.224647e-16 1.224647e-16 -1 820.2379 602.9208)" class="st5" width="32" height="161.9"/>
				
					<rect x="287.4" y="220.5" transform="matrix(-1 -1.224647e-16 1.224647e-16 -1 687.5097 600.6029)" class="st1" width="112.7" height="159.6"/>
				
					<rect x="292.7" y="227.6" transform="matrix(-1 -1.224647e-16 1.224647e-16 -1 687.5097 498.9454)" class="st5" width="102.1" height="43.8"/>
				<path class="st6" d="M350.5,248.5c0,3.7-3,6.7-6.7,6.7c-3.7,0-6.7-3-6.7-6.7c0-3.7,3-6.7,6.7-6.7
					C347.5,241.8,350.5,244.8,350.5,248.5z"/>
				<polygon class="st1" points="393.3,382.4 400.1,382.4 400.1,370.9 386.1,370.9 				"/>
				<rect x="292.7" y="278.4" class="st5" width="102.1" height="94.6"/>
				<circle class="st6" cx="380.7" cy="292.5" r="6.7"/>
			</g>
		</g>
		<g>
			<g>
				
					<rect x="185.2" y="-27.5" transform="matrix(-1.836970e-16 1 -1 -1.836970e-16 387.7407 -113.713)" class="st5" width="131" height="329"/>
				
					<rect x="183.8" y="-27.5" transform="matrix(-1.836970e-16 1 -1 -1.836970e-16 386.287 -112.2593)" class="st1" width="131" height="329"/>
				<rect x="93.1" y="79.9" class="st3" width="312.3" height="114.2"/>
			</g>
			<polygon class="st5" points="129.5,127.5 118.6,146.5 140.5,146.5 			"/>
			<rect x="168.6" y="128" class="st5" width="17.9" height="17.9"/>
			<polygon class="st5" points="225.6,125.5 213.5,134.3 218.2,148.5 233.1,148.5 237.7,134.3 			"/>
			<polygon class="st5" points="280,126 267.3,126 261,137 267.3,148 280,148 286.3,137 			"/>
			<polygon class="st5" points="321.7,125 311.8,129.7 309.3,140.5 316.2,149.1 327.2,149.1 334.1,140.5 331.6,129.7 			"/>
			<polygon class="st5" points="374.6,125.3 364.9,125.3 358,132.2 358,141.9 364.9,148.7 374.6,148.7 381.4,141.9 381.4,132.2 			
				"/>
		</g>
	</g>
</g>
<g id="Background_Simple" class="st7">
	<g class="st8">
		<path class="st9" d="M243.6,327.4C159.2,315,63.8,275.8,73.8,179.7C82.9,92.4,181.3,48,258.9,101.3c33.4,23,39.6,63.3,77.5,81.7
			c37.9,18.4,93,19.9,93.2,75.3C429.8,344,299.2,335.5,243.6,327.4z"/>
		<path class="st10" d="M243.6,327.4C159.2,315,63.8,275.8,73.8,179.7C82.9,92.4,181.3,48,258.9,101.3c33.4,23,39.6,63.3,77.5,81.7
			c37.9,18.4,93,19.9,93.2,75.3C429.8,344,299.2,335.5,243.6,327.4z"/>
	</g>
</g>
<g id="Shadow_1_">
	<ellipse id="_x3C_Path_x3E__332_" class="st2" cx="250" cy="416.2" rx="193.9" ry="11.3"/>
</g>
<g id="To_Do_List">
	<g>
		<g>
			<path class="st9" d="M239.4,129.5h164.7c3.5,0,6.2,2.9,6,6.4l-13.4,216.3c-0.2,3.5-3.3,6.4-6.8,6.4H225.2c-3.5,0-6.2-2.9-6-6.4
				l13.4-216.3C232.8,132.4,235.9,129.5,239.4,129.5z"/>
			<path class="st11" d="M239.4,129.5h164.7c3.5,0,6.2,2.9,6,6.4l-13.4,216.3c-0.2,3.5-3.3,6.4-6.8,6.4H225.2c-3.5,0-6.2-2.9-6-6.4
				l13.4-216.3C232.8,132.4,235.9,129.5,239.4,129.5z"/>
		</g>
		<path class="st9" d="M235.6,129.5h164.7c3.5,0,6.2,2.9,6,6.4l-13.4,216.3c-0.2,3.5-3.3,6.4-6.8,6.4H221.4c-3.5,0-6.2-2.9-6-6.4
			l13.4-216.3C229.1,132.4,232.1,129.5,235.6,129.5z"/>
		<polygon class="st11" points="224.3,346.9 384.6,348.9 397.6,139.3 237.2,139.3 		"/>
		<path class="st3" d="M219.7,344.8c54.1,0,108.2,0,162.3,0c8.9-81.9,11.7-126.1,12.9-208c-54.1,0-108.2,0-162.3,0
			C231.3,218.7,228.6,262.9,219.7,344.8z"/>
		<g>
			<path class="st12" d="M375.5,193.8h-27.9c-0.6,0-1.1-0.2-1.5-0.7c-0.4-0.4-0.6-1-0.6-1.5l1.7-27.9c0.1-1.1,1-1.9,2.1-1.9h27.9
				c0.6,0,1.1,0.2,1.5,0.7c0.4,0.4,0.6,1,0.6,1.5l-1.7,27.9C377.5,192.9,376.6,193.8,375.5,193.8z M349.7,189.6h23.8l1.5-23.8h-23.8
				L349.7,189.6z"/>
			<path class="st12" d="M372.8,236.3h-27.9c-0.6,0-1.1-0.2-1.5-0.7c-0.4-0.4-0.6-1-0.6-1.5l1.7-27.9c0.1-1.1,1-1.9,2.1-1.9h27.9
				c0.6,0,1.1,0.2,1.5,0.7c0.4,0.4,0.6,1,0.6,1.5l-1.7,27.9C374.8,235.5,373.9,236.3,372.8,236.3z M347.1,232.2h23.8l1.5-23.8h-23.8
				L347.1,232.2z"/>
			<path class="st12" d="M370.2,278.9h-27.9c-0.6,0-1.1-0.2-1.5-0.7c-0.4-0.4-0.6-1-0.6-1.5l1.7-27.9c0.1-1.1,1-1.9,2.1-1.9h27.9
				c0.6,0,1.1,0.2,1.5,0.7c0.4,0.4,0.6,1,0.6,1.5l-1.7,27.9C372.2,278,371.3,278.9,370.2,278.9z M344.5,274.8h23.8l1.5-23.8h-23.8
				L344.5,274.8z"/>
			<path class="st12" d="M367.6,321.5h-27.9c-0.6,0-1.1-0.2-1.5-0.7c-0.4-0.4-0.6-1-0.6-1.5l1.7-27.9c0.1-1.1,1-1.9,2.1-1.9h27.9
				c0.6,0,1.1,0.2,1.5,0.7c0.4,0.4,0.6,1,0.6,1.5l-1.7,27.9C369.6,320.6,368.7,321.5,367.6,321.5z M341.8,317.3h23.8l1.5-23.8h-23.8
				L341.8,317.3z"/>
			<path class="st12" d="M259.9,174.1h63.3c1.9,0,3.6-1.6,3.7-3.5l0,0c0.1-1.9-1.4-3.5-3.3-3.5h-63.3c-1.9,0-3.6,1.6-3.7,3.5l0,0
				C256.5,172.5,258,174.1,259.9,174.1z"/>
			<path class="st12" d="M271,188.4h51.3c1.9,0,3.6-1.6,3.7-3.5l0,0c0.1-1.9-1.4-3.5-3.3-3.5h-51.3c-1.9,0-3.6,1.6-3.7,3.5l0,0
				C267.6,186.8,269.1,188.4,271,188.4z"/>
			<path class="st12" d="M256.8,223.9h63.3c1.9,0,3.4,1.6,3.3,3.5l0,0c-0.1,1.9-1.8,3.5-3.7,3.5h-63.3c-1.9,0-3.4-1.6-3.3-3.5l0,0
				C253.2,225.5,254.9,223.9,256.8,223.9z"/>
			<path class="st12" d="M269.7,209.6H321c1.9,0,3.4,1.6,3.3,3.5l0,0c-0.1,1.9-1.8,3.5-3.7,3.5h-51.3c-1.9,0-3.4-1.6-3.3-3.5l0,0
				C266.1,211.2,267.8,209.6,269.7,209.6z"/>
			<path class="st12" d="M254.6,259.2h63.3c1.9,0,3.6-1.6,3.7-3.5l0,0c0.1-1.9-1.4-3.5-3.3-3.5H255c-1.9,0-3.6,1.6-3.7,3.5l0,0
				C251.2,257.6,252.7,259.2,254.6,259.2z"/>
			<path class="st12" d="M291.5,273.5H317c1.9,0,3.6-1.6,3.7-3.5l0,0c0.1-1.9-1.4-3.5-3.3-3.5H292c-1.9,0-3.6,1.6-3.7,3.5l0,0
				C288.1,271.9,289.6,273.5,291.5,273.5z"/>
			<path class="st12" d="M265.7,273.5h13.4c1.9,0,3.6-1.6,3.7-3.5l0,0c0.1-1.9-1.4-3.5-3.3-3.5h-13.4c-1.9,0-3.6,1.6-3.7,3.5l0,0
				C262.4,271.9,263.8,273.5,265.7,273.5z"/>
			<path class="st12" d="M252,301.8h63.3c1.9,0,3.6-1.6,3.7-3.5v0c0.1-1.9-1.4-3.5-3.3-3.5h-63.3c-1.9,0-3.6,1.6-3.7,3.5v0
				C248.6,300.2,250,301.8,252,301.8z"/>
			<path class="st12" d="M263.1,316.1h51.3c1.9,0,3.6-1.6,3.7-3.5l0,0c0.1-1.9-1.4-3.5-3.3-3.5h-51.3c-1.9,0-3.6,1.6-3.7,3.5l0,0
				C259.7,314.5,261.2,316.1,263.1,316.1z"/>
			<path class="st9" d="M360.1,186.1c-0.4,0-0.8-0.1-1.2-0.4l-10.8-7.4c-0.9-0.6-1.2-1.9-0.5-2.9c0.6-0.9,1.9-1.2,2.9-0.5l9.2,6.3
				c3.4-4.1,12.9-15,20.9-18.6c1-0.5,2.3,0,2.7,1c0.5,1,0,2.3-1,2.7c-8.7,3.9-20.4,18.7-20.6,18.9
				C361.3,185.8,360.7,186.1,360.1,186.1z"/>
			<path class="st9" d="M355.1,227.8c-0.5,0-1-0.2-1.4-0.6l-9.4-9c-0.8-0.8-0.8-2.1-0.1-2.9c0.8-0.8,2.1-0.8,2.9-0.1l8,7.7
				c3.9-3.5,15-12.9,23.4-15.2c1.1-0.3,2.2,0.3,2.5,1.4c0.3,1.1-0.3,2.2-1.4,2.5c-9.1,2.5-22.9,15.4-23.1,15.6
				C356.1,227.7,355.6,227.8,355.1,227.8z"/>
		</g>
		<path class="st11" d="M337.6,141.7l3,0c3.4,0,6.1-2.7,6.2-6.1l0-5.6c0-0.3-0.3-0.6-0.6-0.6h-8.5c-0.4,0-0.7,0.3-0.7,0.7l-0.1,10.9
			C337,141.5,337.2,141.7,337.6,141.7z"/>
		<g>
			<g>
				<path class="st9" d="M291.6,119.4h51.1c3.2,0,5.4,2.6,5,5.8l-1.5,11.4c-0.4,3.2-3.4,5.8-6.5,5.8h-51.1c-3.2,0-5.4-2.6-5-5.8
					l1.5-11.4C285.4,122,288.4,119.4,291.6,119.4z"/>
				<path class="st13" d="M291.6,119.4h51.1c3.2,0,5.4,2.6,5,5.8l-1.5,11.4c-0.4,3.2-3.4,5.8-6.5,5.8h-51.1c-3.2,0-5.4-2.6-5-5.8
					l1.5-11.4C285.4,122,288.4,119.4,291.6,119.4z"/>
			</g>
			<path class="st14" d="M341.3,124.9h-23c-0.9,0-1.5-0.7-1.5-1.5c0-0.9,0.7-1.5,1.5-1.5h23c0.9,0,1.5,0.7,1.5,1.5
				C342.8,124.2,342.1,124.9,341.3,124.9z"/>
			<path class="st14" d="M310.6,124.9h-2.4c-0.9,0-1.5-0.7-1.5-1.5c0-0.9,0.7-1.5,1.5-1.5h2.4c0.9,0,1.5,0.7,1.5,1.5
				C312.2,124.2,311.5,124.9,310.6,124.9z"/>
		</g>
	</g>
</g>
<g id="Character_1_">
	<g>
		<g>
			<polygon class="st9" points="169.5,346.7 179.3,348.5 202.7,238.8 188.2,236.1 			"/>
			<polygon class="st15" points="204.2,162.6 216,158.8 216.8,154.5 205.8,154.1 			"/>
			<polygon class="st9" points="203.9,160.1 217.3,155.8 203.5,234.5 189,231.8 			"/>
			
				<rect x="189" y="233.1" transform="matrix(-0.9823 -0.1874 0.1874 -0.9823 344.0817 503.1089)" class="st15" width="13.6" height="4.4"/>
			<path class="st9" d="M171.2,359.6c-0.1,0.7,0.1,1.2,0.6,1.3c0.5,0.1,0.9-0.4,1.1-1c0.1-0.7-0.1-1.2-0.6-1.3
				C171.8,358.5,171.4,359,171.2,359.6z"/>
			<polygon class="st15" points="170.6,359.7 173.5,360.3 179.3,348.5 169.5,346.7 			"/>
			<path class="st15" d="M188.3,211.8c-0.2,0-0.4,0-0.5-0.1c-0.6-0.3-0.9-1-0.6-1.7c6.2-13.3,11.2-41,11.9-47.6
				c0.2-1.9,1.4-3.6,3.2-4.4l3.3-1.4c0.6-0.3,1.4,0,1.6,0.6c0.3,0.6,0,1.4-0.7,1.6l-3.3,1.4c-1,0.4-1.6,1.3-1.8,2.4
				c-0.7,6.9-5.7,34.7-12.1,48.4C189.3,211.6,188.8,211.8,188.3,211.8z"/>
		</g>
		<g>
			<g>
				<path class="st16" d="M142.3,158.8c-2.5,4.3-5,8.8-7.4,13.2c-1.2,2.2-2.3,4.5-3.4,6.7c-1.1,2.3-2.1,4.5-3,6.8l-0.2,0.4
					c0,0,0,0,0,0c0,0,0,0.1-0.1,0.2c-0.1,0.2-0.1,0.6-0.1,1c0,0.8,0.2,1.9,0.4,2.9c0.5,2.1,1.3,4.5,2.2,6.8c0.9,2.3,1.9,4.6,3,6.9
					c1,2.3,2.2,4.6,3.3,6.9l-4.7,3.2c-3.5-4.2-6.7-8.5-9.4-13.3c-1.3-2.4-2.6-4.9-3.6-7.8c-0.5-1.4-0.9-2.9-1.2-4.7
					c-0.1-0.9-0.2-1.8-0.1-2.9c0-0.5,0.1-1.1,0.2-1.7c0.1-0.3,0.2-0.6,0.2-0.9l0.2-0.5c1.6-5.3,3.7-10.3,6.1-15.2
					c2.3-4.9,4.9-9.5,7.8-14.2L142.3,158.8z"/>
				<path class="st16" d="M136.4,209.3l4.5,3.5l-6.8,5.6c0,0-3.1-3-2.6-6.7L136.4,209.3z"/>
				<polygon class="st16" points="142.6,217.8 138.1,223.7 134,218.4 140.8,212.7 				"/>
				<path class="st15" d="M168,117.1c0.1,0.6,0.5,1,0.9,1c0.4-0.1,0.6-0.6,0.5-1.2c-0.1-0.6-0.5-1-0.9-1
					C168.1,115.9,167.9,116.5,168,117.1z"/>
				<path class="st17" d="M168.5,118.2c0,0,2.1,3.2,3.9,4.6c-0.9,1.2-2.8,1.1-2.8,1.1L168.5,118.2z"/>
				<path class="st15" d="M165.1,114.2c-0.1,0-0.2,0-0.2-0.1c-0.1-0.1-0.2-0.4,0-0.5c1.4-1.5,3-1.2,3.1-1.2c0.2,0,0.3,0.2,0.3,0.4
					c0,0.2-0.2,0.3-0.4,0.3l0,0c-0.1,0-1.3-0.2-2.4,1C165.3,114.2,165.2,114.2,165.1,114.2z"/>
				<path class="st16" d="M150.8,125.6c1.1,5.6,2.2,15.9-1.7,19.6c0,0,1.5,5.7,11.9,5.7c11.4,0,5.5-5.7,5.5-5.7
					c-6.2-1.5-6.1-6.1-5-10.5L150.8,125.6z"/>
				<path class="st15" d="M146.9,145.7c-0.8-2,1-8,2.8-8.6c2.1-0.6,10-0.3,14,1.4c2.8,2.8,3.6,8.7,3.6,8.7L146.9,145.7z"/>
				<path class="st9" d="M114.1,407.5c0.8,0.2,1.5,0.2,1.9-0.1c0.2-0.1,0.3-0.4,0.2-0.8c-0.1-0.2-0.2-0.4-0.5-0.5
					c-1-0.5-3.4,0.5-3.5,0.5c-0.1,0-0.1,0.1-0.1,0.2c0,0.1,0,0.1,0.1,0.2C112.6,407.1,113.4,407.4,114.1,407.5z M115.4,406.3
					c0.1,0,0.1,0,0.2,0.1c0.1,0.1,0.2,0.2,0.3,0.3c0.1,0.3,0,0.4-0.1,0.5c-0.4,0.4-1.9,0-3-0.4C113.5,406.5,114.7,406.2,115.4,406.3
					z"/>
				<path class="st9" d="M112.3,406.9C112.3,406.9,112.3,406.9,112.3,406.9c1-0.3,2.8-1.6,2.8-2.4c0-0.2-0.1-0.4-0.5-0.6
					c-0.3-0.1-0.5-0.1-0.8,0.1c-1,0.5-1.7,2.6-1.7,2.7C112.1,406.7,112.1,406.8,112.3,406.9C112.2,406.9,112.2,406.9,112.3,406.9z
					 M114.4,404.2C114.5,404.2,114.5,404.2,114.4,404.2c0.3,0.1,0.3,0.2,0.3,0.3c0,0.5-1.2,1.5-2.1,2c0.2-0.6,0.7-1.8,1.4-2.2
					C114.2,404.2,114.3,404.2,114.4,404.2z"/>
				<path class="st9" d="M169.4,408.8c1,0,1.9-0.1,2.3-0.6c0.1-0.2,0.2-0.4,0-0.8c-0.1-0.2-0.3-0.4-0.6-0.4c-1.3-0.3-4,1.2-4.1,1.2
					c-0.1,0-0.1,0.1-0.1,0.2c0,0.1,0.1,0.1,0.1,0.1C167.6,408.7,168.5,408.8,169.4,408.8z M170.7,407.3c0.1,0,0.2,0,0.4,0
					c0.2,0,0.3,0.1,0.4,0.3c0.1,0.2,0.1,0.3,0,0.4c-0.4,0.5-2.3,0.5-3.7,0.3C168.4,408,169.8,407.3,170.7,407.3z"/>
				<path class="st9" d="M167.1,408.6C167.2,408.6,167.2,408.6,167.1,408.6c1-0.4,2.8-2.1,2.7-3c0-0.2-0.2-0.5-0.7-0.5
					c-0.4,0-0.7,0.1-1,0.3c-1,0.8-1.2,2.9-1.2,3c0,0.1,0,0.1,0.1,0.2C167.1,408.6,167.1,408.6,167.1,408.6z M169,405.5
					c0,0,0.1,0,0.1,0c0.3,0,0.3,0.2,0.4,0.2c0.1,0.5-1.2,1.8-2.1,2.4c0.1-0.6,0.4-1.8,1-2.4C168.6,405.6,168.8,405.5,169,405.5z"/>
				<polygon class="st16" points="158.7,408.4 166.4,408.4 167.1,390.7 159.5,390.7 				"/>
				<polygon class="st16" points="103.4,404.9 111.1,406.5 116.5,390 108.9,388.3 				"/>
				<path class="st15" d="M111.9,405.7l-8.4-1.8c-0.3-0.1-0.6,0.1-0.7,0.4l-2.9,6.3c-0.3,0.7,0.1,1.4,0.8,1.6
					c2.9,0.6,4.4,0.7,8.1,1.5c2.3,0.5,7.4,1.7,10.6,2.4c3.1,0.7,4.2-2.3,3-2.9c-5.5-2.5-7.8-4.7-9.3-6.8
					C112.8,406.1,112.4,405.8,111.9,405.7z"/>
				<path class="st15" d="M166.3,407.5H158c-0.3,0-0.6,0.2-0.7,0.5l-1.5,6.8c-0.2,0.7,0.4,1.4,1.1,1.4c3-0.1,7.4-0.2,11.2-0.2
					c4.4,0,2.7,0.2,7.9,0.2c3.1,0,4-3.2,2.7-3.5c-6-1.3-5.3-1.5-10.5-4.6C167.6,407.8,167,407.5,166.3,407.5z"/>
				<g>
					<path class="st15" d="M135.4,147c-7.2,1.6-13.1,20-13.1,20l14.4,11c0,0,5.3-5,7.6-14.2C146.8,154.2,142.7,145.3,135.4,147z"/>
				</g>
				<path class="st18" d="M141.5,160.4c-3.9,3.9-5.2,10.9-5.5,17l0.6,0.5c0,0,5.3-5,7.7-14.2c0.1-0.6,0.3-1.1,0.4-1.7L141.5,160.4z"
					/>
				<g>
					<path class="st15" d="M178.3,147.4c0,0,8.2,9.2,0.5,66.2c-12.3,0-35,0-41,0c-0.3-6.3,3.7-37-2.4-66.6c0,0,7-1.4,13.7-1.7
						c5.2-0.3,12.8-0.4,17.4,0C172.6,145.8,178.3,147.4,178.3,147.4z"/>
				</g>
				<g>
					<polygon class="st18" points="167.1,390.7 166.7,399.8 159.1,399.8 159.5,390.7 					"/>
					<polygon class="st18" points="108.9,388.4 116.5,390 113.7,398.5 106,396.9 					"/>
				</g>
				<path class="st16" d="M147.6,119.9c2,7.3,2.7,11.7,7.3,14.8c6.8,4.6,15.3-0.7,15.6-8.5c0.2-7-3-17.8-10.9-19.3
					C151.8,105.5,145.6,112.6,147.6,119.9z"/>
				<g>
					<path class="st16" d="M154.9,133.9C154.9,133.9,154.8,133.9,154.9,133.9c-2.5,0-4.8-1.1-6.2-3.1c-2.3-3.2-5.5-8.8-5.9-15.2
						c2.9-3.1,13.9-5.1,18.8-4c4.1,0.9,3.5,12.5-0.4,18.8C159.9,132.6,157.5,133.9,154.9,133.9z"/>
					<path class="st19" d="M154.9,133.9C154.9,133.9,154.8,133.9,154.9,133.9c-2.5,0-4.8-1.1-6.2-3.1c-2.3-3.2-5.5-8.8-5.9-15.2
						c2.9-3.1,13.9-5.1,18.8-4c4.1,0.9,3.5,12.5-0.4,18.8C159.9,132.6,157.5,133.9,154.9,133.9z"/>
				</g>
				<path class="st15" d="M147.3,118.2c-3.5-0.2-5.4-2.4-6-4.3c-0.9-2.6,0.1-8.1,5.3-8.3c5.2-0.2,5.8-3.1,4.2-3.8
					c3.4,0.3,2.3,2.6,2.3,2.6c0.9,0.1,1.8-2.4,7-2.3c5.2,0.2,7.8-0.9,7.1-2.1c2.5,0.5,1.8,3.5-0.3,4.3c0,0,4.9,3.8,6.1,1.7
					c0.8,1.5-0.8,3.3-7.1,2.5c2.5,3.5-3.4,2.7-5.9,4.3C157.4,114.6,150.7,118.4,147.3,118.2z"/>
				<path class="st16" d="M160.1,119.6c0.5,1.9,1.8,3.6,3.1,4.6c2,1.5,3.5,0,3.3-2.2c-0.1-2-1.3-5.2-3.5-5.9
					C160.8,115.5,159.5,117.4,160.1,119.6z"/>
				<path class="st15" d="M164.2,213.6c0,0-8.7,58.5-13.5,80.5c-5.2,24-33.2,103.5-33.2,103.5l-13.7-3c0,0,19.6-64.8,24-98.3
					c3.4-25.8,10-82.6,10-82.6H164.2z"/>
				<path class="st9" d="M120.8,392.9c0.1,0-2.6,5-2.6,5l-15.4-3.3l1.3-4.6L120.8,392.9z"/>
				<path class="st20" d="M158.7,234.4c-10.1,2-9,39.5-7.8,58.7c2.9-13.6,7.1-39.9,10-58.5C160.3,234.4,159.5,234.3,158.7,234.4z"/>
				<path class="st15" d="M178.7,213.6c0,0,1.1,57.3,0.2,80.6c-0.9,24.3-9.4,103.9-9.4,103.9h-13c0,0-0.5-78.1-1.1-102
					c-0.6-26-3.8-82.5-3.8-82.5H178.7z"/>
				<path class="st9" d="M172.1,392.9c0.1,0-0.7,5.4-0.7,5.4h-15.8l-0.4-4.8L172.1,392.9z"/>
				<path class="st9" d="M178.5,146.3c2,0.8,3.9,2.3,4.5,7.3c0.6,4.8-0.5,46.4-1.8,59.7c-0.1,0.9-0.8,1.8-1.7,1.8
					c-8.2,0.4-33.6-3.1-42.1-1.6c-1,0.2-1.9-0.9-1.8-1.9c0.7-13-0.3-33.8-1.9-47.1c-1-8.7-1-17.7,6.2-19.3
					C145.3,144.1,170.6,143.1,178.5,146.3z"/>
				<path class="st16" d="M181.6,157.9c0.5,2.2,1,4.6,1.5,6.9c0.6,2.3,1.1,4.6,1.8,6.8c0.6,2.2,1.3,4.5,2.1,6.6
					c0.7,2.1,1.6,4.1,2.6,5.8c0.5,0.8,1,1.5,1.3,2c0.2,0.2,0.3,0.3,0.4,0.4c0,0,0,0.1,0.2,0.2c0.4,0.2,1.1,0.3,2,0.3
					c0.9,0,1.9-0.1,3-0.3c4.2-0.8,8.9-2.3,13.3-3.9l2.9,5c-4.2,3.2-8.5,5.9-13.7,7.8c-1.3,0.5-2.7,0.9-4.3,1.2
					c-1.5,0.3-3.3,0.4-5.3,0.1c-1-0.2-2.2-0.5-3.3-1.1c-1-0.6-1.8-1.2-2.5-1.8c-1.4-1.3-2.3-2.6-3.2-3.8c-3.2-5-4.9-9.9-6.5-14.9
					c-0.8-2.5-1.4-4.9-2-7.4c-0.6-2.5-1.1-4.9-1.6-7.6L181.6,157.9z"/>
				<g>
					<path class="st15" d="M164.8,154.9c-6.2,12.5,8.6,26.7,8.6,26.7l16.5-8.6c0,0-1.7-10.7-5.6-19.3
						C179.4,142.9,168.4,147.7,164.8,154.9z"/>
				</g>
				<path class="st16" d="M208.1,183.2l5.6-3.7l2.3,8.4c0,0-2.5,2.9-7.1-0.3L208.1,183.2z"/>
				<path class="st16" d="M218.6,182.9l-0.2,1.8c-0.1,0.8-0.5,1.6-1.1,2.2l-1.2,1l-2.3-8.4l0.7-0.2
					C216.7,178.8,218.8,180.6,218.6,182.9z"/>
			</g>
		</g>
	</g>
</g>
</svg>
